<?xml version="1.0" standalone="no"?><!DOCTYPE svg PUBLIC "-//W3C//DTD SVG 1.1//EN" "http://www.w3.org/Graphics/SVG/1.1/DTD/svg11.dtd"><svg height="3500" node-id="1" sillyvg="true" template-height="3500" template-width="4500" version="1.1" viewBox="0 0 4500 3500" width="4500" xmlns="http://www.w3.org/2000/svg" xmlns:xlink="http://www.w3.org/1999/xlink"><defs node-id="82"></defs><g node-id="84"><path d="M 2123.00 407.90 L 2075.20 408.50 L 2050.80 409.40 L 2025.90 410.80 L 2001.20 412.50 L 1976.30 414.80 L 1951.00 417.50 L 1925.50 420.70 L 1900.20 424.30 L 1874.70 428.50 L 1849.10 433.20 L 1823.30 438.40 L 1797.70 444.20 L 1772.10 450.50 L 1746.50 457.50 L 1720.80 465.00 L 1700.50 471.40 L 1680.20 478.20 L 1659.90 485.50 L 1639.80 493.20 L 1619.60 501.20 L 1599.70 509.70 L 1579.90 518.60 L 1560.20 528.00 L 1540.70 537.80 L 1521.20 548.10 L 1502.10 558.80 L 1483.10 570.00 L 1464.30 581.60 L 1445.70 593.80 L 1427.20 606.50 L 1409.10 619.60 L 1391.30 633.20 L 1373.70 647.30 L 1356.30 662.00 L 1339.10 677.30 L 1322.40 692.90 L 1306.00 709.10 L 1289.80 725.90 L 1274.00 743.30 L 1258.40 761.40 L 1242.30 781.00 L 1227.20 800.30 L 1213.00 819.30 L 1199.80 837.80 L 1187.40 856.10 L 1175.20 875.10 L 1163.80 893.70 L 1153.30 912.00 L 1143.50 930.00 L 1134.50 947.70 L 1125.70 966.00 L 1117.60 984.00 L 1110.30 1001.70 L 1103.50 1019.10 L 1097.40 1036.20 L 1091.70 1053.80 L 1086.50 1071.10 L 1081.90 1088.10 L 1077.80 1104.90 L 1074.20 1121.40 L 1061.20 1132.70 L 1048.60 1144.30 L 1036.50 1156.20 L 1024.70 1168.40 L 1013.30 1181.00 L 1002.30 1193.80 L 991.70 1207.00 L 981.50 1220.40 L 971.70 1234.10 L 962.30 1248.00 L 953.30 1262.20 L 944.70 1276.70 L 936.50 1291.40 L 928.80 1306.30 L 921.50 1321.40 L 914.70 1336.70 L 908.30 1352.30 L 902.30 1368.00 L 896.80 1383.90 L 891.70 1399.90 L 887.10 1416.10 L 883.00 1432.50 L 879.30 1449.00 L 876.10 1465.70 L 873.40 1482.40 L 871.10 1499.20 L 869.40 1516.10 L 868.10 1533.10 L 867.30 1550.30 L 867.00 1567.50 L 867.30 1583.50 L 868.00 1599.40 L 869.10 1615.30 L 870.60 1631.10 L 872.60 1646.80 L 875.00 1662.50 L 877.80 1678.10 L 881.00 1693.60 L 884.60 1709.00 L 888.70 1724.30 L 893.10 1739.40 L 898.00 1754.50 L 903.30 1769.40 L 908.90 1784.20 L 915.00 1798.80 L 921.50 1813.30 L 928.40 1827.60 L 935.60 1841.70 L 943.30 1855.60 L 951.40 1869.40 L 935.40 1875.80 L 919.70 1882.70 L 904.30 1889.90 L 889.30 1897.60 L 874.50 1905.60 L 860.10 1914.10 L 845.80 1923.00 L 831.80 1932.30 L 818.20 1941.90 L 805.00 1951.90 L 792.00 1962.20 L 779.30 1972.90 L 767.00 1984.00 L 755.00 1995.40 L 743.30 2007.10 L 732.00 2019.00 L 721.10 2031.40 L 710.50 2044.00 L 700.20 2056.90 L 690.40 2070.10 L 680.90 2083.50 L 671.80 2097.30 L 663.10 2111.20 L 654.70 2125.50 L 646.80 2140.00 L 639.30 2154.60 L 632.20 2169.50 L 625.50 2184.60 L 619.20 2200.00 L 613.30 2215.60 L 607.90 2231.30 L 602.90 2247.10 L 598.40 2263.20 L 594.40 2279.40 L 590.70 2295.80 L 587.60 2312.40 L 584.90 2329.00 L 582.70 2345.80 L 580.90 2362.60 L 579.70 2379.60 L 578.90 2396.80 L 578.70 2414.10 L 579.00 2433.70 L 580.00 2453.10 L 581.70 2472.40 L 583.90 2491.50 L 586.80 2510.50 L 590.30 2529.50 L 594.40 2548.20 L 599.10 2566.80 L 604.40 2585.10 L 610.30 2603.30 L 616.80 2621.30 L 623.90 2639.00 L 631.50 2656.50 L 639.70 2673.70 L 648.50 2690.70 L 657.80 2707.40 L 667.70 2723.80 L 678.10 2739.80 L 689.00 2755.50 L 700.50 2770.90 L 710.50 2783.50 L 720.80 2795.70 L 731.50 2807.70 L 742.50 2819.50 L 753.90 2831.00 L 765.60 2842.20 L 771.60 2851.70 L 488.00 3100.50 L 3988.00 3100.50 L 3964.00 3093.50 L 3920.60 3079.50 L 3882.60 3066.10 L 3839.70 3049.70 L 3816.80 3040.30 L 3793.80 3030.40 L 3770.30 3019.70 L 3739.00 3004.40 L 3723.50 2996.30 L 3732.50 2988.00 L 3741.20 2979.50 L 3757.50 2961.60 L 3765.20 2952.40 L 3774.40 2940.40 L 3783.00 2928.10 L 3791.00 2915.50 L 3798.60 2902.50 L 3805.50 2889.20 L 3812.00 2875.70 L 3817.80 2862.00 L 3823.10 2847.90 L 3827.80 2833.70 L 3831.80 2819.20 L 3835.30 2804.60 L 3838.20 2789.80 L 3841.50 2765.80 L 3843.20 2741.60 L 3843.40 2729.30 L 3843.10 2714.50 L 3842.20 2699.90 L 3840.70 2685.50 L 3838.70 2671.30 L 3836.10 2657.20 L 3832.90 2643.20 L 3829.20 2629.40 L 3824.90 2615.90 L 3820.20 2602.50 L 3814.90 2589.40 L 3809.10 2576.50 L 3802.90 2563.90 L 3796.10 2551.60 L 3788.90 2539.50 L 3781.20 2527.70 L 3773.10 2516.20 L 3764.50 2505.10 L 3755.50 2494.40 L 3746.00 2483.90 L 3736.10 2473.80 L 3725.90 2464.20 L 3715.20 2454.90 L 3704.20 2446.10 L 3692.70 2437.60 L 3680.90 2429.60 L 3668.80 2422.00 L 3656.30 2415.00 L 3643.50 2408.40 L 3630.30 2402.30 L 3616.70 2396.70 L 3630.30 2382.90 L 3643.40 2368.70 L 3656.00 2354.20 L 3668.10 2339.30 L 3679.70 2324.10 L 3690.80 2308.50 L 3701.40 2292.60 L 3711.40 2276.40 L 3720.90 2260.00 L 3729.90 2243.20 L 3738.40 2226.10 L 3746.30 2208.80 L 3753.60 2191.30 L 3760.40 2173.50 L 3766.70 2155.50 L 3772.30 2137.30 L 3777.40 2119.00 L 3781.90 2100.50 L 3785.90 2081.80 L 3789.20 2062.90 L 3792.00 2043.90 L 3794.10 2024.80 L 3795.70 2005.70 L 3796.60 1986.30 L 3796.90 1966.90 L 3796.60 1949.10 L 3795.80 1931.40 L 3794.50 1913.90 L 3792.60 1896.50 L 3790.30 1879.30 L 3787.50 1862.10 L 3784.20 1845.00 L 3780.40 1828.10 L 3776.10 1811.40 L 3771.40 1794.80 L 3766.20 1778.40 L 3760.60 1762.10 L 3754.50 1746.00 L 3747.90 1730.20 L 3740.90 1714.50 L 3733.50 1699.10 L 3725.60 1683.90 L 3717.30 1668.90 L 3708.60 1654.20 L 3699.50 1639.70 L 3689.90 1625.50 L 3680.00 1611.50 L 3669.60 1597.90 L 3658.90 1584.50 L 3647.70 1571.40 L 3636.20 1558.60 L 3624.40 1546.20 L 3612.10 1534.10 L 3599.40 1522.30 L 3586.40 1510.80 L 3573.10 1499.80 L 3559.40 1489.10 L 3545.40 1478.80 L 3531.00 1468.80 L 3516.20 1459.30 L 3501.10 1450.00 L 3508.00 1435.10 L 3514.40 1420.10 L 3520.40 1404.90 L 3525.90 1389.60 L 3530.90 1374.10 L 3535.50 1358.40 L 3539.60 1342.60 L 3543.20 1326.80 L 3546.40 1310.80 L 3549.10 1294.70 L 3551.30 1278.50 L 3553.10 1262.30 L 3554.30 1246.00 L 3555.10 1229.70 L 3555.40 1213.20 L 3555.10 1196.40 L 3554.40 1179.70 L 3553.20 1163.20 L 3551.50 1146.90 L 3549.30 1130.80 L 3546.60 1114.90 L 3543.50 1098.90 L 3539.90 1083.20 L 3535.90 1067.60 L 3531.50 1052.30 L 3526.70 1037.20 L 3521.40 1022.30 L 3515.60 1007.50 L 3509.50 992.90 L 3503.00 978.60 L 3496.10 964.50 L 3488.80 950.60 L 3481.10 937.00 L 3471.40 920.90 L 3461.10 905.30 L 3450.40 890.00 L 3439.20 875.10 L 3427.40 860.60 L 3415.20 846.60 L 3402.50 832.90 L 3389.40 819.70 L 3375.90 807.00 L 3361.80 794.70 L 3347.40 782.90 L 3332.60 771.60 L 3317.40 760.80 L 3301.90 750.50 L 3285.90 740.70 L 3272.30 733.00 L 3258.60 725.60 L 3244.60 718.70 L 3230.30 712.20 L 3215.80 706.00 L 3201.10 700.20 L 3186.30 694.90 L 3171.20 690.00 L 3156.00 685.60 L 3140.60 681.50 L 3124.90 678.00 L 3109.00 674.80 L 3093.20 672.10 L 3077.20 670.00 L 3061.00 668.20 L 3044.60 667.00 L 3028.00 666.30 L 3011.20 666.00 L 2994.30 666.20 L 2977.50 667.00 L 2960.80 668.30 L 2944.00 670.20 L 2927.40 672.50 L 2910.80 675.40 L 2894.40 678.80 L 2878.00 682.60 L 2861.80 687.00 L 2845.70 691.90 L 2829.70 697.30 L 2813.90 703.30 L 2802.30 689.40 L 2790.60 676.10 L 2778.70 663.20 L 2754.40 638.80 L 2741.90 627.10 L 2716.80 604.90 L 2699.70 590.70 L 2682.50 577.10 L 2665.20 564.00 L 2630.30 539.10 L 2586.60 510.00 L 2560.80 493.50 L 2552.20 488.40 L 2542.40 483.10 L 2531.20 477.60 L 2518.40 472.10 L 2492.40 462.10 L 2477.60 457.10 L 2461.40 452.10 L 2428.60 443.10 L 2391.50 434.60 L 2372.60 430.80 L 2332.20 423.80 L 2289.20 417.90 L 2267.00 415.40 L 2220.40 411.40 L 2197.00 409.90 L 2172.90 408.90 L 2148.20 408.20 L 2123.00 407.90 Z" fill="#f2f4ff" fill-rule="nonzero" group-id="1" id="path13786-6-3" node-id="5" stroke="none" target-height="2692.6" target-width="3500" target-x="488" target-y="407.9"></path><path d="M 3641.30 1971.50 L 3618.10 1971.80 L 3595.50 1972.60 L 3573.40 1973.90 L 3551.70 1975.70 L 3534.30 1977.60 L 3517.20 1979.90 L 3500.60 1982.50 L 3484.40 1985.50 L 3468.60 1988.80 L 3452.70 1992.60 L 3437.30 1996.80 L 3422.30 2001.40 L 3407.80 2006.40 L 3393.80 2011.80 L 3379.80 2017.80 L 3366.40 2024.20 L 3353.40 2031.00 L 3341.00 2038.30 L 3329.10 2046.00 L 3319.40 2052.90 L 3310.00 2060.10 L 3301.10 2067.70 L 3292.50 2075.60 L 3284.20 2083.90 L 3276.30 2092.60 L 3253.80 2119.00 L 3233.20 2144.10 L 3214.30 2168.00 L 3195.80 2192.10 L 3178.90 2215.00 L 3163.30 2236.70 L 3140.80 2269.10 L 3120.90 2298.90 L 3067.70 2380.60 L 3051.80 2404.20 L 3030.70 2434.00 L 3012.30 2457.50 L 3004.10 2467.00 L 2987.50 2484.70 L 2978.80 2493.10 L 2969.90 2501.10 L 2960.60 2508.70 L 2951.00 2516.00 L 2941.10 2522.80 L 2930.70 2529.30 L 2919.80 2535.50 L 2908.20 2541.40 L 2896.60 2546.70 L 2884.20 2551.80 L 2871.00 2556.60 L 2856.80 2561.10 L 2842.90 2565.00 L 2827.80 2568.60 L 2811.70 2572.00 L 2794.30 2575.10 L 2777.30 2577.70 L 2759.00 2580.00 L 2739.30 2582.00 L 2718.20 2583.70 L 2687.70 2585.60 L 2658.20 2586.90 L 2629.60 2587.80 L 2587.10 2588.70 L 2443.90 2589.40 L 2396.70 2590.60 L 2373.50 2591.70 L 2351.20 2593.30 L 2329.80 2595.40 L 2313.70 2597.40 L 2298.00 2599.70 L 2282.80 2602.50 L 2268.10 2605.70 L 2253.40 2609.30 L 2239.10 2613.50 L 2225.20 2618.30 L 2211.70 2623.50 L 2201.00 2628.20 L 2190.60 2633.20 L 2180.30 2638.70 L 2170.30 2644.70 L 2160.40 2651.10 L 2150.90 2657.80 L 2141.50 2665.20 L 2132.30 2673.00 L 2123.20 2681.50 L 2114.20 2690.50 L 2105.80 2699.80 L 2097.50 2709.70 L 2089.30 2720.30 L 2081.10 2731.70 L 2073.10 2743.90 L 2065.70 2756.00 L 2058.40 2769.00 L 2051.20 2782.90 L 2044.00 2797.70 L 2031.50 2825.40 L 2025.70 2836.70 L 2019.60 2847.20 L 2013.20 2857.20 L 2006.50 2866.60 L 1999.30 2875.70 L 1991.80 2884.40 L 1984.00 2892.50 L 1975.90 2900.20 L 1967.60 2907.50 L 1958.90 2914.40 L 1950.00 2920.90 L 1940.80 2927.00 L 1931.30 2932.80 L 1921.60 2938.30 L 1909.20 2944.60 L 1896.50 2950.50 L 1883.40 2956.00 L 1869.90 2961.10 L 1856.30 2965.70 L 1828.40 2974.10 L 1794.70 2982.50 L 1775.10 2986.80 L 1725.20 2996.30 L 1664.70 3007.20 L 1614.70 3017.00 L 1595.10 3021.50 L 1575.70 3026.30 L 1547.10 3034.50 L 1519.60 3044.00 L 1506.10 3049.40 L 1492.90 3055.20 L 1480.10 3061.40 L 1467.60 3068.10 L 1457.90 3073.80 L 1448.40 3079.90 L 1439.10 3086.40 L 1430.10 3093.30 L 1421.30 3100.50 L 3988.00 3100.50 L 3964.00 3093.50 L 3920.60 3079.50 L 3882.60 3066.10 L 3839.70 3049.70 L 3816.80 3040.30 L 3793.80 3030.40 L 3770.30 3019.70 L 3739.00 3004.40 L 3723.50 2996.30 L 3732.50 2988.00 L 3741.20 2979.50 L 3749.50 2970.70 L 3757.50 2961.60 L 3765.20 2952.40 L 3774.40 2940.40 L 3783.00 2928.10 L 3791.00 2915.50 L 3798.60 2902.50 L 3805.50 2889.20 L 3812.00 2875.70 L 3817.80 2862.00 L 3823.10 2847.90 L 3827.80 2833.70 L 3831.80 2819.20 L 3835.30 2804.60 L 3838.20 2789.80 L 3841.50 2765.80 L 3843.20 2741.60 L 3843.40 2729.30 L 3843.10 2714.50 L 3842.20 2699.90 L 3840.70 2685.50 L 3838.70 2671.30 L 3836.10 2657.20 L 3832.90 2643.20 L 3829.20 2629.40 L 3824.90 2615.90 L 3820.20 2602.50 L 3814.90 2589.40 L 3809.10 2576.50 L 3802.90 2563.90 L 3796.10 2551.60 L 3788.90 2539.50 L 3781.20 2527.70 L 3773.10 2516.20 L 3764.50 2505.10 L 3755.50 2494.40 L 3746.00 2483.90 L 3736.10 2473.80 L 3725.90 2464.20 L 3715.20 2454.90 L 3704.20 2446.10 L 3692.70 2437.60 L 3680.90 2429.60 L 3668.80 2422.00 L 3656.30 2415.00 L 3643.50 2408.40 L 3630.30 2402.30 L 3616.70 2396.70 L 3629.90 2383.20 L 3642.60 2369.50 L 3654.90 2355.40 L 3666.60 2341.00 L 3677.90 2326.30 L 3688.80 2311.20 L 3699.10 2295.80 L 3709.00 2280.10 L 3718.30 2264.20 L 3727.20 2247.90 L 3735.50 2231.40 L 3743.40 2214.70 L 3750.70 2197.70 L 3757.50 2180.60 L 3763.80 2163.10 L 3769.50 2145.60 L 3774.70 2127.80 L 3779.30 2109.90 L 3783.40 2091.80 L 3787.00 2073.50 L 3790.00 2055.10 L 3792.40 2036.60 L 3794.30 2018.00 L 3795.60 1999.30 L 3796.30 1980.40 L 3769.80 1977.70 L 3743.60 1975.50 L 3717.70 1973.70 L 3691.80 1972.50 L 3666.30 1971.70 L 3641.30 1971.50 Z" fill="#e7eaff" fill-rule="nonzero" group-id="1" id="path13788-1-5" node-id="6" stroke="none" target-height="1129" target-width="2566.7" target-x="1421.3" target-y="1971.5"></path></g><path d="M 1307.40 3015.20 L 1299.20 2948.50 L 1398.10 2948.50 L 1399.70 3042.40 L 1307.40 3015.20 Z" fill="#f6c6c0" fill-rule="nonzero" id="path35634-6-7" node-id="7" stroke="none" target-height="93.8999" target-width="100.5" target-x="1299.2" target-y="2948.5"></path><path d="M 1382.90 1807.40 L 1402.40 2714.70 L 1398.00 2948.50 L 1299.20 2948.50 L 1217.40 2169.70 L 1025.10 2948.50 L 934.40 2948.50 L 960.10 2714.70 L 1005.40 2202.60 L 1003.70 2184.80 L 1002.20 2174.40 L 989.80 2103.70 L 983.60 2063.60 L 980.60 2035.90 L 978.80 2007.90 L 978.60 1993.90 L 978.90 1980.00 L 979.40 1969.50 L 981.70 1949.00 L 983.30 1938.90 L 985.40 1928.90 L 987.90 1919.10 L 990.90 1909.50 L 994.40 1900.10 L 998.30 1890.90 L 1002.80 1881.90 L 1007.80 1873.20 L 1013.50 1864.70 L 1018.30 1858.20 L 1023.60 1851.90 L 1029.30 1845.70 L 1035.50 1839.70 L 1042.20 1833.90 L 1382.90 1807.40 Z" fill="#6584f7" fill-rule="nonzero" id="path35658-8-6" node-id="8" stroke="none" target-height="1141.1" target-width="468" target-x="934.4" target-y="1807.4"></path><path d="M 1274.60 2714.70 L 1402.40 2714.70 L 1398.00 2948.50 L 1299.20 2948.50 L 1274.60 2714.70 Z" fill="#3362c4" fill-rule="nonzero" id="path35660-8-83" node-id="9" stroke="none" target-height="233.80005" target-width="127.80005" target-x="1274.6" target-y="2714.7"></path><path d="M 960.10 2714.70 L 1082.80 2714.70 L 1025.10 2948.50 L 934.40 2948.50 L 960.10 2714.70 Z" fill="#3362c4" fill-rule="nonzero" id="path35662-3-4" node-id="10" stroke="none" target-height="233.80005" target-width="148.40002" target-x="934.4" target-y="2714.7"></path><path d="M 1217.40 2169.70 L 1265.50 1990.30 L 1302.80 1990.30 L 1242.20 2407.60 L 1217.40 2169.70 Z" fill="#3362c4" fill-rule="nonzero" id="path35664-3-4" node-id="11" stroke="none" target-height="417.30005" target-width="85.400024" target-x="1217.4" target-y="1990.3"></path><path d="M 1382.90 1779.90 L 1382.90 1807.40 L 1042.20 1833.90 L 1048.60 1779.90 L 1382.90 1779.90 Z" fill="#ffffff" fill-rule="nonzero" id="path35666-7-0" node-id="12" stroke="none" target-height="54" target-width="340.70007" target-x="1042.2" target-y="1779.9"></path><path d="M 1398.10 2978.10 L 1302.40 2979.20 L 1307.40 3015.20 L 1370.20 3010.80 L 1395.40 3008.70 L 1399.50 3008.10 L 1398.10 2978.10 Z" fill="#ffffff" fill-rule="nonzero" id="path35668-6-1" node-id="13" stroke="none" target-height="37.099854" target-width="97.099976" target-x="1302.4" target-y="2978.1"></path><path d="M 1558.30 3100.50 L 1297.90 3100.50 L 1307.40 3015.20 L 1338.40 3006.70 L 1342.80 3002.80 L 1347.70 2999.40 L 1352.90 2996.40 L 1358.50 2994.00 L 1364.20 2992.20 L 1370.30 2990.90 L 1379.50 2990.10 L 1388.90 2990.80 L 1393.60 2991.80 L 1398.20 2993.20 L 1402.80 2995.00 L 1407.50 2997.40 L 1411.90 3000.00 L 1416.10 3003.20 L 1420.40 3007.00 L 1424.60 3011.30 L 1445.40 3025.00 L 1458.20 3032.50 L 1465.00 3036.10 L 1478.70 3042.30 L 1485.00 3044.50 L 1493.00 3046.40 L 1514.30 3047.20 L 1527.00 3048.80 L 1536.10 3051.20 L 1543.50 3054.70 L 1546.70 3056.90 L 1549.40 3059.40 L 1551.80 3062.20 L 1553.80 3065.40 L 1555.50 3068.90 L 1556.80 3073.00 L 1557.80 3077.80 L 1558.70 3087.60 L 1558.30 3100.50 Z" fill="#3d3d3d" fill-rule="nonzero" id="path35670-9-5" node-id="14" stroke="none" target-height="110.3999" target-width="260.79993" target-x="1297.9" target-y="2990.1"></path><path d="M 1014.50 3015.20 L 1025.10 2948.50 L 934.40 2948.50 L 922.20 3042.40 L 1014.50 3015.20 Z" fill="#f6c6c0" fill-rule="nonzero" id="path35672-8-3" node-id="15" stroke="none" target-height="93.8999" target-width="102.89996" target-x="922.2" target-y="2948.5"></path><path d="M 930.30 2978.10 L 1020.20 2979.20 L 1014.50 3015.20 L 951.70 3010.80 L 926.50 3008.70 L 922.50 3008.10 L 924.40 2999.90 L 930.30 2978.10 Z" fill="#ffffff" fill-rule="nonzero" id="path35674-8-44" node-id="16" stroke="none" target-height="37.099854" target-width="97.70001" target-x="922.5" target-y="2978.1"></path><path d="M 861.90 3100.50 L 1018.30 3100.50 L 1014.50 3015.20 L 983.50 3006.70 L 979.10 3002.70 L 974.50 2999.20 L 969.70 2996.10 L 964.70 2993.40 L 959.60 2991.30 L 954.50 2989.70 L 950.60 2988.90 L 942.90 2988.40 L 939.10 2988.80 L 935.40 2989.50 L 931.80 2990.70 L 928.20 2992.30 L 924.70 2994.50 L 921.50 2997.00 L 918.50 3000.00 L 915.50 3003.70 L 912.60 3008.10 L 909.50 3015.40 L 906.50 3021.60 L 903.60 3026.80 L 897.40 3036.00 L 889.80 3044.40 L 873.50 3058.30 L 868.30 3064.10 L 865.00 3070.20 L 863.80 3073.50 L 862.80 3077.60 L 862.10 3082.50 L 861.70 3087.40 L 861.90 3100.50 Z" fill="#3d3d3d" fill-rule="nonzero" id="path35676-3-1" node-id="17" stroke="none" target-height="112.1001" target-width="156.59998" target-x="861.7" target-y="2988.4"></path><path d="M 1035.20 640.10 L 1026.10 667.90 L 1015.30 699.30 L 1000.90 739.10 L 992.50 761.10 L 973.20 809.40 L 962.40 834.90 L 951.20 860.50 L 939.20 886.30 L 930.90 903.40 L 913.80 936.80 L 895.70 969.10 L 886.60 984.30 L 877.00 999.20 L 867.40 1013.20 L 849.60 1037.70 L 842.30 1048.70 L 835.80 1059.30 L 830.20 1069.60 L 825.30 1079.60 L 820.80 1090.20 L 817.10 1100.30 L 814.10 1110.10 L 811.80 1119.50 L 810.20 1128.60 L 809.10 1138.00 L 808.70 1147.00 L 808.80 1155.60 L 809.60 1163.90 L 810.90 1171.80 L 812.90 1179.70 L 815.30 1187.30 L 818.30 1194.50 L 821.90 1201.30 L 825.90 1207.90 L 830.50 1214.10 L 835.50 1219.90 L 841.00 1225.40 L 847.10 1230.60 L 853.60 1235.40 L 860.40 1239.70 L 867.70 1243.60 L 875.40 1247.10 L 883.70 1250.20 L 892.50 1252.90 L 901.20 1255.10 L 910.40 1256.80 L 920.10 1258.00 L 930.30 1258.80 L 941.00 1259.10 L 966.80 1258.40 L 1003.40 1255.50 L 1027.00 1253.00 L 1051.00 1249.90 L 1100.70 1242.50 L 1125.40 1238.40 L 1173.60 1229.80 L 1218.10 1221.10 L 1256.70 1213.10 L 1314.00 1200.50 L 1413.00 1174.20 L 1421.20 1160.60 L 1428.90 1144.90 L 1432.90 1135.50 L 1436.90 1124.60 L 1439.30 1117.10 L 1443.50 1100.70 L 1445.10 1092.10 L 1446.30 1083.30 L 1447.00 1074.00 L 1447.30 1064.80 L 1446.90 1055.30 L 1445.90 1045.60 L 1444.70 1038.50 L 1443.10 1031.20 L 1441.00 1023.90 L 1438.40 1016.40 L 1435.50 1009.30 L 1431.90 1002.00 L 1427.80 994.70 L 1418.20 980.10 L 1413.60 972.50 L 1405.50 956.70 L 1400.70 945.70 L 1396.40 934.50 L 1392.50 923.00 L 1386.00 899.80 L 1383.30 888.20 L 1379.10 865.00 L 1375.40 837.20 L 1374.00 821.90 L 1373.10 807.00 L 1372.30 781.60 L 1372.90 752.00 L 1353.20 739.50 L 1317.50 718.20 L 1286.30 700.60 L 1251.20 682.20 L 1232.60 673.10 L 1213.70 664.40 L 1194.60 656.20 L 1181.70 651.00 L 1156.50 641.90 L 1143.90 638.00 L 1131.80 634.60 L 1111.10 630.00 L 1094.40 627.70 L 1086.60 627.20 L 1078.60 627.00 L 1071.20 627.40 L 1064.30 628.20 L 1057.80 629.50 L 1052.60 630.90 L 1047.80 632.70 L 1043.30 634.80 L 1039.10 637.30 L 1035.20 640.10 Z" fill="#3d3d3d" fill-rule="nonzero" id="path4297-4-8-8-1" node-id="18" stroke="none" target-height="632.1" target-width="638.60004" target-x="808.7" target-y="627"></path><path d="M 1068.60 1087.50 L 983.00 1105.90 L 977.80 1112.10 L 970.10 1123.30 L 965.70 1131.20 L 960.10 1143.10 L 955.00 1157.40 L 952.80 1165.40 L 951.00 1174.10 L 949.60 1182.90 L 948.70 1192.30 L 948.40 1202.60 L 949.00 1256.10 L 950.50 1322.80 L 953.50 1430.20 L 1048.20 1452.00 L 1068.60 1087.50 Z" fill="#ff6853" fill-rule="nonzero" id="path9180" node-id="19" stroke="none" target-height="364.5" target-width="120.19995" target-x="948.4" target-y="1087.5"></path><path d="M 1182.90 992.50 L 1165.20 992.80 L 1151.30 993.70 L 1138.90 995.10 L 1130.20 1003.80 L 1121.80 1011.70 L 1113.40 1018.90 L 1096.40 1032.10 L 1075.10 1046.50 L 1023.30 1078.00 L 1009.90 1086.60 L 992.10 1099.00 L 983.00 1105.90 L 983.00 1392.10 L 1044.80 1644.70 L 1048.60 1779.90 L 1382.90 1779.90 L 1378.80 1467.00 L 1394.10 1463.60 L 1407.10 1459.20 L 1413.30 1456.50 L 1419.00 1453.60 L 1424.20 1450.40 L 1428.90 1447.10 L 1437.70 1460.70 L 1447.20 1474.20 L 1487.00 1526.70 L 1496.50 1539.70 L 1505.30 1552.60 L 1510.80 1561.40 L 1520.40 1578.70 L 1639.10 1566.80 L 1626.20 1524.00 L 1619.90 1504.60 L 1606.90 1467.10 L 1590.80 1424.70 L 1581.10 1401.30 L 1571.20 1378.40 L 1551.40 1335.50 L 1500.70 1231.80 L 1479.90 1187.40 L 1472.80 1174.70 L 1465.90 1163.50 L 1459.20 1153.60 L 1452.00 1144.10 L 1444.90 1135.60 L 1438.00 1128.00 L 1430.70 1120.80 L 1423.50 1114.30 L 1416.30 1108.40 L 1408.80 1102.80 L 1393.70 1092.60 L 1382.10 1085.50 L 1345.10 1063.90 L 1332.20 1055.90 L 1318.60 1046.70 L 1314.80 1041.00 L 1310.60 1035.70 L 1306.20 1030.80 L 1301.30 1026.30 L 1296.20 1022.20 L 1290.80 1018.40 L 1285.10 1014.90 L 1279.20 1011.70 L 1271.00 1007.90 L 1262.60 1004.60 L 1254.00 1001.80 L 1236.30 997.50 L 1227.50 995.90 L 1209.90 993.80 L 1191.80 992.70 L 1182.90 992.50 Z" fill="#ff6853" fill-rule="nonzero" id="path4262-7-9-5-98" node-id="20" stroke="none" target-height="787.4" target-width="656.1" target-x="983" target-y="992.5"></path><path d="M 1355.10 779.80 L 1375.20 842.50 L 1381.10 841.90 L 1386.40 840.80 L 1391.30 839.30 L 1395.80 837.20 L 1400.20 834.60 L 1404.20 831.70 L 1407.80 828.40 L 1411.20 824.70 L 1416.90 816.50 L 1421.50 807.40 L 1423.80 801.00 L 1425.70 794.40 L 1427.00 787.70 L 1427.90 780.90 L 1428.20 774.30 L 1428.10 767.90 L 1427.50 761.60 L 1426.40 755.70 L 1424.90 750.40 L 1423.40 746.50 L 1421.80 743.10 L 1417.80 737.60 L 1415.40 735.30 L 1412.80 733.60 L 1410.00 732.40 L 1407.00 731.70 L 1404.00 731.60 L 1400.60 732.10 L 1396.90 733.30 L 1392.80 735.30 L 1389.10 737.60 L 1385.00 740.80 L 1380.50 745.10 L 1375.40 750.50 L 1371.00 755.90 L 1360.90 770.40 L 1355.10 779.80 Z" fill="#f69cb3" fill-rule="nonzero" id="path4242-0-8-5-0" node-id="21" stroke="none" target-height="110.900024" target-width="73.099976" target-x="1355.1" target-y="731.6"></path><path d="M 1156.40 828.10 L 1156.30 863.80 L 1155.40 908.10 L 1153.80 939.50 L 1150.10 978.20 L 1148.60 1003.50 L 1231.80 1089.80 L 1280.90 1049.70 L 1262.00 954.80 L 1156.40 828.10 Z" fill="#f6c6c0" fill-rule="nonzero" id="path4248-1-7-73-67" node-id="22" stroke="none" target-height="261.70007" target-width="132.30005" target-x="1148.6" target-y="828.1"></path><path d="M 1156.40 828.10 L 1262.00 954.80 L 1276.30 1026.60 L 1269.20 1027.40 L 1262.10 1027.60 L 1257.40 1027.40 L 1248.20 1026.00 L 1243.70 1024.80 L 1239.40 1023.20 L 1235.20 1021.20 L 1231.20 1018.70 L 1227.40 1015.70 L 1223.80 1012.20 L 1219.40 1006.90 L 1215.30 1001.00 L 1211.50 994.40 L 1208.10 987.50 L 1205.00 980.30 L 1202.20 972.80 L 1198.50 961.30 L 1195.40 949.80 L 1192.80 938.40 L 1189.20 917.70 L 1188.10 909.20 L 1186.30 891.50 L 1156.40 828.10 Z" fill="#f69cb3" fill-rule="nonzero" id="path4250-1-3-9-0" node-id="23" stroke="none" target-height="199.5" target-width="119.900024" target-x="1156.4" target-y="828.1"></path><path d="M 1156.40 828.10 L 1150.70 826.70 L 1145.50 824.90 L 1140.90 822.70 L 1136.60 820.10 L 1132.70 817.00 L 1129.10 813.50 L 1125.90 809.80 L 1123.10 805.70 L 1118.50 796.80 L 1115.20 787.20 L 1113.70 780.50 L 1112.70 773.80 L 1112.20 766.90 L 1112.30 760.10 L 1112.80 753.50 L 1113.80 747.20 L 1115.20 740.90 L 1117.10 735.30 L 1119.20 730.30 L 1123.30 723.40 L 1128.00 718.50 L 1130.60 716.50 L 1133.40 715.20 L 1136.30 714.40 L 1139.40 714.10 L 1142.50 714.40 L 1145.70 715.30 L 1149.20 716.90 L 1153.10 719.50 L 1156.40 722.30 L 1160.10 726.00 L 1164.00 730.80 L 1168.30 736.90 L 1172.00 742.80 L 1175.90 750.00 L 1180.10 758.50 L 1184.60 768.60 L 1202.90 743.50 L 1213.90 727.10 L 1221.90 712.60 L 1225.40 705.10 L 1228.40 697.20 L 1231.00 688.90 L 1232.50 682.60 L 1233.60 676.10 L 1234.30 669.30 L 1234.60 662.30 L 1234.40 655.40 L 1233.70 648.20 L 1232.40 640.60 L 1230.50 632.80 L 1249.00 640.10 L 1278.40 651.00 L 1301.60 658.10 L 1313.20 661.10 L 1324.90 663.60 L 1336.70 665.50 L 1345.60 666.60 L 1363.90 667.70 L 1373.40 667.60 L 1382.80 667.20 L 1392.50 666.30 L 1402.50 664.90 L 1413.00 663.00 L 1413.20 681.10 L 1412.50 715.60 L 1411.60 732.10 L 1408.70 764.40 L 1406.80 780.10 L 1402.00 809.60 L 1395.80 837.60 L 1392.30 851.00 L 1388.60 863.70 L 1380.50 887.00 L 1375.80 898.60 L 1371.00 909.30 L 1366.00 919.20 L 1361.00 928.30 L 1355.80 936.70 L 1350.00 945.20 L 1344.10 952.70 L 1338.30 959.40 L 1332.40 965.30 L 1326.40 970.40 L 1321.00 974.50 L 1315.50 978.00 L 1310.10 980.90 L 1304.70 983.20 L 1299.20 985.00 L 1293.70 986.20 L 1288.10 987.00 L 1282.50 987.20 L 1276.80 986.80 L 1271.00 985.80 L 1265.10 984.20 L 1259.00 982.00 L 1253.50 979.30 L 1247.80 976.10 L 1242.00 972.20 L 1236.10 967.50 L 1230.00 962.00 L 1223.70 955.50 L 1218.20 949.40 L 1212.60 942.40 L 1206.90 934.50 L 1201.10 925.70 L 1195.10 915.90 L 1189.00 904.90 L 1182.70 892.60 L 1176.20 878.80 L 1169.70 863.60 L 1163.10 846.70 L 1156.40 828.10 Z" fill="#f6c6c0" fill-rule="nonzero" id="path4252-8-9-7-5" node-id="24" stroke="none" target-height="354.40002" target-width="301" target-x="1112.2" target-y="632.8"></path><path d="M 1162.80 788.30 L 1162.60 785.20 L 1161.30 778.30 L 1158.80 769.10 L 1156.90 764.10 L 1154.60 758.80 L 1151.90 753.70 L 1148.70 748.70 L 1146.70 746.20 L 1143.00 743.30 L 1141.10 742.50 L 1137.60 742.00 L 1135.10 742.50 L 1132.80 743.50 L 1130.70 744.80 L 1129.00 746.30 L 1125.50 750.20 L 1129.30 750.00 L 1132.00 750.30 L 1135.70 751.50 L 1139.40 754.00 L 1141.10 756.00 L 1142.80 758.60 L 1143.50 760.40 L 1143.60 764.10 L 1142.90 766.90 L 1139.00 775.80 L 1137.90 778.90 L 1137.40 782.10 L 1137.40 784.20 L 1137.90 786.30 L 1138.80 788.60 L 1140.20 790.70 L 1142.20 793.00 L 1145.30 795.50 L 1151.20 799.10 L 1153.20 799.90 L 1155.30 800.30 L 1157.00 800.30 L 1159.50 799.20 L 1161.20 797.20 L 1162.50 793.30 L 1162.80 788.30 Z" fill="#f69cb3" fill-rule="nonzero" id="path4254-5-5-9-7" node-id="25" stroke="none" target-height="58.299988" target-width="37.30005" target-x="1125.5" target-y="742"></path><path d="M 1231.80 1089.80 L 1149.20 995.50 L 1151.50 965.20 L 1146.70 968.40 L 1138.60 975.00 L 1135.10 978.50 L 1130.80 983.60 L 1127.20 988.70 L 1124.20 993.90 L 1121.60 999.30 L 1119.60 1004.60 L 1118.00 1009.80 L 1116.10 1020.10 L 1115.70 1024.80 L 1116.00 1033.80 L 1116.60 1037.60 L 1165.00 1157.30 L 1231.80 1089.80 Z" fill="#ffffff" fill-rule="nonzero" id="path4256-48-3-74-4" node-id="26" stroke="none" target-height="192.10004" target-width="116.1001" target-x="1115.7" target-y="965.2"></path><path d="M 1280.90 1049.70 L 1269.40 991.90 L 1274.60 993.90 L 1279.70 996.50 L 1284.70 999.70 L 1289.50 1003.40 L 1294.00 1007.60 L 1298.40 1012.20 L 1302.40 1017.10 L 1306.00 1022.40 L 1309.40 1027.80 L 1312.40 1033.50 L 1314.90 1039.30 L 1317.00 1045.10 L 1318.70 1051.10 L 1319.80 1056.90 L 1320.40 1062.50 L 1320.10 1070.80 L 1318.50 1078.40 L 1288.90 1162.60 L 1231.80 1089.80 L 1280.90 1049.70 Z" fill="#ffffff" fill-rule="nonzero" id="path4258-6-9-5-62" node-id="27" stroke="none" target-height="170.69995" target-width="88.599976" target-x="1231.8" target-y="991.9"></path><path d="M 1412.00 677.60 L 1407.10 689.30 L 1400.30 701.60 L 1395.00 709.50 L 1389.00 717.60 L 1382.20 725.70 L 1375.00 733.50 L 1367.30 741.10 L 1359.00 748.70 L 1350.40 755.90 L 1341.40 762.90 L 1332.10 769.50 L 1322.50 775.80 L 1312.70 781.60 L 1302.80 787.00 L 1292.70 791.90 L 1282.70 796.30 L 1272.70 800.00 L 1257.50 804.40 L 1243.00 807.30 L 1235.70 808.10 L 1228.60 808.50 L 1221.70 808.40 L 1215.10 807.80 L 1208.50 806.70 L 1202.20 805.10 L 1196.20 803.00 L 1190.40 800.40 L 1184.60 768.60 L 1183.20 765.10 L 1179.20 756.30 L 1172.80 744.50 L 1168.90 738.20 L 1164.50 732.00 L 1157.80 724.40 L 1154.30 721.20 L 1150.50 718.30 L 1146.60 716.10 L 1137.80 712.50 L 1131.00 709.00 L 1123.90 704.80 L 1107.00 693.80 L 1079.70 674.30 L 1062.70 661.60 L 1035.20 640.10 L 1042.40 620.80 L 1051.60 600.10 L 1057.50 588.10 L 1064.50 574.80 L 1075.10 556.80 L 1087.60 538.10 L 1094.40 528.90 L 1101.70 519.80 L 1109.40 511.00 L 1117.50 502.60 L 1126.00 494.50 L 1132.70 488.70 L 1139.70 483.30 L 1146.80 478.20 L 1154.30 473.50 L 1162.00 469.30 L 1169.80 465.80 L 1177.80 462.80 L 1186.00 460.50 L 1194.30 458.70 L 1202.70 457.40 L 1211.30 456.60 L 1220.10 456.40 L 1228.80 456.60 L 1237.60 457.20 L 1246.50 458.20 L 1255.50 459.70 L 1267.40 462.20 L 1279.30 465.30 L 1291.30 469.00 L 1303.20 473.10 L 1314.90 477.70 L 1338.00 488.00 L 1360.10 499.40 L 1376.10 508.50 L 1391.00 517.60 L 1405.40 526.90 L 1418.40 535.80 L 1426.00 542.10 L 1431.90 548.60 L 1435.30 553.40 L 1438.00 558.20 L 1440.30 563.00 L 1442.10 568.00 L 1444.50 577.60 L 1445.50 584.80 L 1445.80 591.30 L 1445.70 597.50 L 1444.70 607.20 L 1443.60 613.20 L 1447.70 623.30 L 1463.20 659.00 L 1467.50 671.90 L 1469.10 678.40 L 1470.20 684.90 L 1470.70 691.50 L 1470.50 701.50 L 1469.70 706.70 L 1468.60 712.00 L 1467.00 717.10 L 1465.00 722.40 L 1462.30 727.90 L 1459.10 733.70 L 1453.30 742.60 L 1448.00 750.10 L 1443.00 756.40 L 1432.80 767.30 L 1428.50 771.30 L 1421.90 776.50 L 1416.80 780.00 L 1412.00 782.70 L 1406.10 785.10 L 1408.10 767.90 L 1409.90 749.40 L 1411.50 726.90 L 1412.30 702.30 L 1412.00 677.60 Z" fill="#3d3d3d" fill-rule="nonzero" id="path4260-9-9-5-36" node-id="28" stroke="none" target-height="352.1" target-width="435.5" target-x="1035.2" target-y="456.4"></path><path d="M 1378.80 1467.00 L 1349.10 1467.90 L 1338.50 1467.10 L 1327.50 1465.00 L 1321.70 1463.20 L 1315.60 1460.90 L 1309.70 1458.10 L 1303.40 1454.40 L 1296.60 1449.90 L 1290.10 1444.90 L 1283.10 1438.90 L 1275.50 1431.50 L 1268.30 1423.80 L 1260.50 1414.70 L 1252.10 1404.00 L 1242.40 1412.30 L 1232.30 1420.40 L 1218.00 1430.50 L 1210.40 1435.10 L 1202.60 1439.30 L 1194.30 1443.10 L 1185.50 1446.50 L 1171.70 1450.50 L 1156.50 1453.20 L 1148.80 1454.00 L 1140.60 1454.30 L 1131.90 1454.30 L 1122.70 1453.80 L 1113.70 1452.80 L 1104.10 1451.40 L 1093.90 1449.30 L 1083.00 1446.70 L 1384.70 1580.70 L 1378.80 1467.00 Z" fill="#e0523c" fill-rule="nonzero" id="path14884-1-0-6-6" node-id="29" stroke="none" target-height="176.69995" target-width="301.69995" target-x="1083" target-y="1404"></path><path d="M 1520.40 1578.70 L 1499.70 1544.70 L 1650.70 1488.60 L 1639.10 1566.80 L 1520.40 1578.70 Z" fill="#ffffff" fill-rule="nonzero" id="path7266-7-6" node-id="30" stroke="none" target-height="90.099976" target-width="151" target-x="1499.7" target-y="1488.6"></path><path d="M 1299.20 2948.50 L 1302.40 2979.20 L 1398.10 2978.10 L 1398.10 2948.50 L 1299.20 2948.50 Z" fill="#f6cdc1" fill-rule="nonzero" id="path36129-2-7" node-id="31" stroke="none" target-height="30.699951" target-width="98.900024" target-x="1299.2" target-y="2948.5"></path><path d="M 1586.20 1365.40 L 1588.20 1354.70 L 1589.50 1350.90 L 1590.90 1347.80 L 1592.70 1344.80 L 1594.50 1342.50 L 1596.40 1340.90 L 1598.40 1339.80 L 1600.50 1339.10 L 1602.70 1338.80 L 1605.00 1338.90 L 1607.40 1339.40 L 1610.40 1340.60 L 1613.50 1342.30 L 1616.60 1344.60 L 1622.20 1350.20 L 1627.10 1356.90 L 1630.70 1364.00 L 1631.90 1367.70 L 1632.90 1374.20 L 1650.80 1335.90 L 1655.10 1331.50 L 1657.80 1329.50 L 1660.80 1327.80 L 1664.10 1326.50 L 1667.90 1325.60 L 1671.70 1325.20 L 1676.20 1325.30 L 1681.30 1326.10 L 1685.60 1327.30 L 1689.90 1328.90 L 1694.10 1330.90 L 1698.30 1333.30 L 1703.50 1337.00 L 1708.50 1341.30 L 1713.30 1346.30 L 1717.80 1351.60 L 1721.90 1357.30 L 1725.70 1363.50 L 1729.20 1369.90 L 1732.20 1376.60 L 1734.90 1383.50 L 1737.10 1390.60 L 1738.80 1397.70 L 1740.10 1404.80 L 1740.80 1412.00 L 1741.00 1419.00 L 1740.60 1425.80 L 1738.90 1435.90 L 1735.90 1445.20 L 1734.30 1447.80 L 1727.50 1456.00 L 1711.90 1472.20 L 1688.50 1494.90 L 1669.10 1512.90 L 1667.90 1514.80 L 1604.20 1483.60 L 1603.40 1474.60 L 1598.90 1450.00 L 1590.40 1445.40 L 1587.20 1443.00 L 1584.60 1440.70 L 1582.20 1438.00 L 1580.30 1435.10 L 1578.90 1432.00 L 1577.80 1428.80 L 1576.90 1424.20 L 1576.60 1419.00 L 1576.80 1413.10 L 1577.50 1407.10 L 1580.20 1392.30 L 1586.20 1365.40 Z" fill="#f6cdc1" fill-rule="nonzero" id="path5736-7" node-id="32" stroke="none" target-height="189.6001" target-width="164.40002" target-x="1576.6" target-y="1325.2"></path><path d="M 787.40 2682.40 L 779.40 2682.60 L 771.50 2683.30 L 763.80 2684.30 L 756.30 2685.70 L 748.90 2687.50 L 739.80 2690.40 L 731.00 2693.70 L 722.50 2697.70 L 714.30 2702.10 L 706.40 2707.10 L 698.90 2712.50 L 691.80 2718.30 L 685.00 2724.70 L 678.70 2731.40 L 672.80 2738.50 L 667.40 2746.00 L 662.40 2753.90 L 658.00 2762.10 L 654.10 2770.60 L 650.70 2779.40 L 647.90 2788.50 L 646.10 2795.90 L 644.60 2803.50 L 643.60 2811.20 L 643.00 2819.00 L 642.70 2827.10 L 642.70 3100.50 L 1089.50 3100.50 L 1089.50 2827.10 L 1089.20 2819.00 L 1088.60 2811.20 L 1087.60 2803.50 L 1086.10 2795.90 L 1084.30 2788.50 L 1081.50 2779.40 L 1078.10 2770.60 L 1074.20 2762.10 L 1069.80 2753.90 L 1064.80 2746.00 L 1059.40 2738.50 L 1053.50 2731.40 L 1047.20 2724.70 L 1040.40 2718.30 L 1033.30 2712.50 L 1025.80 2707.10 L 1017.90 2702.10 L 1009.70 2697.70 L 1001.20 2693.70 L 992.40 2690.40 L 983.30 2687.50 L 975.90 2685.70 L 968.40 2684.30 L 960.70 2683.30 L 944.80 2682.40 L 787.40 2682.40 Z" fill="#e3e1ff" fill-rule="nonzero" id="rect8215" node-id="33" stroke="none" target-height="418.1001" target-width="446.8" target-x="642.7" target-y="2682.4"></path><path d="M 1462.30 2404.10 L 1454.30 2404.30 L 1446.40 2405.00 L 1438.70 2406.00 L 1431.20 2407.40 L 1423.80 2409.20 L 1414.60 2412.10 L 1405.80 2415.40 L 1397.40 2419.30 L 1389.20 2423.80 L 1381.30 2428.80 L 1373.80 2434.20 L 1366.70 2440.00 L 1359.90 2446.40 L 1353.60 2453.10 L 1347.70 2460.20 L 1342.30 2467.70 L 1337.30 2475.60 L 1332.90 2483.80 L 1329.00 2492.30 L 1325.60 2501.10 L 1322.80 2510.20 L 1321.00 2517.60 L 1319.50 2525.20 L 1318.50 2532.90 L 1317.90 2540.70 L 1317.60 2548.80 L 1317.60 3100.50 L 1785.60 3100.50 L 1785.60 2548.80 L 1784.80 2532.90 L 1783.70 2525.20 L 1782.30 2517.60 L 1780.50 2510.20 L 1777.60 2501.10 L 1774.30 2492.30 L 1770.40 2483.80 L 1765.90 2475.60 L 1761.00 2467.70 L 1755.50 2460.20 L 1749.70 2453.10 L 1743.30 2446.40 L 1736.60 2440.00 L 1729.50 2434.20 L 1722.00 2428.80 L 1714.10 2423.80 L 1705.90 2419.30 L 1697.40 2415.40 L 1688.60 2412.10 L 1679.50 2409.20 L 1664.60 2406.00 L 1656.90 2405.00 L 1649.00 2404.30 L 1640.90 2404.10 L 1462.30 2404.10 Z" fill="#cecfff" fill-rule="nonzero" id="path8220" node-id="34" stroke="none" target-height="696.3999" target-width="468" target-x="1317.6" target-y="2404.1"></path><path d="M 2483.50 3015.20 L 2491.60 2948.50 L 2392.80 2948.50 L 2391.10 3042.40 L 2483.50 3015.20 Z" fill="#f6c6c0" fill-rule="nonzero" id="path913-9-13" node-id="35" stroke="none" target-height="93.8999" target-width="100.5" target-x="2391.1" target-y="2948.5"></path><path d="M 2685.30 913.60 L 2564.60 999.20 L 2493.10 935.10 L 2474.80 944.60 L 2455.80 953.90 L 2387.70 986.00 L 2369.40 994.80 L 2353.30 1003.20 L 2339.30 1011.10 L 2325.40 1019.40 L 2313.50 1027.00 L 2293.60 1041.10 L 2279.30 1052.60 L 2270.60 1060.30 L 2261.20 1069.90 L 2127.00 1261.40 L 2002.70 1414.90 L 2006.60 1416.70 L 2032.30 1425.00 L 2042.40 1428.60 L 2060.20 1441.90 L 2067.90 1446.90 L 2075.10 1451.20 L 2082.80 1455.20 L 2090.10 1458.50 L 2096.90 1461.10 L 2103.30 1463.20 L 2110.10 1465.00 L 2122.30 1467.10 L 2127.90 1467.60 L 2135.50 1467.70 L 2142.40 1467.20 L 2148.60 1466.30 L 2160.30 1463.40 L 2165.20 1461.60 L 2172.10 1458.50 L 2177.40 1455.60 L 2182.00 1452.60 L 2187.40 1448.20 L 2335.90 1311.40 L 2369.90 1719.80 L 2742.20 1719.80 L 2758.30 1524.20 L 2776.50 1518.50 L 2786.10 1515.90 L 2844.70 1502.40 L 2859.10 1498.80 L 2872.70 1494.80 L 2881.70 1491.80 L 2890.10 1488.50 L 2898.00 1485.00 L 2903.80 1482.00 L 2914.40 1475.40 L 2919.10 1471.70 L 2923.60 1467.70 L 2927.60 1463.40 L 2931.30 1458.80 L 2934.60 1453.80 L 2937.40 1448.60 L 2939.70 1442.90 L 2941.60 1436.70 L 2943.00 1429.90 L 2944.00 1418.40 L 2944.80 1395.60 L 2944.60 1384.40 L 2943.90 1369.40 L 2942.70 1354.30 L 2940.90 1339.10 L 2938.80 1323.90 L 2933.40 1292.20 L 2912.80 1186.40 L 2905.80 1146.10 L 2900.30 1110.90 L 2897.80 1097.90 L 2895.80 1089.40 L 2890.80 1072.70 L 2887.70 1064.50 L 2884.10 1056.50 L 2880.00 1048.60 L 2876.60 1042.80 L 2868.60 1031.50 L 2863.90 1025.90 L 2859.00 1020.60 L 2853.60 1015.30 L 2847.60 1010.10 L 2841.10 1004.90 L 2834.40 1000.10 L 2827.00 995.40 L 2818.90 990.70 L 2810.00 986.00 L 2685.30 913.60 Z" fill="#6584f7" fill-rule="nonzero" id="path35496-7-82" node-id="36" stroke="none" target-height="806.2001" target-width="942.1001" target-x="2002.7" target-y="913.6"></path><path d="M 2472.90 676.20 L 2448.70 737.40 L 2443.00 736.40 L 2437.70 735.00 L 2432.90 733.10 L 2428.50 730.70 L 2424.40 727.90 L 2420.60 724.70 L 2417.10 721.10 L 2414.00 717.20 L 2408.90 708.70 L 2404.90 699.30 L 2403.00 692.70 L 2401.60 686.10 L 2400.70 679.30 L 2400.30 672.50 L 2400.40 665.90 L 2400.90 659.50 L 2401.90 653.20 L 2403.40 647.40 L 2405.20 642.20 L 2407.00 638.40 L 2408.90 635.10 L 2413.20 629.90 L 2415.70 627.80 L 2418.40 626.30 L 2421.30 625.30 L 2424.30 624.80 L 2427.40 624.90 L 2430.60 625.60 L 2434.30 627.00 L 2438.30 629.20 L 2441.80 631.80 L 2445.70 635.30 L 2449.90 639.80 L 2454.60 645.60 L 2458.70 651.30 L 2463.10 658.20 L 2467.80 666.40 L 2472.90 676.20 Z" fill="#f69cb3" fill-rule="nonzero" id="path883-6-5" node-id="37" stroke="none" target-height="112.60004" target-width="72.59985" target-x="2400.3" target-y="624.8"></path><path d="M 2435.80 539.20 L 2429.60 541.10 L 2420.10 545.40 L 2410.70 551.40 L 2403.00 558.20 L 2399.40 562.10 L 2396.00 566.60 L 2392.70 571.70 L 2391.50 574.30 L 2390.60 577.10 L 2390.00 580.40 L 2389.80 584.10 L 2390.00 589.00 L 2390.60 594.40 L 2391.70 600.40 L 2394.00 609.30 L 2397.00 618.80 L 2400.50 628.20 L 2404.40 637.60 L 2412.50 655.20 L 2419.90 669.90 L 2427.50 683.70 L 2435.80 539.20 Z" fill="#3d3d3d" fill-rule="nonzero" id="path876-7-48" node-id="38" stroke="none" target-height="144.5" target-width="46" target-x="2389.8" target-y="539.2"></path><path d="M 2671.10 521.80 L 2677.20 522.20 L 2681.70 523.00 L 2688.30 525.10 L 2692.10 526.80 L 2695.70 528.80 L 2699.50 531.40 L 2703.40 534.70 L 2706.90 538.30 L 2710.30 542.80 L 2713.70 548.10 L 2715.70 552.30 L 2719.50 562.50 L 2721.00 568.70 L 2722.10 574.90 L 2722.60 581.60 L 2722.70 588.90 L 2722.30 596.20 L 2720.40 611.80 L 2718.20 623.60 L 2715.40 635.50 L 2712.20 647.30 L 2708.70 658.60 L 2701.60 679.40 L 2695.10 696.30 L 2688.50 711.70 L 2689.80 730.50 L 2689.90 739.20 L 2689.50 748.00 L 2688.60 756.00 L 2687.40 763.40 L 2684.70 773.90 L 2681.20 782.30 L 2678.90 786.10 L 2676.40 789.40 L 2673.80 792.00 L 2670.90 794.20 L 2668.40 795.60 L 2665.80 796.60 L 2662.90 797.20 L 2656.50 797.30 L 2652.60 796.60 L 2648.30 795.20 L 2643.40 792.90 L 2638.00 789.80 L 2633.10 786.40 L 2627.70 782.00 L 2621.70 776.60 L 2615.10 769.90 L 2612.70 766.70 L 2610.10 762.50 L 2607.50 757.10 L 2602.90 745.10 L 2597.40 726.50 L 2594.30 713.90 L 2591.40 701.00 L 2586.30 673.60 L 2580.00 633.30 L 2576.90 609.40 L 2572.70 572.50 L 2547.10 575.30 L 2526.20 576.40 L 2502.10 576.40 L 2481.20 574.90 L 2464.80 572.50 L 2456.80 570.70 L 2449.20 568.60 L 2441.90 566.10 L 2436.60 563.90 L 2431.70 561.40 L 2422.90 555.80 L 2417.60 551.40 L 2412.10 546.40 L 2406.50 540.50 L 2396.20 527.80 L 2386.50 513.40 L 2382.10 505.90 L 2378.10 498.10 L 2374.50 490.20 L 2371.30 482.30 L 2368.70 474.50 L 2366.50 466.50 L 2365.00 458.90 L 2364.10 451.50 L 2363.80 446.00 L 2364.00 440.70 L 2364.70 435.70 L 2365.70 431.00 L 2367.20 426.40 L 2369.20 422.10 L 2371.80 418.20 L 2374.80 414.50 L 2377.50 411.90 L 2380.60 409.60 L 2384.10 407.50 L 2388.10 405.60 L 2392.70 403.90 L 2400.30 401.80 L 2407.20 400.30 L 2413.50 399.40 L 2419.90 399.00 L 2426.00 399.10 L 2431.90 399.50 L 2440.70 400.80 L 2449.70 402.80 L 2479.30 410.90 L 2491.30 413.90 L 2508.70 417.40 L 2529.20 420.40 L 2553.70 422.20 L 2566.60 422.60 L 2606.10 422.10 L 2614.00 422.60 L 2621.30 423.60 L 2628.10 425.20 L 2634.90 427.40 L 2641.10 429.90 L 2646.70 432.90 L 2651.90 436.20 L 2656.70 440.00 L 2661.10 444.10 L 2664.90 448.50 L 2668.30 453.20 L 2671.30 458.20 L 2673.70 463.40 L 2675.70 468.80 L 2677.20 474.40 L 2678.20 480.10 L 2678.70 485.90 L 2678.70 491.80 L 2678.30 497.90 L 2677.30 503.80 L 2675.70 509.80 L 2673.70 515.80 L 2671.10 521.80 Z" fill="#3d3d3d" fill-rule="nonzero" id="path874-7-52" node-id="39" stroke="none" target-height="398.3" target-width="358.8999" target-x="2363.8" target-y="399"></path><path d="M 2668.10 737.40 L 2665.80 773.00 L 2663.80 817.40 L 2663.30 848.80 L 2664.40 887.60 L 2664.30 912.90 L 2575.60 993.60 L 2529.20 950.40 L 2554.30 856.90 L 2668.10 737.40 Z" fill="#f6c6c0" fill-rule="nonzero" id="path885-54-9" node-id="40" stroke="none" target-height="256.19995" target-width="138.90015" target-x="2529.2" target-y="737.4"></path><path d="M 2668.10 737.40 L 2554.30 856.90 L 2535.30 927.60 L 2542.30 928.80 L 2554.10 929.60 L 2563.40 928.90 L 2567.90 928.00 L 2572.40 926.60 L 2576.70 924.90 L 2580.80 922.70 L 2584.80 920.00 L 2588.60 916.70 L 2593.40 911.70 L 2597.80 906.00 L 2602.10 899.70 L 2605.90 893.10 L 2609.50 886.10 L 2612.80 878.80 L 2617.30 867.50 L 2621.10 856.30 L 2624.40 845.10 L 2629.40 824.60 L 2631.10 816.30 L 2634.00 798.70 L 2668.10 737.40 Z" fill="#f69cb3" fill-rule="nonzero" id="path887-8-2" node-id="41" stroke="none" target-height="192.19995" target-width="132.80005" target-x="2535.3" target-y="737.4"></path><path d="M 2668.10 737.40 L 2673.80 736.40 L 2679.10 735.00 L 2683.90 733.10 L 2688.30 730.70 L 2692.40 727.90 L 2696.20 724.70 L 2699.60 721.10 L 2702.70 717.20 L 2707.90 708.70 L 2711.90 699.30 L 2713.80 692.70 L 2715.20 686.10 L 2716.10 679.30 L 2716.50 672.50 L 2716.40 665.90 L 2715.90 659.50 L 2714.80 653.20 L 2713.40 647.40 L 2711.60 642.20 L 2707.90 635.10 L 2705.90 632.30 L 2703.60 629.90 L 2701.10 627.80 L 2698.40 626.30 L 2695.50 625.30 L 2692.50 624.80 L 2689.40 624.90 L 2686.10 625.60 L 2682.50 627.00 L 2678.50 629.20 L 2675.00 631.80 L 2671.10 635.30 L 2666.80 639.80 L 2662.20 645.60 L 2658.10 651.30 L 2653.70 658.20 L 2649.00 666.40 L 2643.90 676.20 L 2627.20 649.90 L 2617.30 632.80 L 2610.30 617.90 L 2607.30 610.10 L 2604.80 602.00 L 2602.80 593.60 L 2601.70 587.20 L 2601.00 580.60 L 2600.80 573.80 L 2600.90 566.80 L 2601.60 559.90 L 2602.80 552.80 L 2604.50 545.40 L 2606.90 537.60 L 2588.10 543.70 L 2558.00 552.60 L 2534.40 558.30 L 2522.60 560.50 L 2510.70 562.20 L 2498.80 563.30 L 2489.90 563.80 L 2471.50 563.70 L 2462.10 563.00 L 2452.80 561.90 L 2443.20 560.40 L 2433.20 558.40 L 2422.90 555.80 L 2421.50 573.80 L 2419.90 608.30 L 2419.70 624.80 L 2420.40 657.30 L 2421.40 673.00 L 2424.20 702.80 L 2428.50 731.10 L 2431.10 744.80 L 2434.00 757.70 L 2440.60 781.40 L 2444.50 793.30 L 2448.60 804.30 L 2452.90 814.50 L 2457.30 823.90 L 2461.90 832.60 L 2467.20 841.50 L 2472.50 849.40 L 2477.90 856.50 L 2483.40 862.70 L 2489.00 868.30 L 2494.20 872.70 L 2499.40 876.50 L 2504.60 879.70 L 2509.90 882.40 L 2515.20 884.50 L 2520.60 886.20 L 2526.10 887.30 L 2531.80 887.80 L 2537.50 887.80 L 2543.30 887.20 L 2549.30 886.00 L 2555.50 884.20 L 2561.20 881.90 L 2567.10 879.10 L 2573.10 875.50 L 2579.30 871.20 L 2585.80 866.10 L 2592.50 860.20 L 2598.40 854.30 L 2604.40 847.70 L 2610.60 840.20 L 2617.00 831.80 L 2623.60 822.40 L 2630.40 812.00 L 2637.60 800.00 L 2644.90 786.70 L 2652.40 771.90 L 2660.20 755.50 L 2668.10 737.40 Z" fill="#f6c6c0" fill-rule="nonzero" id="path870-1-50" node-id="42" stroke="none" target-height="350.2" target-width="296.80005" target-x="2419.7" target-y="537.6"></path><path d="M 2664.30 697.30 L 2664.70 694.20 L 2666.40 687.40 L 2669.60 678.40 L 2671.70 673.50 L 2674.40 668.40 L 2677.40 663.40 L 2680.90 658.70 L 2683.10 656.40 L 2687.00 653.70 L 2688.90 653.00 L 2692.50 652.80 L 2694.90 653.40 L 2697.10 654.60 L 2699.10 656.00 L 2700.80 657.60 L 2704.00 661.70 L 2700.20 661.20 L 2697.50 661.40 L 2693.80 662.30 L 2689.90 664.60 L 2688.00 666.50 L 2686.20 668.90 L 2685.40 670.70 L 2685.00 672.60 L 2685.00 674.40 L 2685.60 677.30 L 2688.90 686.40 L 2689.70 689.60 L 2690.10 692.80 L 2689.90 694.80 L 2689.30 697.00 L 2688.20 699.20 L 2686.70 701.20 L 2684.50 703.30 L 2681.30 705.60 L 2675.20 708.80 L 2673.10 709.50 L 2669.30 709.60 L 2666.90 708.40 L 2665.30 706.30 L 2664.20 702.30 L 2664.30 697.30 Z" fill="#f69cb3" fill-rule="nonzero" id="path894-4-0" node-id="43" stroke="none" target-height="56.799988" target-width="39.80005" target-x="2664.2" target-y="652.8"></path><path d="M 2575.60 993.60 L 2664.20 904.90 L 2663.90 874.60 L 2671.70 880.30 L 2678.20 885.80 L 2683.60 890.80 L 2688.10 895.60 L 2691.50 899.90 L 2694.30 903.90 L 2696.60 907.90 L 2699.50 915.20 L 2700.40 919.10 L 2700.90 922.80 L 2700.60 930.20 L 2699.80 933.90 L 2637.80 1065.30 L 2575.60 993.60 Z" fill="#ffffff" fill-rule="nonzero" id="path881-5-7" node-id="44" stroke="none" target-height="190.70007" target-width="125.299805" target-x="2575.6" target-y="874.6"></path><path d="M 2529.20 950.40 L 2544.50 893.50 L 2536.30 895.70 L 2527.50 898.80 L 2518.80 902.50 L 2510.20 906.80 L 2504.60 910.00 L 2494.30 917.00 L 2489.60 920.90 L 2485.40 925.00 L 2481.80 929.10 L 2479.30 932.40 L 2475.60 939.20 L 2474.40 942.60 L 2473.60 946.20 L 2473.20 949.80 L 2473.40 953.50 L 2474.00 957.20 L 2476.40 964.30 L 2487.60 994.40 L 2513.80 1062.50 L 2575.60 993.60 L 2529.20 950.40 Z" fill="#ffffff" fill-rule="nonzero" id="path884-9-52" node-id="45" stroke="none" target-height="169" target-width="102.40015" target-x="2473.2" target-y="893.5"></path><path d="M 2335.90 1311.40 L 2319.00 1214.60 L 2228.90 1412.20 L 2335.90 1311.40 Z" fill="#3362c4" fill-rule="nonzero" id="path919-8-9" node-id="46" stroke="none" target-height="197.59998" target-width="107" target-x="2228.9" target-y="1214.6"></path><path d="M 2370.40 1747.30 L 2392.80 2948.50 L 2491.60 2948.50 L 2573.40 2169.70 L 2765.80 2948.50 L 2856.40 2948.50 L 2830.70 2714.70 L 2748.60 1773.80 L 2370.40 1747.30 Z" fill="#ff6853" fill-rule="nonzero" id="path16354-7-6" node-id="47" stroke="none" target-height="1201.2" target-width="486" target-x="2370.4" target-y="1747.3"></path><path d="M 2516.20 2714.70 L 2388.40 2714.70 L 2392.80 2948.50 L 2491.60 2948.50 L 2516.20 2714.70 Z" fill="#e0523c" fill-rule="nonzero" id="path935-0-3" node-id="48" stroke="none" target-height="233.80005" target-width="127.80005" target-x="2388.4" target-y="2714.7"></path><path d="M 2830.70 2714.70 L 2708.00 2714.70 L 2765.80 2948.50 L 2856.40 2948.50 L 2830.70 2714.70 Z" fill="#e0523c" fill-rule="nonzero" id="path933-5-9" node-id="49" stroke="none" target-height="233.80005" target-width="148.3999" target-x="2708" target-y="2714.7"></path><path d="M 2573.40 2169.70 L 2525.30 1990.30 L 2488.00 1990.30 L 2548.70 2407.60 L 2573.40 2169.70 Z" fill="#e0523c" fill-rule="nonzero" id="path925-6-9" node-id="50" stroke="none" target-height="417.30005" target-width="85.3999" target-x="2488" target-y="1990.3"></path><path d="M 2369.90 1719.80 L 2369.90 1747.30 L 2748.60 1773.80 L 2742.20 1719.80 L 2369.90 1719.80 Z" fill="#ffffff" fill-rule="nonzero" id="path927-2-2" node-id="51" stroke="none" target-height="54" target-width="378.7002" target-x="2369.9" target-y="1719.8"></path><path d="M 2392.80 2978.10 L 2488.50 2979.20 L 2483.50 3015.20 L 2420.60 3010.80 L 2395.40 3008.70 L 2391.40 3008.10 L 2392.80 2978.10 Z" fill="#ffffff" fill-rule="nonzero" id="path915-1-63" node-id="52" stroke="none" target-height="37.099854" target-width="97.1001" target-x="2391.4" target-y="2978.1"></path><path d="M 2232.50 3100.50 L 2493.00 3100.50 L 2483.50 3015.20 L 2452.40 3006.70 L 2448.00 3002.80 L 2443.20 2999.40 L 2437.90 2996.40 L 2432.40 2994.00 L 2426.60 2992.20 L 2420.60 2990.90 L 2411.40 2990.10 L 2406.70 2990.30 L 2401.90 2990.80 L 2397.30 2991.80 L 2392.60 2993.20 L 2388.00 2995.00 L 2383.30 2997.40 L 2379.00 3000.00 L 2374.70 3003.20 L 2370.50 3007.00 L 2366.30 3011.30 L 2356.20 3018.20 L 2345.40 3025.00 L 2332.60 3032.50 L 2325.80 3036.10 L 2319.00 3039.40 L 2312.20 3042.30 L 2305.80 3044.50 L 2297.80 3046.40 L 2276.60 3047.20 L 2263.90 3048.80 L 2254.70 3051.20 L 2247.30 3054.70 L 2244.20 3056.90 L 2241.40 3059.40 L 2239.00 3062.20 L 2237.00 3065.40 L 2235.40 3068.90 L 2234.00 3073.00 L 2233.00 3077.80 L 2232.10 3087.60 L 2232.50 3100.50 Z" fill="#3d3d3d" fill-rule="nonzero" id="path929-4-3" node-id="53" stroke="none" target-height="110.3999" target-width="260.8999" target-x="2232.1" target-y="2990.1"></path><path d="M 2776.30 3015.20 L 2765.80 2948.50 L 2856.40 2948.50 L 2868.60 3042.40 L 2776.30 3015.20 Z" fill="#f6c6c0" fill-rule="nonzero" id="path924-1-6" node-id="54" stroke="none" target-height="93.8999" target-width="102.80005" target-x="2765.8" target-y="2948.5"></path><path d="M 2860.60 2978.10 L 2770.60 2979.20 L 2776.30 3015.20 L 2839.10 3010.80 L 2864.40 3008.70 L 2868.40 3008.10 L 2866.40 2999.90 L 2860.60 2978.10 Z" fill="#ffffff" fill-rule="nonzero" id="path926-9-2" node-id="55" stroke="none" target-height="37.099854" target-width="97.799805" target-x="2770.6" target-y="2978.1"></path><path d="M 2959.70 3100.50 L 2772.60 3100.50 L 2776.30 3015.20 L 2807.30 3006.70 L 2811.70 3002.70 L 2816.30 2999.20 L 2821.10 2996.10 L 2826.10 2993.40 L 2831.20 2991.30 L 2840.20 2988.90 L 2844.10 2988.50 L 2847.90 2988.40 L 2855.40 2989.50 L 2859.10 2990.70 L 2866.10 2994.50 L 2869.30 2997.00 L 2872.40 3000.00 L 2875.40 3003.70 L 2878.30 3008.10 L 2883.20 3018.60 L 2888.50 3026.80 L 2892.60 3031.70 L 2896.90 3035.90 L 2901.20 3039.50 L 2905.80 3042.80 L 2915.10 3048.30 L 2935.60 3058.30 L 2941.60 3061.70 L 2948.70 3067.00 L 2951.70 3070.20 L 2953.70 3072.70 L 2955.40 3075.60 L 2956.90 3078.80 L 2958.20 3082.50 L 2959.00 3086.10 L 2959.60 3090.30 L 2959.70 3100.50 Z" fill="#3d3d3d" fill-rule="nonzero" id="path928-0-7" node-id="56" stroke="none" target-height="112.1001" target-width="187.09985" target-x="2772.6" target-y="2988.4"></path><path d="M 2059.70 1192.20 L 2058.60 1185.50 L 2056.00 1175.30 L 2054.60 1171.50 L 2052.60 1167.70 L 2050.60 1164.70 L 2048.60 1162.30 L 2046.50 1160.60 L 2044.10 1159.20 L 2041.70 1158.20 L 2039.20 1157.70 L 2036.70 1157.70 L 2033.30 1158.20 L 2029.70 1159.30 L 2026.10 1161.10 L 2022.70 1163.30 L 2019.30 1166.00 L 2015.90 1169.10 L 2010.00 1176.10 L 2004.90 1184.10 L 2001.30 1192.10 L 2000.00 1196.20 L 1999.30 1200.00 L 1999.00 1203.60 L 1975.90 1153.90 L 1973.20 1150.90 L 1970.20 1148.20 L 1966.70 1145.60 L 1960.80 1142.60 L 1953.70 1140.60 L 1950.00 1140.10 L 1945.90 1140.00 L 1941.40 1140.40 L 1936.30 1141.20 L 1930.70 1142.80 L 1925.10 1144.80 L 1919.60 1147.40 L 1914.30 1150.60 L 1909.20 1154.10 L 1904.20 1158.10 L 1899.40 1162.50 L 1894.70 1167.40 L 1886.20 1177.90 L 1882.30 1183.70 L 1878.60 1189.70 L 1874.20 1198.10 L 1870.20 1206.70 L 1866.80 1215.70 L 1863.90 1224.80 L 1861.70 1234.00 L 1860.10 1243.30 L 1859.30 1250.30 L 1858.90 1257.20 L 1858.90 1263.90 L 1859.30 1270.60 L 1860.20 1277.20 L 1861.50 1283.60 L 1863.20 1289.70 L 1865.40 1295.60 L 1867.50 1299.00 L 1876.30 1309.70 L 1896.50 1330.80 L 1926.90 1360.10 L 1952.10 1383.50 L 1953.70 1386.00 L 2036.30 1345.50 L 2037.30 1333.80 L 2043.10 1301.90 L 2052.50 1297.00 L 2059.30 1292.00 L 2062.30 1289.20 L 2064.80 1286.30 L 2066.90 1283.20 L 2068.50 1280.00 L 2070.90 1273.00 L 2071.60 1269.10 L 2072.00 1259.30 L 2071.70 1253.00 L 2070.80 1245.80 L 2069.00 1234.90 L 2066.30 1221.90 L 2059.70 1192.20 Z" fill="#f6cdc1" fill-rule="nonzero" id="path35509-3-6" node-id="57" stroke="none" target-height="246" target-width="213.09998" target-x="1858.9" target-y="1140"></path><path d="M 2481.00 1402.50 L 2759.50 1330.50 L 2739.00 1234.50 L 2481.00 1402.50 Z" fill="#3362c4" fill-rule="nonzero" id="path11379-41" node-id="58" stroke="none" target-height="168" target-width="278.5" target-x="2481" target-y="1234.5"></path><path d="M 2758.30 1524.20 L 2646.90 1540.20 L 2742.20 1719.80 L 2758.30 1524.20 Z" fill="#3362c4" fill-rule="nonzero" id="path11381-0" node-id="59" stroke="none" target-height="195.6001" target-width="111.40015" target-x="2646.9" target-y="1524.2"></path><path d="M 2284.20 1601.50 L 2280.90 1603.40 L 2277.40 1604.90 L 2273.50 1606.00 L 2269.30 1606.70 L 2263.60 1606.90 L 2257.40 1606.60 L 2250.60 1605.60 L 2243.90 1604.10 L 2229.30 1599.80 L 2218.10 1595.80 L 2206.50 1591.20 L 2171.80 1576.60 L 2150.10 1568.40 L 2140.40 1565.40 L 2133.90 1563.90 L 2128.10 1563.00 L 2123.00 1562.60 L 2117.80 1562.90 L 2112.00 1563.60 L 2105.50 1565.00 L 2095.70 1567.80 L 2073.80 1575.50 L 2027.20 1593.70 L 2015.90 1597.50 L 2001.20 1601.40 L 1994.40 1602.70 L 1987.60 1603.60 L 1981.40 1603.80 L 1975.70 1603.40 L 1971.50 1602.70 L 1967.70 1601.50 L 1964.10 1599.90 L 1960.90 1597.90 L 1958.00 1595.30 L 1955.50 1592.40 L 1953.20 1589.10 L 1951.30 1585.30 L 1949.30 1579.90 L 1947.70 1573.90 L 1946.60 1567.10 L 1945.90 1560.30 L 1945.50 1545.10 L 1945.80 1533.20 L 1946.60 1520.70 L 1949.80 1483.30 L 1950.90 1460.10 L 1950.80 1450.00 L 1950.20 1443.30 L 1949.30 1437.60 L 1948.00 1432.50 L 1946.20 1427.70 L 1943.70 1422.40 L 1940.30 1416.60 L 1934.70 1408.20 L 1920.50 1389.80 L 1896.60 1360.80 L 1888.90 1351.00 L 1877.40 1334.90 L 1870.20 1322.70 L 1867.20 1316.50 L 1865.10 1310.60 L 1863.70 1305.10 L 1863.10 1300.90 L 1863.10 1296.80 L 1863.50 1293.00 L 1864.40 1289.30 L 1865.90 1285.80 L 1867.90 1282.40 L 1870.40 1279.30 L 1873.40 1276.30 L 1877.90 1272.70 L 1883.10 1269.40 L 1889.20 1266.20 L 1902.40 1260.80 L 1921.20 1255.00 L 1969.90 1243.30 L 1992.30 1237.20 L 2001.90 1233.90 L 2008.10 1231.30 L 2013.30 1228.70 L 2017.70 1225.90 L 2021.70 1222.70 L 2026.00 1218.60 L 2030.40 1213.70 L 2036.70 1205.70 L 2049.90 1186.60 L 2070.00 1154.90 L 2076.90 1144.50 L 2083.90 1134.80 L 2093.40 1123.00 L 2098.10 1117.90 L 2103.10 1113.20 L 2108.00 1109.40 L 2112.80 1106.40 L 2116.70 1104.50 L 2120.50 1103.20 L 2124.30 1102.40 L 2128.10 1102.20 L 2131.90 1102.50 L 2135.70 1103.40 L 2139.40 1104.70 L 2143.30 1106.70 L 2148.00 1109.90 L 2152.80 1113.80 L 2157.70 1118.60 L 2162.30 1123.70 L 2171.60 1135.80 L 2178.30 1145.60 L 2204.40 1188.30 L 2217.10 1207.70 L 2223.20 1215.80 L 2227.60 1220.90 L 2231.70 1225.00 L 2235.70 1228.30 L 2240.00 1231.20 L 2245.20 1234.00 L 2251.30 1236.70 L 2260.80 1240.20 L 2283.10 1246.80 L 2319.50 1256.20 L 2331.50 1259.50 L 2350.20 1265.80 L 2363.30 1271.50 L 2369.30 1274.80 L 2374.40 1278.20 L 2378.80 1281.90 L 2381.80 1285.00 L 2384.20 1288.20 L 2386.10 1291.60 L 2387.50 1295.10 L 2388.40 1298.80 L 2388.70 1302.70 L 2388.60 1306.70 L 2387.90 1310.90 L 2386.40 1316.40 L 2384.10 1322.20 L 2381.00 1328.40 L 2377.60 1334.30 L 2369.00 1346.90 L 2353.80 1365.90 L 2329.20 1394.30 L 2314.60 1412.40 L 2308.80 1420.70 L 2305.40 1426.40 L 2302.70 1431.60 L 2300.80 1436.40 L 2299.40 1441.40 L 2298.30 1447.20 L 2297.60 1453.80 L 2297.20 1464.00 L 2297.90 1487.20 L 2300.20 1524.70 L 2300.70 1537.20 L 2300.80 1549.10 L 2300.00 1564.30 L 2299.20 1571.10 L 2297.90 1577.80 L 2296.20 1583.80 L 2294.10 1589.10 L 2292.10 1592.90 L 2289.70 1596.20 L 2287.10 1599.00 L 2284.20 1601.50 Z" fill="#a5a3ff" fill-rule="nonzero" id="path8967" node-id="60" stroke="none" target-height="504.70007" target-width="525.6" target-x="1863.1" target-y="1102.2"></path><path d="M 2203.90 1478.70 L 2199.80 1480.60 L 2197.40 1481.00 L 2191.10 1480.90 L 2187.10 1480.20 L 2176.30 1476.90 L 2149.00 1465.70 L 2142.90 1463.50 L 2138.80 1462.40 L 2132.20 1461.50 L 2125.60 1462.20 L 2121.50 1463.30 L 2115.40 1465.30 L 2087.90 1475.90 L 2076.90 1479.00 L 2073.00 1479.60 L 2066.70 1479.60 L 2064.20 1479.10 L 2060.20 1477.10 L 2057.10 1473.80 L 2055.90 1471.60 L 2054.10 1465.60 L 2053.60 1461.60 L 2053.40 1450.20 L 2055.60 1420.80 L 2055.70 1414.40 L 2055.60 1410.20 L 2054.40 1403.60 L 2051.60 1397.50 L 2049.40 1394.00 L 2045.60 1388.80 L 2027.00 1365.90 L 2023.10 1360.30 L 2018.90 1352.80 L 2016.90 1346.80 L 2016.80 1342.10 L 2017.30 1339.90 L 2018.20 1337.90 L 2019.50 1336.00 L 2021.20 1334.20 L 2026.40 1330.60 L 2030.00 1328.80 L 2034.20 1327.20 L 2040.70 1325.10 L 2069.40 1318.10 L 2075.60 1316.30 L 2079.50 1314.90 L 2082.80 1313.30 L 2085.40 1311.70 L 2090.30 1307.20 L 2093.00 1303.90 L 2096.80 1298.70 L 2112.80 1274.00 L 2119.90 1265.10 L 2122.70 1262.30 L 2127.80 1258.50 L 2130.10 1257.50 L 2134.50 1256.70 L 2138.90 1257.60 L 2141.20 1258.70 L 2146.20 1262.50 L 2149.00 1265.40 L 2155.80 1274.50 L 2171.30 1299.50 L 2175.00 1304.80 L 2177.60 1308.20 L 2182.40 1312.80 L 2188.20 1316.10 L 2192.10 1317.60 L 2198.20 1319.60 L 2226.70 1327.20 L 2233.20 1329.40 L 2237.40 1331.10 L 2244.00 1334.90 L 2247.70 1338.50 L 2249.00 1340.40 L 2249.90 1342.50 L 2250.30 1344.70 L 2250.40 1347.00 L 2250.10 1349.40 L 2247.90 1355.40 L 2243.60 1362.70 L 2239.50 1368.20 L 2220.50 1390.70 L 2216.60 1395.80 L 2214.20 1399.30 L 2211.30 1405.30 L 2210.00 1411.90 L 2209.70 1416.10 L 2209.80 1422.50 L 2211.30 1452.00 L 2210.90 1463.30 L 2210.20 1467.30 L 2208.30 1473.30 L 2207.10 1475.40 L 2203.90 1478.70 Z" fill="#f2f4ff" fill-rule="nonzero" id="path9492" node-id="61" stroke="none" target-height="224.30005" target-width="233.59985" target-x="2016.8" target-y="1256.7"></path><path d="M 2354.60 1358.70 L 2352.40 1364.40 L 2350.60 1367.80 L 2347.30 1372.60 L 2339.00 1382.50 L 2334.50 1387.20 L 2325.70 1395.30 L 2318.30 1400.90 L 2315.40 1402.50 L 2292.20 1405.90 L 2271.80 1408.40 L 2251.20 1410.50 L 2228.90 1412.20 L 2225.10 1413.50 L 2221.40 1415.30 L 2217.70 1417.50 L 2212.70 1421.80 L 2208.10 1427.60 L 2206.20 1430.90 L 2203.20 1438.90 L 2202.10 1443.90 L 2201.30 1449.70 L 2201.10 1455.60 L 2201.40 1461.70 L 2202.20 1467.90 L 2203.50 1473.90 L 2205.30 1480.00 L 2207.50 1486.20 L 2210.30 1492.30 L 2216.70 1504.20 L 2224.70 1515.80 L 2230.70 1523.10 L 2237.20 1530.10 L 2244.10 1536.70 L 2251.50 1542.80 L 2259.10 1548.40 L 2267.10 1553.50 L 2279.40 1559.90 L 2285.70 1562.40 L 2292.00 1564.60 L 2298.50 1566.30 L 2304.80 1567.60 L 2311.20 1568.30 L 2317.50 1568.60 L 2321.40 1567.90 L 2327.70 1566.20 L 2343.20 1560.70 L 2361.80 1553.30 L 2400.60 1536.50 L 2431.90 1522.20 L 2434.80 1521.70 L 2429.10 1429.90 L 2424.10 1427.50 L 2418.70 1424.40 L 2391.40 1406.80 L 2388.90 1404.90 L 2387.00 1402.90 L 2384.70 1398.40 L 2383.50 1393.30 L 2382.50 1381.00 L 2381.80 1377.00 L 2381.00 1374.40 L 2379.70 1371.80 L 2378.10 1369.40 L 2376.00 1367.20 L 2373.30 1365.10 L 2369.70 1363.00 L 2365.90 1361.50 L 2360.90 1360.00 L 2354.60 1358.70 Z" fill="#f6cdc1" fill-rule="nonzero" id="path35485-2-1" node-id="62" stroke="none" target-height="209.90002" target-width="233.69995" target-x="2201.1" target-y="1358.7"></path><path d="M 2433.60 1523.40 L 2391.40 1406.80 L 2430.80 1431.10 L 2436.50 1522.90 L 2433.60 1523.40 Z" fill="#f69cb3" fill-rule="nonzero" id="path35489-7-6" node-id="63" stroke="none" target-height="116.599976" target-width="45.100098" target-x="2391.4" target-y="1406.8"></path><path d="M 2438.00 1547.00 L 2429.50 1411.30 L 2481.00 1402.50 L 2488.00 1543.90 L 2438.00 1547.00 Z" fill="#ffffff" fill-rule="nonzero" id="path35487-9-07" node-id="64" stroke="none" target-height="144.5" target-width="58.5" target-x="2429.5" target-y="1402.5"></path><path d="M 1999.40 1209.80 L 1999.00 1203.60 L 1975.90 1153.90 L 1973.20 1150.90 L 1970.20 1148.20 L 1963.90 1143.90 L 1957.40 1141.40 L 1953.70 1140.60 L 1950.00 1140.10 L 1945.90 1140.00 L 1941.40 1140.40 L 1936.30 1141.20 L 1930.70 1142.80 L 1925.10 1144.80 L 1919.60 1147.40 L 1914.20 1150.60 L 1909.20 1154.10 L 1904.20 1158.10 L 1899.40 1162.50 L 1894.70 1167.40 L 1886.20 1177.90 L 1882.30 1183.70 L 1878.60 1189.70 L 1874.20 1198.10 L 1870.20 1206.70 L 1866.80 1215.70 L 1863.90 1224.80 L 1861.70 1234.00 L 1860.10 1243.30 L 1859.30 1250.30 L 1858.90 1263.90 L 1859.30 1270.60 L 1860.20 1277.20 L 1861.50 1283.60 L 1863.20 1289.70 L 1865.40 1295.60 L 1870.50 1298.80 L 1875.20 1301.30 L 1879.50 1303.00 L 1883.40 1304.10 L 1887.50 1304.80 L 1891.50 1305.00 L 1895.20 1304.70 L 1898.70 1304.00 L 1903.40 1302.50 L 1907.90 1300.40 L 1912.40 1297.60 L 1916.60 1294.50 L 1925.10 1287.00 L 1944.50 1268.20 L 1951.40 1262.20 L 1956.30 1258.50 L 1961.40 1255.20 L 1976.30 1246.80 L 1983.40 1241.30 L 1987.50 1237.30 L 1990.70 1233.40 L 1993.20 1229.70 L 1995.30 1225.70 L 1998.00 1218.70 L 1999.00 1213.70 L 1999.40 1209.80 Z" fill="#f6cdc1" fill-rule="nonzero" id="path35511-7-4" node-id="65" stroke="none" target-height="165" target-width="140.5" target-x="1858.9" target-y="1140"></path><path d="M 2117.10 2125.80 L 2109.10 2126.00 L 2093.50 2127.70 L 2078.60 2130.90 L 2069.50 2133.80 L 2060.70 2137.10 L 2052.20 2141.00 L 2044.00 2145.50 L 2036.10 2150.50 L 2028.60 2155.90 L 2021.50 2161.70 L 2014.70 2168.10 L 2008.40 2174.80 L 2002.50 2181.90 L 1997.10 2189.40 L 1992.10 2197.30 L 1987.70 2205.50 L 1983.80 2214.00 L 1980.40 2222.80 L 1977.60 2231.90 L 1974.30 2246.90 L 1973.30 2254.60 L 1972.70 2262.40 L 1972.40 2270.50 L 1972.40 3100.50 L 2440.40 3100.50 L 2440.40 2270.50 L 2440.20 2262.40 L 2439.60 2254.60 L 2438.50 2246.90 L 2437.10 2239.30 L 2435.30 2231.90 L 2432.50 2222.80 L 2429.10 2214.00 L 2425.20 2205.50 L 2420.70 2197.30 L 2415.80 2189.40 L 2410.40 2181.90 L 2404.50 2174.80 L 2398.20 2168.10 L 2391.40 2161.70 L 2384.30 2155.90 L 2376.80 2150.50 L 2368.90 2145.50 L 2360.70 2141.00 L 2352.20 2137.10 L 2343.40 2133.80 L 2334.30 2130.90 L 2319.40 2127.70 L 2311.70 2126.70 L 2295.80 2125.80 L 2117.10 2125.80 Z" fill="#b7bbff" fill-rule="nonzero" id="path8222" node-id="66" stroke="none" target-height="974.69995" target-width="467.99988" target-x="1972.4" target-y="2125.8"></path><path d="M 2818.00 1908.70 L 2810.00 1909.00 L 2802.10 1909.60 L 2794.40 1910.60 L 2786.90 1912.10 L 2779.50 1913.90 L 2770.30 1916.70 L 2761.50 1920.10 L 2753.10 1924.00 L 2744.90 1928.40 L 2737.00 1933.40 L 2729.50 1938.80 L 2722.40 1944.70 L 2715.60 1951.00 L 2709.30 1957.80 L 2703.40 1964.90 L 2698.00 1972.40 L 2693.00 1980.30 L 2688.60 1988.50 L 2684.70 1997.00 L 2681.30 2005.80 L 2678.50 2014.90 L 2676.60 2022.30 L 2675.20 2029.80 L 2674.20 2037.50 L 2673.30 2053.40 L 2673.30 3100.50 L 3141.30 3100.50 L 3141.30 2053.40 L 3141.10 2045.40 L 3140.50 2037.50 L 3139.40 2029.80 L 3138.00 2022.30 L 3136.20 2014.90 L 3133.30 2005.80 L 3130.00 1997.00 L 3126.10 1988.50 L 3121.60 1980.30 L 3116.60 1972.40 L 3111.20 1964.90 L 3105.40 1957.80 L 3099.00 1951.00 L 3092.30 1944.70 L 3085.20 1938.80 L 3077.70 1933.40 L 3069.80 1928.40 L 3061.60 1924.00 L 3053.10 1920.10 L 3044.30 1916.70 L 3035.20 1913.90 L 3027.80 1912.10 L 3012.60 1909.60 L 3004.70 1909.00 L 2996.60 1908.70 L 2818.00 1908.70 Z" fill="#a5a3ff" fill-rule="nonzero" id="path8224" node-id="67" stroke="none" target-height="1191.8" target-width="468" target-x="2673.3" target-y="1908.7"></path><path d="M 3462.60 1641.10 L 3454.60 1641.30 L 3446.70 1641.90 L 3439.00 1642.90 L 3431.40 1644.40 L 3424.10 1646.20 L 3414.90 1649.00 L 3406.10 1652.40 L 3397.70 1656.30 L 3389.50 1660.80 L 3381.60 1665.70 L 3374.10 1671.10 L 3367.00 1677.00 L 3360.20 1683.30 L 3353.90 1690.10 L 3348.00 1697.20 L 3342.60 1704.70 L 3337.60 1712.60 L 3333.20 1720.80 L 3329.30 1729.30 L 3325.90 1738.10 L 3323.10 1747.20 L 3321.20 1754.60 L 3319.80 1762.10 L 3318.80 1769.80 L 3317.90 1785.70 L 3317.90 3100.50 L 3785.90 3100.50 L 3785.90 1785.70 L 3785.70 1777.70 L 3785.00 1769.80 L 3784.00 1762.10 L 3782.60 1754.60 L 3780.80 1747.20 L 3777.90 1738.10 L 3774.60 1729.30 L 3770.70 1720.80 L 3766.20 1712.60 L 3761.20 1704.70 L 3755.80 1697.20 L 3750.00 1690.10 L 3743.60 1683.30 L 3736.90 1677.00 L 3729.80 1671.10 L 3722.30 1665.70 L 3714.40 1660.80 L 3706.20 1656.30 L 3697.70 1652.40 L 3688.90 1649.00 L 3679.80 1646.20 L 3672.40 1644.40 L 3657.10 1641.90 L 3649.30 1641.30 L 3641.20 1641.10 L 3462.60 1641.10 Z" fill="#a5a3ff" fill-rule="nonzero" id="path8234" node-id="68" stroke="none" target-height="1459.4" target-width="468" target-x="3317.9" target-y="1641.1"></path><path d="M 1024.40 2460.20 L 1021.10 2462.20 L 1017.60 2463.70 L 1013.70 2464.80 L 1009.50 2465.50 L 1003.80 2465.70 L 997.60 2465.30 L 990.80 2464.30 L 984.10 2462.90 L 969.50 2458.60 L 958.30 2454.60 L 912.00 2435.40 L 890.40 2427.10 L 880.60 2424.20 L 874.20 2422.70 L 868.40 2421.70 L 863.20 2421.40 L 858.00 2421.60 L 852.20 2422.40 L 845.70 2423.80 L 835.90 2426.50 L 814.00 2434.30 L 779.10 2448.10 L 767.40 2452.50 L 756.10 2456.20 L 741.40 2460.20 L 734.70 2461.50 L 727.80 2462.30 L 721.60 2462.60 L 715.90 2462.20 L 711.70 2461.40 L 707.90 2460.30 L 704.40 2458.70 L 701.10 2456.60 L 698.30 2454.10 L 695.70 2451.20 L 693.50 2447.90 L 691.50 2444.00 L 689.50 2438.70 L 688.00 2432.70 L 686.80 2425.90 L 686.10 2419.10 L 685.70 2403.90 L 686.10 2392.00 L 686.80 2379.50 L 690.00 2342.10 L 691.20 2318.90 L 691.00 2308.70 L 690.40 2302.10 L 689.50 2296.30 L 688.20 2291.30 L 686.40 2286.40 L 683.90 2281.10 L 680.50 2275.40 L 674.90 2266.90 L 660.80 2248.50 L 636.80 2219.60 L 629.10 2209.80 L 617.60 2193.70 L 610.40 2181.40 L 607.50 2175.20 L 605.30 2169.40 L 603.90 2163.90 L 603.30 2159.60 L 603.30 2155.60 L 603.70 2151.70 L 604.70 2148.00 L 606.10 2144.50 L 608.10 2141.20 L 610.60 2138.00 L 613.70 2135.00 L 618.10 2131.50 L 623.30 2128.10 L 629.40 2124.90 L 642.60 2119.50 L 661.50 2113.70 L 673.60 2110.60 L 710.20 2102.10 L 732.60 2096.00 L 742.20 2092.70 L 748.30 2090.10 L 753.50 2087.40 L 757.90 2084.70 L 762.00 2081.40 L 766.20 2077.40 L 770.70 2072.50 L 777.00 2064.50 L 790.10 2045.40 L 810.20 2013.60 L 817.20 2003.20 L 824.10 1993.60 L 833.60 1981.70 L 838.30 1976.70 L 843.30 1972.00 L 848.20 1968.20 L 853.00 1965.10 L 856.90 1963.30 L 860.70 1962.00 L 864.50 1961.20 L 868.30 1960.90 L 872.10 1961.30 L 875.90 1962.10 L 879.70 1963.50 L 883.50 1965.50 L 888.20 1968.60 L 893.00 1972.60 L 897.90 1977.40 L 902.50 1982.50 L 911.80 1994.50 L 918.50 2004.40 L 925.20 2014.90 L 944.60 2047.10 L 957.30 2066.50 L 963.50 2074.60 L 967.80 2079.60 L 971.90 2083.80 L 975.90 2087.10 L 980.30 2090.00 L 985.40 2092.80 L 991.50 2095.50 L 1001.00 2099.00 L 1023.30 2105.60 L 1071.70 2118.30 L 1090.50 2124.50 L 1103.50 2130.20 L 1109.50 2133.50 L 1114.60 2137.00 L 1119.00 2140.70 L 1122.00 2143.70 L 1124.40 2147.00 L 1126.30 2150.30 L 1127.70 2153.90 L 1128.60 2157.60 L 1128.90 2161.40 L 1128.80 2165.50 L 1128.10 2169.70 L 1126.60 2175.20 L 1124.30 2181.00 L 1121.30 2187.10 L 1117.80 2193.10 L 1109.20 2205.60 L 1094.00 2224.60 L 1069.40 2253.10 L 1054.80 2271.10 L 1049.00 2279.50 L 1045.60 2285.20 L 1042.90 2290.40 L 1041.00 2295.20 L 1039.60 2300.20 L 1038.60 2306.00 L 1037.90 2312.60 L 1037.40 2322.70 L 1038.10 2345.90 L 1040.40 2383.40 L 1040.90 2395.90 L 1041.00 2407.80 L 1040.20 2423.00 L 1039.40 2429.80 L 1038.10 2436.60 L 1036.40 2442.60 L 1034.30 2447.80 L 1032.30 2451.60 L 1030.00 2454.90 L 1027.30 2457.80 L 1024.40 2460.20 Z" fill="#b7bbff" fill-rule="nonzero" id="path8238" node-id="69" stroke="none" target-height="504.79993" target-width="525.60004" target-x="603.3" target-y="1960.9"></path><path d="M 1706.30 1767.00 L 1703.00 1769.00 L 1699.50 1770.50 L 1695.60 1771.60 L 1691.40 1772.30 L 1685.70 1772.50 L 1679.50 1772.20 L 1672.70 1771.10 L 1666.00 1769.70 L 1651.40 1765.40 L 1640.20 1761.40 L 1628.60 1756.80 L 1593.90 1742.20 L 1572.30 1733.90 L 1562.50 1731.00 L 1556.10 1729.50 L 1550.30 1728.60 L 1545.10 1728.20 L 1539.90 1728.40 L 1534.10 1729.20 L 1527.60 1730.60 L 1517.80 1733.30 L 1495.90 1741.10 L 1461.00 1754.90 L 1449.30 1759.30 L 1438.00 1763.00 L 1423.30 1767.00 L 1416.60 1768.30 L 1409.70 1769.10 L 1403.50 1769.40 L 1397.80 1769.00 L 1393.60 1768.30 L 1389.80 1767.10 L 1386.30 1765.50 L 1383.00 1763.40 L 1380.20 1760.90 L 1377.60 1758.00 L 1375.40 1754.70 L 1373.40 1750.80 L 1371.40 1745.50 L 1369.90 1739.50 L 1368.70 1732.70 L 1368.00 1725.90 L 1367.60 1710.70 L 1368.00 1698.80 L 1368.70 1686.30 L 1371.90 1648.90 L 1373.10 1625.70 L 1372.90 1615.50 L 1372.30 1608.90 L 1371.40 1603.10 L 1370.10 1598.10 L 1368.30 1593.20 L 1365.80 1587.90 L 1362.40 1582.20 L 1356.80 1573.70 L 1342.70 1555.30 L 1318.70 1526.40 L 1311.00 1516.60 L 1299.50 1500.50 L 1292.30 1488.20 L 1289.40 1482.00 L 1287.20 1476.20 L 1285.80 1470.70 L 1285.20 1466.40 L 1285.20 1462.40 L 1285.60 1458.60 L 1286.60 1454.90 L 1288.10 1451.30 L 1290.00 1448.00 L 1292.50 1444.80 L 1295.60 1441.80 L 1300.00 1438.30 L 1305.30 1434.90 L 1311.30 1431.80 L 1324.50 1426.40 L 1343.40 1420.50 L 1355.50 1417.40 L 1392.10 1408.90 L 1414.50 1402.80 L 1424.10 1399.50 L 1430.20 1396.90 L 1435.40 1394.20 L 1439.80 1391.50 L 1443.90 1388.30 L 1448.10 1384.20 L 1452.60 1379.30 L 1458.90 1371.30 L 1472.00 1352.20 L 1492.10 1320.40 L 1499.10 1310.00 L 1506.00 1300.40 L 1515.50 1288.50 L 1520.20 1283.50 L 1525.20 1278.80 L 1530.10 1275.00 L 1535.00 1271.90 L 1538.80 1270.10 L 1542.60 1268.80 L 1546.40 1268.00 L 1550.20 1267.70 L 1554.00 1268.10 L 1557.80 1268.90 L 1561.60 1270.30 L 1565.40 1272.30 L 1570.10 1275.40 L 1574.90 1279.40 L 1579.80 1284.20 L 1584.40 1289.30 L 1593.70 1301.30 L 1600.40 1311.20 L 1607.10 1321.70 L 1626.50 1353.90 L 1639.20 1373.30 L 1645.40 1381.40 L 1649.70 1386.50 L 1653.80 1390.60 L 1657.80 1393.90 L 1662.20 1396.80 L 1667.30 1399.60 L 1673.40 1402.30 L 1682.90 1405.80 L 1705.20 1412.40 L 1741.60 1421.70 L 1753.60 1425.10 L 1772.40 1431.30 L 1785.40 1437.00 L 1791.40 1440.30 L 1796.50 1443.80 L 1800.90 1447.50 L 1803.90 1450.50 L 1806.30 1453.80 L 1808.20 1457.10 L 1809.60 1460.70 L 1810.50 1464.40 L 1810.80 1468.20 L 1810.70 1472.30 L 1810.00 1476.50 L 1808.50 1482.00 L 1806.20 1487.80 L 1803.20 1493.90 L 1799.70 1499.90 L 1791.10 1512.40 L 1775.90 1531.50 L 1751.30 1559.90 L 1736.70 1578.00 L 1730.90 1586.30 L 1727.50 1592.00 L 1724.80 1597.20 L 1722.90 1602.00 L 1721.50 1607.00 L 1720.50 1612.80 L 1719.80 1619.40 L 1719.30 1629.60 L 1720.00 1652.70 L 1722.80 1702.70 L 1722.90 1714.60 L 1722.20 1729.80 L 1721.30 1736.60 L 1720.00 1743.40 L 1718.30 1749.40 L 1716.20 1754.70 L 1714.20 1758.40 L 1711.90 1761.70 L 1709.30 1764.60 L 1706.30 1767.00 Z" fill="#b7bbff" fill-rule="nonzero" id="path8240" node-id="70" stroke="none" target-height="504.80005" target-width="525.6001" target-x="1285.2" target-y="1267.7"></path><path d="M 3065.60 1646.80 L 3062.40 1648.80 L 3058.80 1650.30 L 3054.90 1651.40 L 3050.70 1652.00 L 3045.00 1652.30 L 3038.80 1651.90 L 3032.00 1650.90 L 3025.30 1649.50 L 3010.70 1645.20 L 2999.50 1641.20 L 2987.90 1636.60 L 2953.30 1622.00 L 2931.60 1613.70 L 2921.80 1610.80 L 2915.40 1609.20 L 2909.60 1608.30 L 2904.40 1608.00 L 2899.20 1608.20 L 2893.40 1609.00 L 2886.90 1610.40 L 2877.10 1613.10 L 2855.30 1620.90 L 2820.30 1634.70 L 2808.60 1639.00 L 2797.30 1642.80 L 2782.60 1646.80 L 2775.90 1648.10 L 2769.10 1648.90 L 2762.80 1649.10 L 2757.20 1648.80 L 2752.90 1648.00 L 2749.10 1646.80 L 2745.60 1645.20 L 2742.30 1643.20 L 2739.50 1640.70 L 2736.90 1637.80 L 2734.70 1634.40 L 2732.70 1630.60 L 2730.80 1625.30 L 2729.20 1619.30 L 2728.00 1612.50 L 2727.30 1605.70 L 2726.90 1590.40 L 2727.30 1578.60 L 2728.10 1566.10 L 2731.20 1528.60 L 2732.40 1505.50 L 2732.20 1495.30 L 2731.60 1488.70 L 2730.70 1482.90 L 2729.40 1477.90 L 2727.60 1473.00 L 2725.10 1467.70 L 2721.80 1462.00 L 2716.10 1453.50 L 2702.00 1435.10 L 2678.10 1406.10 L 2670.30 1396.30 L 2658.80 1380.30 L 2651.60 1368.00 L 2648.70 1361.80 L 2646.60 1356.00 L 2645.10 1350.40 L 2644.60 1346.20 L 2644.50 1342.20 L 2644.90 1338.30 L 2645.90 1334.60 L 2647.40 1331.10 L 2649.30 1327.80 L 2651.80 1324.60 L 2654.90 1321.60 L 2659.30 1318.10 L 2664.60 1314.70 L 2670.70 1311.50 L 2683.80 1306.10 L 2702.70 1300.30 L 2714.80 1297.20 L 2751.40 1288.70 L 2773.80 1282.60 L 2783.40 1279.30 L 2789.50 1276.70 L 2794.70 1274.00 L 2799.10 1271.30 L 2803.20 1268.00 L 2807.40 1264.00 L 2811.90 1259.00 L 2818.20 1251.10 L 2831.30 1231.90 L 2851.50 1200.20 L 2858.40 1189.80 L 2865.30 1180.10 L 2874.90 1168.30 L 2879.50 1163.30 L 2884.60 1158.60 L 2889.50 1154.80 L 2894.30 1151.70 L 2898.10 1149.80 L 2901.90 1148.50 L 2905.70 1147.80 L 2909.50 1147.50 L 2913.30 1147.90 L 2917.10 1148.70 L 2920.90 1150.10 L 2924.70 1152.10 L 2929.40 1155.20 L 2934.30 1159.10 L 2939.20 1163.90 L 2943.70 1169.10 L 2953.00 1181.10 L 2959.70 1190.90 L 2985.90 1233.70 L 2998.50 1253.10 L 3004.70 1261.20 L 3009.00 1266.20 L 3013.20 1270.40 L 3017.10 1273.70 L 3021.50 1276.50 L 3026.60 1279.30 L 3032.70 1282.00 L 3042.20 1285.60 L 3064.50 1292.10 L 3100.90 1301.50 L 3112.90 1304.90 L 3131.70 1311.10 L 3144.70 1316.80 L 3150.70 1320.10 L 3155.90 1323.60 L 3160.20 1327.20 L 3163.20 1330.30 L 3165.60 1333.50 L 3167.50 1336.90 L 3169.00 1340.40 L 3169.80 1344.20 L 3170.20 1348.00 L 3170.00 1352.00 L 3169.30 1356.30 L 3167.80 1361.80 L 3165.50 1367.60 L 3162.50 1373.70 L 3159.00 1379.60 L 3150.40 1392.20 L 3135.20 1411.20 L 3110.60 1439.70 L 3096.10 1457.70 L 3090.30 1466.10 L 3086.80 1471.70 L 3084.10 1477.00 L 3082.20 1481.80 L 3080.80 1486.80 L 3079.80 1492.60 L 3079.10 1499.20 L 3078.70 1509.30 L 3079.30 1532.50 L 3082.10 1582.50 L 3082.20 1594.40 L 3082.00 1602.30 L 3081.50 1609.60 L 3080.60 1616.40 L 3079.30 1623.20 L 3077.60 1629.10 L 3075.50 1634.40 L 3073.50 1638.20 L 3071.20 1641.50 L 3068.60 1644.40 L 3065.60 1646.80 Z" fill="#a5a3ff" fill-rule="nonzero" id="path8244" node-id="71" stroke="none" target-height="504.80005" target-width="525.69995" target-x="2644.5" target-y="1147.5"></path><path d="M 3710.20 1406.40 L 3707.00 1408.30 L 3703.40 1409.80 L 3699.50 1410.90 L 3695.30 1411.60 L 3689.60 1411.80 L 3683.40 1411.50 L 3676.60 1410.50 L 3669.90 1409.00 L 3655.30 1404.70 L 3644.10 1400.70 L 3597.80 1381.50 L 3586.90 1377.20 L 3576.20 1373.30 L 3566.40 1370.30 L 3560.00 1368.80 L 3554.20 1367.90 L 3549.00 1367.50 L 3543.80 1367.80 L 3538.00 1368.50 L 3531.50 1369.90 L 3521.70 1372.70 L 3499.90 1380.40 L 3464.90 1394.20 L 3441.90 1402.40 L 3427.20 1406.30 L 3420.50 1407.60 L 3413.70 1408.50 L 3407.40 1408.70 L 3401.80 1408.30 L 3397.50 1407.60 L 3393.70 1406.40 L 3390.20 1404.80 L 3386.90 1402.80 L 3384.10 1400.20 L 3381.50 1397.30 L 3379.30 1394.00 L 3377.30 1390.20 L 3375.40 1384.80 L 3373.80 1378.80 L 3372.60 1372.10 L 3371.60 1357.90 L 3371.90 1338.10 L 3375.80 1288.20 L 3376.60 1276.50 L 3377.00 1265.00 L 3376.80 1254.90 L 3376.20 1248.20 L 3375.30 1242.50 L 3374.00 1237.40 L 3372.20 1232.60 L 3369.70 1227.30 L 3366.40 1221.50 L 3360.70 1213.10 L 3346.60 1194.70 L 3314.90 1155.90 L 3307.80 1146.30 L 3299.50 1133.60 L 3296.20 1127.60 L 3293.30 1121.40 L 3291.20 1115.50 L 3289.70 1110.00 L 3289.20 1105.80 L 3289.10 1101.70 L 3289.50 1097.90 L 3290.50 1094.20 L 3292.00 1090.70 L 3293.90 1087.30 L 3296.40 1084.20 L 3299.50 1081.20 L 3303.90 1077.60 L 3309.20 1074.30 L 3315.20 1071.10 L 3321.50 1068.30 L 3335.90 1063.20 L 3347.30 1059.90 L 3359.40 1056.80 L 3396.00 1048.20 L 3418.40 1042.10 L 3428.00 1038.80 L 3434.10 1036.30 L 3439.30 1033.60 L 3443.70 1030.80 L 3447.80 1027.60 L 3452.00 1023.50 L 3456.50 1018.60 L 3462.80 1010.60 L 3475.90 991.50 L 3496.10 959.80 L 3503.00 949.40 L 3509.90 939.70 L 3519.40 927.90 L 3524.10 922.80 L 3529.10 918.10 L 3534.00 914.30 L 3538.90 911.30 L 3542.70 909.40 L 3546.50 908.10 L 3550.30 907.30 L 3554.10 907.10 L 3557.90 907.40 L 3561.70 908.30 L 3565.50 909.70 L 3569.30 911.60 L 3574.00 914.80 L 3578.80 918.70 L 3583.70 923.50 L 3588.30 928.60 L 3597.60 940.70 L 3604.30 950.50 L 3611.00 961.10 L 3630.50 993.20 L 3643.10 1012.60 L 3649.30 1020.70 L 3653.60 1025.80 L 3657.80 1029.90 L 3661.70 1033.20 L 3666.10 1036.10 L 3671.20 1038.90 L 3677.30 1041.60 L 3686.80 1045.10 L 3709.10 1051.70 L 3745.50 1061.10 L 3757.50 1064.40 L 3768.90 1068.00 L 3783.10 1073.50 L 3789.30 1076.40 L 3795.30 1079.70 L 3800.50 1083.20 L 3804.80 1086.80 L 3807.80 1089.90 L 3810.20 1093.10 L 3812.10 1096.50 L 3813.60 1100.00 L 3814.40 1103.70 L 3814.80 1107.60 L 3814.60 1111.60 L 3813.90 1115.80 L 3812.40 1121.30 L 3810.10 1127.10 L 3807.10 1133.30 L 3803.60 1139.20 L 3799.60 1145.40 L 3795.00 1151.80 L 3787.80 1161.20 L 3755.20 1199.20 L 3740.70 1217.30 L 3734.80 1225.60 L 3731.40 1231.30 L 3728.70 1236.50 L 3726.80 1241.30 L 3725.40 1246.30 L 3724.40 1252.10 L 3723.70 1258.70 L 3723.30 1268.90 L 3723.90 1292.10 L 3726.20 1329.60 L 3726.70 1342.10 L 3726.80 1354.00 L 3726.10 1369.20 L 3725.20 1376.00 L 3723.90 1382.70 L 3722.20 1388.70 L 3720.10 1394.00 L 3718.10 1397.80 L 3715.80 1401.10 L 3710.20 1406.40 Z" fill="#a5a3ff" fill-rule="nonzero" id="path8246" node-id="72" stroke="none" target-height="504.70007" target-width="525.69995" target-x="3289.1" target-y="907.1"></path><path d="M 861.90 3100.50 L 3315.60 2466.20 L 3315.60 2270.80 L 3736.90 2462.80 L 3315.00 2882.70 L 3315.60 2662.00 L 2493.00 3100.50 L 861.90 3100.50 Z" fill="#f2f4ff" fill-rule="nonzero" id="path9001" node-id="73" stroke="none" target-height="829.69995" target-width="2875" target-x="861.9" target-y="2270.8"></path><path d="M 1632.60 1379.00 L 1632.90 1374.20 L 1650.80 1335.90 L 1655.10 1331.50 L 1660.80 1327.80 L 1664.10 1326.50 L 1667.90 1325.60 L 1671.70 1325.20 L 1676.20 1325.30 L 1681.30 1326.10 L 1689.90 1328.90 L 1694.10 1330.90 L 1698.30 1333.30 L 1703.50 1337.00 L 1708.50 1341.30 L 1713.30 1346.30 L 1717.80 1351.60 L 1721.90 1357.30 L 1725.70 1363.50 L 1729.20 1369.90 L 1732.20 1376.60 L 1734.90 1383.50 L 1737.10 1390.60 L 1738.80 1397.70 L 1740.10 1404.80 L 1740.80 1412.00 L 1741.00 1419.00 L 1740.60 1425.80 L 1740.00 1431.00 L 1738.90 1435.90 L 1735.90 1445.20 L 1732.00 1447.60 L 1725.10 1450.80 L 1722.10 1451.70 L 1715.80 1452.40 L 1710.20 1451.60 L 1706.60 1450.40 L 1703.10 1448.80 L 1699.70 1446.70 L 1694.80 1442.90 L 1689.90 1438.50 L 1675.00 1424.00 L 1669.60 1419.40 L 1661.90 1414.00 L 1652.60 1408.90 L 1648.40 1406.10 L 1645.00 1403.30 L 1641.80 1400.20 L 1639.30 1397.20 L 1635.80 1391.20 L 1633.70 1385.80 L 1632.60 1379.00 Z" fill="#f6cdc1" fill-rule="nonzero" id="path5738-8" node-id="74" stroke="none" target-height="127.20007" target-width="108.400024" target-x="1632.6" target-y="1325.2"></path><path d="M 960.50 1460.60 L 959.60 1469.60 L 959.40 1478.40 L 959.70 1487.00 L 960.50 1495.40 L 962.00 1503.60 L 964.00 1511.70 L 966.50 1519.80 L 969.60 1527.60 L 973.10 1535.40 L 977.20 1543.10 L 981.70 1550.40 L 986.60 1557.70 L 992.10 1564.80 L 997.90 1571.90 L 1004.30 1578.90 L 1012.60 1587.10 L 1021.60 1595.20 L 1031.10 1603.20 L 1041.40 1610.90 L 1051.90 1618.30 L 1062.90 1625.40 L 1074.40 1632.30 L 1086.50 1639.10 L 1111.40 1651.60 L 1137.80 1663.20 L 1155.90 1670.30 L 1174.40 1677.00 L 1193.30 1683.20 L 1212.40 1688.90 L 1231.70 1694.20 L 1251.10 1698.90 L 1270.60 1703.20 L 1290.00 1707.00 L 1309.30 1710.30 L 1346.00 1737.40 L 1358.60 1746.10 L 1369.20 1752.90 L 1376.20 1756.30 L 1394.70 1762.50 L 1406.90 1765.50 L 1415.70 1766.60 L 1420.40 1766.70 L 1429.90 1765.80 L 1434.90 1764.70 L 1439.80 1761.30 L 1448.30 1754.00 L 1452.10 1750.10 L 1456.70 1744.50 L 1460.80 1738.80 L 1464.30 1732.90 L 1467.40 1726.80 L 1470.10 1720.70 L 1474.00 1708.60 L 1476.30 1697.30 L 1477.30 1686.80 L 1476.80 1678.00 L 1475.30 1671.80 L 1474.40 1669.80 L 1472.40 1667.60 L 1470.10 1667.00 L 1468.90 1667.40 L 1465.60 1670.10 L 1458.90 1670.10 L 1452.10 1669.60 L 1445.00 1668.60 L 1431.10 1665.50 L 1414.20 1660.10 L 1405.00 1656.50 L 1389.10 1649.40 L 1374.20 1641.70 L 1374.80 1623.60 L 1374.30 1614.90 L 1373.00 1608.20 L 1372.30 1606.60 L 1371.50 1605.80 L 1370.60 1605.50 L 1363.40 1606.40 L 1359.70 1607.50 L 1354.20 1609.60 L 1348.80 1612.30 L 1343.60 1615.30 L 1334.20 1621.80 L 1322.00 1631.90 L 1318.20 1633.20 L 1308.70 1630.20 L 1299.70 1626.80 L 1282.90 1619.30 L 1272.10 1613.60 L 1261.70 1607.60 L 1251.80 1601.10 L 1242.10 1594.30 L 1223.20 1579.80 L 1166.40 1531.90 L 1145.80 1515.70 L 1123.40 1499.70 L 1111.40 1492.00 L 1098.60 1484.30 L 1052.40 1476.80 L 960.50 1460.60 Z" fill="#f6c6c0" fill-rule="nonzero" id="path4286-4-2-8-84" node-id="75" stroke="none" target-height="306.09998" target-width="517.9" target-x="959.4" target-y="1460.6"></path><path d="M 1098.60 1484.30 L 1116.40 1448.70 L 933.30 1414.20 L 951.30 1491.20 L 1098.60 1484.30 Z" fill="#ffffff" fill-rule="nonzero" id="path4288-5-8-9-6" node-id="76" stroke="none" target-height="77" target-width="183.10004" target-x="933.3" target-y="1414.2"></path><path d="M 1617.90 1643.30 L 1613.80 1645.20 L 1611.40 1645.60 L 1608.60 1645.80 L 1605.00 1645.50 L 1601.10 1644.80 L 1590.20 1641.40 L 1562.90 1630.30 L 1556.90 1628.10 L 1552.80 1627.00 L 1546.20 1626.00 L 1539.60 1626.80 L 1535.50 1627.90 L 1529.40 1629.90 L 1501.90 1640.50 L 1490.90 1643.50 L 1486.90 1644.20 L 1480.60 1644.20 L 1478.20 1643.70 L 1476.10 1642.90 L 1474.10 1641.70 L 1471.10 1638.40 L 1469.90 1636.20 L 1468.10 1630.20 L 1467.60 1626.20 L 1467.40 1614.80 L 1469.50 1585.40 L 1469.70 1579.00 L 1469.60 1574.80 L 1468.40 1568.20 L 1465.60 1562.10 L 1463.30 1558.60 L 1459.50 1553.40 L 1441.00 1530.50 L 1437.00 1524.90 L 1432.90 1517.40 L 1431.60 1514.10 L 1430.90 1511.40 L 1430.70 1506.70 L 1431.20 1504.50 L 1432.20 1502.50 L 1435.20 1498.80 L 1440.40 1495.20 L 1448.20 1491.80 L 1454.70 1489.70 L 1483.40 1482.70 L 1489.50 1480.90 L 1493.50 1479.40 L 1499.40 1476.30 L 1504.30 1471.80 L 1507.00 1468.50 L 1510.70 1463.30 L 1526.80 1438.60 L 1533.80 1429.70 L 1536.70 1426.80 L 1541.80 1423.10 L 1544.00 1422.10 L 1546.30 1421.50 L 1548.50 1421.30 L 1550.70 1421.60 L 1552.90 1422.20 L 1555.10 1423.20 L 1560.10 1427.10 L 1562.90 1430.00 L 1569.80 1439.10 L 1585.30 1464.10 L 1588.90 1469.40 L 1591.50 1472.80 L 1596.30 1477.40 L 1602.20 1480.70 L 1606.10 1482.20 L 1612.20 1484.20 L 1640.70 1491.80 L 1647.20 1494.00 L 1651.30 1495.70 L 1658.00 1499.50 L 1661.70 1503.10 L 1663.80 1507.10 L 1664.30 1509.30 L 1664.00 1514.00 L 1661.90 1520.00 L 1657.60 1527.30 L 1653.50 1532.80 L 1634.50 1555.30 L 1630.60 1560.40 L 1628.20 1563.90 L 1625.30 1569.90 L 1624.00 1576.50 L 1623.70 1580.70 L 1623.70 1587.10 L 1625.30 1616.60 L 1624.80 1627.90 L 1624.20 1631.90 L 1622.30 1637.90 L 1621.00 1640.00 L 1619.60 1641.80 L 1617.90 1643.30 Z" fill="#f2f4ff" fill-rule="nonzero" id="path9490" node-id="77" stroke="none" target-height="224.5" target-width="233.6001" target-x="1430.7" target-y="1421.3"></path><path d="M 930.60 2328.80 L 926.50 2330.70 L 924.00 2331.10 L 917.70 2331.00 L 913.80 2330.30 L 902.90 2327.00 L 875.60 2315.80 L 869.60 2313.60 L 865.50 2312.50 L 858.90 2311.60 L 852.30 2312.30 L 848.20 2313.40 L 842.10 2315.40 L 814.50 2326.00 L 803.60 2329.10 L 799.60 2329.70 L 793.30 2329.70 L 790.90 2329.20 L 786.80 2327.20 L 783.80 2323.90 L 782.60 2321.70 L 780.80 2315.70 L 780.20 2311.70 L 780.00 2300.30 L 782.20 2270.90 L 782.40 2264.50 L 782.20 2260.30 L 781.10 2253.70 L 778.30 2247.60 L 776.00 2244.10 L 772.20 2238.90 L 753.70 2216.00 L 749.70 2210.40 L 745.60 2202.90 L 743.60 2196.90 L 743.40 2192.20 L 743.90 2190.00 L 744.90 2188.00 L 746.20 2186.10 L 747.80 2184.30 L 753.10 2180.70 L 760.90 2177.30 L 767.40 2175.20 L 796.00 2168.20 L 802.20 2166.40 L 806.20 2165.00 L 812.10 2161.80 L 817.00 2157.30 L 819.70 2154.00 L 823.40 2148.80 L 839.50 2124.10 L 846.50 2115.20 L 849.40 2112.30 L 854.50 2108.60 L 856.70 2107.60 L 858.90 2107.00 L 861.20 2106.80 L 865.60 2107.70 L 867.80 2108.80 L 872.80 2112.60 L 875.60 2115.50 L 882.50 2124.60 L 898.00 2149.60 L 901.60 2154.90 L 904.20 2158.30 L 909.00 2162.90 L 914.80 2166.20 L 918.80 2167.70 L 924.90 2169.70 L 953.40 2177.30 L 959.90 2179.50 L 964.00 2181.20 L 970.60 2185.00 L 974.40 2188.60 L 976.50 2192.60 L 977.00 2194.80 L 976.70 2199.50 L 976.00 2202.10 L 974.60 2205.50 L 970.30 2212.80 L 966.20 2218.30 L 947.20 2240.80 L 943.20 2245.90 L 940.90 2249.40 L 938.00 2255.40 L 936.70 2262.00 L 936.40 2266.20 L 936.40 2272.60 L 938.00 2302.10 L 937.50 2313.40 L 936.90 2317.40 L 934.90 2323.40 L 933.70 2325.50 L 930.60 2328.80 Z" fill="#f2f4ff" fill-rule="nonzero" id="path9524" node-id="78" stroke="none" target-height="224.30005" target-width="233.59998" target-x="743.4" target-y="2106.8"></path><path d="M 2974.30 1524.90 L 2972.40 1526.00 L 2970.20 1526.70 L 2967.80 1527.20 L 2961.50 1527.00 L 2957.50 1526.30 L 2946.70 1523.00 L 2919.40 1511.80 L 2913.30 1509.70 L 2909.20 1508.50 L 2902.60 1507.60 L 2896.00 1508.40 L 2891.90 1509.50 L 2885.80 1511.50 L 2858.30 1522.00 L 2847.40 1525.10 L 2843.40 1525.70 L 2839.80 1525.90 L 2837.10 1525.70 L 2834.70 1525.20 L 2830.60 1523.30 L 2827.50 1519.90 L 2826.30 1517.80 L 2824.60 1511.70 L 2824.00 1507.70 L 2823.80 1496.40 L 2826.00 1467.00 L 2826.10 1460.50 L 2826.00 1456.30 L 2824.80 1449.70 L 2822.00 1443.70 L 2819.80 1440.10 L 2816.00 1434.90 L 2797.40 1412.00 L 2793.50 1406.40 L 2789.30 1399.00 L 2787.30 1393.00 L 2787.20 1388.20 L 2787.70 1386.10 L 2788.60 1384.00 L 2789.90 1382.10 L 2791.60 1380.30 L 2796.80 1376.80 L 2804.60 1373.40 L 2811.20 1371.30 L 2839.80 1364.30 L 2846.00 1362.50 L 2849.90 1361.00 L 2855.80 1357.90 L 2860.70 1353.30 L 2863.40 1350.10 L 2867.20 1344.90 L 2883.20 1320.10 L 2890.30 1311.20 L 2893.10 1308.40 L 2895.90 1306.10 L 2898.20 1304.70 L 2900.50 1303.70 L 2904.90 1302.80 L 2909.40 1303.70 L 2911.60 1304.80 L 2916.60 1308.70 L 2919.40 1311.50 L 2926.20 1320.60 L 2941.70 1345.70 L 2945.40 1351.00 L 2948.00 1354.30 L 2952.80 1359.00 L 2958.60 1362.20 L 2962.50 1363.80 L 2968.70 1365.70 L 2997.10 1373.40 L 3003.60 1375.60 L 3007.80 1377.30 L 3014.40 1381.10 L 3018.10 1384.70 L 3020.30 1388.60 L 3020.70 1390.80 L 3020.50 1395.60 L 3018.40 1401.50 L 3014.00 1408.90 L 3010.00 1414.40 L 2990.90 1436.90 L 2987.00 1442.00 L 2984.60 1445.50 L 2981.70 1451.50 L 2980.90 1454.50 L 2980.40 1458.00 L 2980.20 1462.30 L 2980.20 1468.70 L 2981.70 1498.10 L 2981.30 1509.50 L 2980.60 1513.40 L 2978.70 1519.50 L 2977.50 1521.60 L 2974.30 1524.90 Z" fill="#f2f4ff" fill-rule="nonzero" id="path9526" node-id="79" stroke="none" target-height="224.3999" target-width="233.5" target-x="2787.2" target-y="1302.8"></path><path d="M 3621.50 1276.70 L 3617.40 1278.60 L 3615.00 1279.10 L 3608.60 1278.90 L 3604.70 1278.20 L 3593.80 1274.90 L 3566.50 1263.70 L 3560.50 1261.60 L 3556.40 1260.40 L 3549.80 1259.50 L 3543.20 1260.30 L 3539.10 1261.30 L 3533.00 1263.30 L 3505.40 1273.90 L 3494.50 1277.00 L 3490.50 1277.60 L 3484.20 1277.60 L 3481.80 1277.10 L 3479.70 1276.30 L 3477.70 1275.10 L 3476.10 1273.60 L 3474.70 1271.80 L 3473.50 1269.70 L 3471.70 1263.60 L 3471.10 1259.60 L 3470.90 1255.10 L 3470.90 1248.30 L 3473.10 1218.90 L 3473.30 1212.40 L 3473.10 1208.20 L 3472.00 1201.60 L 3469.20 1195.60 L 3466.90 1192.00 L 3463.10 1186.80 L 3444.60 1163.90 L 3440.60 1158.30 L 3436.50 1150.90 L 3434.50 1144.90 L 3434.30 1140.10 L 3434.80 1137.90 L 3435.80 1135.90 L 3438.70 1132.20 L 3444.00 1128.60 L 3451.80 1125.20 L 3458.30 1123.20 L 3486.90 1116.20 L 3493.10 1114.30 L 3497.10 1112.90 L 3503.00 1109.80 L 3507.90 1105.20 L 3510.60 1102.00 L 3514.30 1096.70 L 3530.40 1072.00 L 3537.40 1063.10 L 3540.30 1060.30 L 3545.40 1056.50 L 3547.60 1055.50 L 3552.10 1054.70 L 3556.50 1055.60 L 3558.70 1056.70 L 3563.70 1060.50 L 3566.50 1063.40 L 3573.40 1072.50 L 3588.90 1097.60 L 3592.50 1102.90 L 3595.10 1106.20 L 3599.90 1110.80 L 3605.80 1114.10 L 3609.70 1115.60 L 3615.80 1117.60 L 3644.30 1125.20 L 3650.80 1127.50 L 3654.90 1129.20 L 3661.50 1133.00 L 3665.30 1136.50 L 3667.40 1140.50 L 3667.90 1142.70 L 3667.90 1145.00 L 3667.60 1147.50 L 3666.90 1150.10 L 3665.50 1153.40 L 3661.20 1160.80 L 3657.10 1166.30 L 3638.10 1188.80 L 3634.10 1193.90 L 3631.80 1197.40 L 3628.90 1203.40 L 3627.60 1209.90 L 3627.30 1214.10 L 3627.30 1220.60 L 3628.90 1250.00 L 3628.40 1261.40 L 3627.80 1265.30 L 3625.80 1271.30 L 3624.60 1273.50 L 3623.20 1275.30 L 3621.50 1276.70 Z" fill="#f2f4ff" fill-rule="nonzero" id="path9528" node-id="80" stroke="none" target-height="224.40002" target-width="233.59985" target-x="3434.3" target-y="1054.7"></path></svg>