<?xml version="1.0" standalone="no"?><!DOCTYPE svg PUBLIC "-//W3C//DTD SVG 1.1//EN" "http://www.w3.org/Graphics/SVG/1.1/DTD/svg11.dtd"><svg height="480" node-id="1" sillyvg="true" template-height="480" template-width="480" version="1.1" viewBox="0 0 480 480" width="480" xmlns="http://www.w3.org/2000/svg" xmlns:xlink="http://www.w3.org/1999/xlink"><defs node-id="64"><linearGradient gradientUnits="objectBoundingBox" id="SVGID_1_" node-id="6" spreadMethod="pad" x1="249.4341" x2="249.4341" y1="405.0383" y2="210.6922"><stop offset="0" stop-color="#86bda2"></stop><stop offset="1" stop-color="#3aad81"></stop></linearGradient><linearGradient gradientUnits="objectBoundingBox" id="SVGID_2_" node-id="10" spreadMethod="pad" x1="235.1672" x2="235.1672" y1="391.7226" y2="197.3765"><stop offset="0" stop-color="#9adbc0"></stop><stop offset="1" stop-color="#3aad81"></stop></linearGradient><linearGradient gradientUnits="objectBoundingBox" id="SVGID_3_" node-id="14" spreadMethod="pad" x1="309.1149" x2="309.1149" y1="286.1479" y2="159.3316"><stop offset="0" stop-color="#9adbc0"></stop><stop offset="1" stop-color="#3aad81"></stop></linearGradient><linearGradient gradientUnits="objectBoundingBox" id="SVGID_4_" node-id="33" spreadMethod="pad" x1="424.7192" x2="424.7192" y1="218.3977" y2="172.1039"><stop offset="0" stop-color="#9adbc0"></stop><stop offset="1" stop-color="#17846f" stop-opacity="0.3"></stop></linearGradient><linearGradient gradientUnits="objectBoundingBox" id="SVGID_5_" node-id="38" spreadMethod="pad" x1="45.9313" x2="45.9313" y1="342.6389" y2="331.9605"><stop offset="0" stop-color="#9adbc0"></stop><stop offset="1" stop-color="#3aad81"></stop></linearGradient><linearGradient gradientUnits="objectBoundingBox" id="SVGID_6_" node-id="42" spreadMethod="pad" x1="46.0815" x2="46.0815" y1="331.3354" y2="324.1362"><stop offset="0" stop-color="#9adbc0"></stop><stop offset="1" stop-color="#3aad81"></stop></linearGradient><linearGradient gradientUnits="objectBoundingBox" id="SVGID_7_" node-id="46" spreadMethod="pad" x1="46.2532" x2="46.2532" y1="319.1964" y2="315.7196"><stop offset="0" stop-color="#9adbc0"></stop><stop offset="1" stop-color="#3aad81"></stop></linearGradient><linearGradient gradientUnits="objectBoundingBox" id="SVGID_8_" node-id="51" spreadMethod="pad" x1="399.0733" x2="399.0733" y1="-78.6706" y2="-91.792"><stop offset="0" stop-color="#9adbc0"></stop><stop offset="1" stop-color="#3aad81"></stop></linearGradient><linearGradient gradientUnits="objectBoundingBox" id="SVGID_9_" node-id="55" spreadMethod="pad" x1="399.1007" x2="399.1007" y1="-92.5598" y2="-101.4022"><stop offset="0" stop-color="#9adbc0"></stop><stop offset="1" stop-color="#3aad81"></stop></linearGradient><linearGradient gradientUnits="objectBoundingBox" id="SVGID_10_" node-id="59" spreadMethod="pad" x1="399.3276" x2="399.3276" y1="-107.476" y2="-111.7481"><stop offset="0" stop-color="#9adbc0"></stop><stop offset="1" stop-color="#3aad81"></stop></linearGradient></defs><path d="M 480.00 304.90 L 479.70 309.30 L 479.00 313.70 L 477.90 318.00 L 476.20 322.30 L 474.10 326.70 L 471.40 331.00 L 467.90 335.70 L 463.80 340.40 L 459.00 345.10 L 453.50 349.70 L 447.20 354.40 L 439.30 359.50 L 430.50 364.60 L 420.70 369.50 L 409.70 374.30 L 398.80 378.40 L 387.20 382.40 L 374.60 386.10 L 361.10 389.60 L 347.80 392.60 L 333.80 395.20 L 319.20 397.50 L 303.80 399.50 L 288.60 401.00 L 272.90 402.10 L 256.70 402.80 L 240.00 403.00 L 223.30 402.80 L 207.10 402.10 L 191.40 401.00 L 176.20 399.50 L 160.80 397.50 L 146.20 395.20 L 132.20 392.60 L 118.90 389.60 L 105.40 386.10 L 92.80 382.40 L 81.20 378.40 L 70.30 374.30 L 59.30 369.50 L 49.50 364.60 L 40.70 359.50 L 32.80 354.40 L 26.50 349.70 L 21.00 345.10 L 16.20 340.40 L 12.10 335.70 L 8.60 331.00 L 5.90 326.70 L 3.80 322.30 L 2.10 318.00 L 1.00 313.70 L 0.30 309.30 L 0.00 304.90 L 0.30 300.50 L 1.00 296.10 L 2.10 291.80 L 3.80 287.50 L 5.90 283.10 L 8.60 278.80 L 12.10 274.10 L 16.20 269.40 L 21.00 264.70 L 26.50 260.10 L 32.80 255.40 L 40.70 250.30 L 49.50 245.20 L 59.30 240.30 L 70.30 235.50 L 81.20 231.40 L 92.80 227.40 L 105.40 223.70 L 118.90 220.20 L 132.20 217.20 L 146.20 214.60 L 160.80 212.30 L 176.20 210.30 L 191.40 208.80 L 207.10 207.70 L 223.30 207.00 L 240.00 206.80 L 256.70 207.00 L 272.90 207.70 L 288.60 208.80 L 303.80 210.30 L 319.20 212.30 L 333.80 214.60 L 347.80 217.20 L 361.10 220.20 L 374.60 223.70 L 387.20 227.40 L 398.80 231.40 L 409.70 235.50 L 420.70 240.30 L 430.50 245.20 L 439.30 250.30 L 447.20 255.40 L 453.50 260.10 L 459.00 264.70 L 463.80 269.40 L 467.90 274.10 L 471.40 278.80 L 474.10 283.10 L 476.20 287.50 L 477.90 291.80 L 479.00 296.10 L 479.70 300.50 L 480.00 304.90 Z" fill="#17846f" fill-rule="nonzero" node-id="129" stroke="none" target-height="196.2" target-width="480" target-x="0" target-y="206.8"></path><path d="M 371.10 271.30 L 127.90 271.30 L 124.60 270.70 L 123.10 270.00 L 121.20 268.50 L 119.70 266.60 L 119.00 265.10 L 118.40 261.80 L 118.40 86.50 L 119.00 83.20 L 119.70 81.70 L 121.20 79.80 L 123.10 78.30 L 126.20 77.20 L 370.90 77.00 L 374.20 77.60 L 375.70 78.30 L 377.60 79.80 L 379.10 81.70 L 379.80 83.20 L 380.40 86.50 L 380.40 261.80 L 379.90 265.10 L 379.20 266.60 L 377.80 268.50 L 375.90 270.00 L 374.40 270.70 L 371.10 271.30 Z" fill="url(#SVGID_1_)" fill-rule="nonzero" node-id="131" stroke="none" target-height="194.29999" target-width="262" target-x="118.4" target-y="77"></path><path d="M 356.80 284.60 L 113.70 284.60 L 110.40 284.00 L 108.90 283.30 L 107.00 281.80 L 105.50 279.90 L 104.80 278.40 L 104.20 275.10 L 104.20 99.80 L 104.80 96.50 L 105.50 95.00 L 107.00 93.10 L 108.90 91.60 L 110.40 90.90 L 113.70 90.30 L 356.70 90.30 L 360.00 90.90 L 361.50 91.60 L 363.40 93.10 L 364.90 95.00 L 365.60 96.50 L 366.20 99.80 L 366.20 275.10 L 365.70 278.40 L 365.00 279.90 L 363.50 281.80 L 361.60 283.30 L 360.10 284.00 L 356.80 284.60 Z" fill="url(#SVGID_2_)" fill-rule="nonzero" node-id="133" stroke="none" target-height="194.3" target-width="262" target-x="104.2" target-y="90.3"></path><path d="M 309.10 195.90 L 304.30 196.20 L 299.60 197.00 L 295.20 198.30 L 290.90 200.10 L 286.80 202.30 L 283.00 205.00 L 279.40 208.00 L 276.00 211.50 L 273.00 215.20 L 270.30 219.30 L 267.90 223.60 L 265.90 228.30 L 264.30 233.20 L 263.20 238.20 L 262.50 243.50 L 262.20 249.00 L 262.50 253.20 L 263.40 257.60 L 264.80 262.30 L 268.90 271.60 L 275.90 283.40 L 280.70 290.30 L 290.60 302.90 L 299.80 313.20 L 309.10 322.70 L 318.40 313.20 L 327.60 302.90 L 337.50 290.30 L 342.30 283.40 L 349.30 271.60 L 353.40 262.30 L 354.80 257.60 L 355.70 253.20 L 356.00 249.00 L 355.70 243.50 L 355.00 238.20 L 353.90 233.20 L 352.30 228.30 L 350.30 223.60 L 348.00 219.30 L 345.30 215.20 L 342.30 211.50 L 338.90 208.00 L 335.30 205.00 L 331.50 202.30 L 327.40 200.10 L 323.10 198.30 L 318.60 197.00 L 314.00 196.20 L 309.10 195.90 Z" fill="url(#SVGID_3_)" fill-rule="nonzero" node-id="135" stroke="none" target-height="126.80002" target-width="93.79999" target-x="262.2" target-y="195.9"></path><path d="M 330.30 249.00 L 330.10 251.80 L 328.70 257.10 L 325.90 261.90 L 324.10 264.00 L 322.00 265.80 L 317.20 268.60 L 311.90 270.00 L 309.10 270.20 L 306.30 270.00 L 301.00 268.60 L 296.20 265.80 L 294.10 264.00 L 290.70 259.60 L 288.60 254.50 L 288.10 251.80 L 287.90 249.00 L 288.70 243.30 L 290.80 238.30 L 292.90 235.30 L 295.40 232.80 L 298.40 230.70 L 300.80 229.50 L 306.20 228.00 L 309.10 227.80 L 312.00 228.00 L 317.40 229.50 L 319.80 230.70 L 322.80 232.80 L 325.30 235.30 L 327.40 238.30 L 328.60 240.70 L 330.10 246.10 L 330.30 249.00 Z" fill="#b7e5d0" fill-rule="nonzero" node-id="137" stroke="none" target-height="42.40001" target-width="42.399994" target-x="287.9" target-y="227.8"></path><path d="M 235.20 142.00 L 144.80 142.00 L 142.40 141.40 L 140.60 139.60 L 140.20 138.50 L 140.00 137.20 L 140.60 134.80 L 142.40 133.00 L 143.50 132.60 L 235.20 132.40 L 236.50 132.60 L 238.60 133.80 L 239.80 135.90 L 240.00 137.20 L 239.80 138.50 L 238.60 140.60 L 236.50 141.80 L 235.20 142.00 Z" fill="#dff2e9" fill-rule="nonzero" node-id="139" stroke="none" target-height="9.600006" target-width="100" target-x="140" target-y="132.4"></path><path d="M 208.30 186.30 L 143.60 186.10 L 142.50 185.70 L 140.70 183.90 L 140.10 181.50 L 140.30 180.20 L 140.70 179.10 L 142.50 177.30 L 144.90 176.70 L 209.60 176.90 L 210.70 177.30 L 212.50 179.10 L 213.10 181.50 L 212.90 182.90 L 212.50 184.00 L 210.70 185.70 L 208.30 186.30 Z" fill="#dff2e9" fill-rule="nonzero" node-id="141" stroke="none" target-height="9.600006" target-width="73" target-x="140.1" target-y="176.7"></path><g node-id="187"><path d="M 109.70 364.00 L 109.70 367.80 L 115.90 367.80 L 115.90 364.70 Z" fill="#e8d0c8" fill-rule="nonzero" group-id="1" node-id="145" stroke="none" target-height="3.7999878" target-width="6.2000046" target-x="109.7" target-y="364"></path><path d="M 138.90 363.70 L 138.90 367.40 L 145.00 367.40 L 145.00 364.40 Z" fill="#e8d0c8" fill-rule="nonzero" group-id="1" node-id="147" stroke="none" target-height="3.6999817" target-width="6.100006" target-x="138.9" target-y="363.7"></path><path d="M 139.50 164.30 L 143.90 174.30 L 145.50 178.90 L 147.00 184.40 L 148.10 190.00 L 148.70 195.80 L 148.80 199.70 L 148.40 203.50 L 147.60 207.10 L 145.40 212.10 L 143.80 214.40 L 141.90 216.60 L 137.80 220.20 L 134.00 222.80 L 130.60 224.70 L 126.90 226.10 L 123.50 227.00 L 117.30 227.40 L 111.80 226.50 L 105.00 223.90 L 100.40 221.40 L 99.50 220.60 L 98.80 219.40 L 98.30 217.80 L 98.10 215.00 L 98.40 211.40 L 103.10 185.70 L 103.70 183.50 L 104.70 181.40 L 106.40 179.40 L 110.60 175.80 L 113.30 174.10 L 117.50 171.80 L 126.40 168.20 L 139.50 164.30 Z" fill="#e8d0c8" fill-rule="nonzero" group-id="1" node-id="149" stroke="none" target-height="63.09999" target-width="50.700005" target-x="98.1" target-y="164.3"></path><path d="M 114.80 223.00 L 125.90 223.00 L 125.90 237.30 L 114.80 237.30 Z" fill="#e8d0c8" fill-rule="nonzero" group-id="1" node-id="151" stroke="none" target-height="14.300003" target-width="11.099998" target-x="114.8" target-y="223"></path><path d="M 108.30 293.80 L 107.70 321.40 L 107.60 350.10 L 108.00 360.10 L 108.60 363.80 L 116.10 364.70 L 117.70 364.50 L 118.60 364.00 L 118.90 363.30 L 122.20 341.50 L 126.50 308.50 L 132.20 341.80 L 136.40 363.40 L 136.60 364.00 L 138.80 364.60 L 142.20 364.80 L 146.50 364.30 L 146.90 364.00 L 147.20 362.40 L 147.20 358.40 L 146.80 347.30 L 144.60 318.20 L 142.10 291.10 L 116.90 292.90 L 108.30 293.80 Z" fill="#938785" fill-rule="nonzero" group-id="1" node-id="153" stroke="none" target-height="73.69998" target-width="39.6" target-x="107.6" target-y="291.1"></path><path d="M 102.10 237.20 L 102.70 236.80 L 104.40 236.40 L 109.30 236.20 L 124.90 236.60 L 133.20 236.20 L 137.50 236.70 L 139.60 238.20 L 140.90 241.60 L 142.10 247.00 L 143.90 259.40 L 143.90 294.30 L 141.00 295.40 L 133.90 296.60 L 124.40 297.50 L 119.50 297.50 L 114.80 297.20 L 109.20 296.10 L 107.10 295.30 L 105.20 294.10 L 104.00 292.70 L 103.30 291.10 L 102.30 283.60 L 101.00 261.80 L 100.90 250.80 L 101.30 242.10 L 102.10 237.20 Z" fill="#e2a760" fill-rule="nonzero" group-id="1" node-id="155" stroke="none" target-height="61.300003" target-width="42.999992" target-x="100.9" target-y="236.2"></path><path d="M 139.20 164.30 L 143.60 164.90 L 147.10 165.70 L 149.90 166.70 L 154.50 169.50 L 156.00 171.00 L 157.90 173.50 L 158.90 175.80 L 159.60 178.00 L 159.80 181.30 L 129.80 203.80 L 124.60 211.90 L 122.00 215.20 L 119.00 218.60 L 115.60 221.70 L 112.10 224.20 L 109.50 225.50 L 107.00 226.30 L 104.50 226.50 L 100.80 225.80 L 96.80 223.30 L 94.00 220.40 L 91.40 217.30 L 89.20 213.80 L 87.30 210.20 L 85.80 206.40 L 84.60 202.50 L 84.00 198.50 L 83.80 194.60 L 84.10 190.70 L 84.90 186.80 L 86.30 183.20 L 88.40 179.60 L 92.50 174.90 L 98.40 170.60 L 105.50 167.50 L 109.90 166.20 L 120.00 164.40 L 132.00 164.00 L 139.20 164.30 Z" fill="#7f4f3c" fill-rule="nonzero" group-id="1" node-id="157" stroke="none" target-height="62.5" target-width="76" target-x="83.8" target-y="164"></path><path d="M 156.00 256.70 L 163.20 258.60 L 165.00 258.60 L 175.60 245.90 L 188.60 229.50 L 189.10 229.70 L 188.50 232.40 L 191.40 228.30 L 192.30 228.00 L 191.90 229.60 L 189.90 233.10 L 194.00 228.60 L 195.10 228.00 L 195.20 228.40 L 194.90 229.30 L 190.70 234.30 L 195.00 230.90 L 195.70 230.60 L 195.80 231.10 L 191.50 235.90 L 194.70 233.60 L 195.80 233.20 L 196.40 233.20 L 196.40 233.50 L 192.40 236.20 L 187.80 238.70 L 179.60 253.40 L 175.30 260.40 L 171.50 265.90 L 169.90 267.60 L 169.00 268.00 L 165.30 267.40 L 154.30 264.70 L 156.00 256.70 Z" fill="#e8d0c8" fill-rule="nonzero" group-id="1" node-id="159" stroke="none" target-height="40" target-width="42.09999" target-x="154.3" target-y="228"></path><path d="M 139.70 243.70 L 149.30 249.10 L 153.40 251.90 L 155.90 254.50 L 156.40 255.90 L 156.50 257.80 L 155.60 263.70 L 155.10 265.00 L 154.00 265.80 L 151.30 265.50 L 149.20 264.70 L 145.10 262.70 L 140.40 259.80 L 139.70 243.70 Z" fill="#e2a760" fill-rule="nonzero" group-id="1" node-id="161" stroke="none" target-height="22.09999" target-width="16.800003" target-x="139.7" target-y="243.7"></path><path d="M 109.70 367.70 L 115.00 367.40 L 120.70 367.60 L 122.50 368.50 L 122.70 369.20 L 122.40 369.90 L 121.60 370.70 L 119.20 371.70 L 115.70 372.20 L 111.80 372.20 L 110.10 371.90 L 108.90 371.20 L 108.20 370.30 L 108.50 368.80 L 109.70 367.70 Z" fill="#3a2522" fill-rule="nonzero" group-id="1" node-id="163" stroke="none" target-height="4.8000183" target-width="14.5" target-x="108.2" target-y="367.4"></path><path d="M 138.90 367.20 L 144.20 366.90 L 149.90 367.10 L 151.70 368.00 L 151.90 368.70 L 151.60 369.40 L 150.80 370.20 L 148.40 371.20 L 144.90 371.70 L 141.00 371.70 L 139.30 371.40 L 138.10 370.70 L 137.40 369.80 L 137.70 368.30 L 138.90 367.20 Z" fill="#3a2522" fill-rule="nonzero" group-id="1" node-id="165" stroke="none" target-height="4.8000183" target-width="14.5" target-x="137.4" target-y="366.9"></path></g><path d="M 404.50 298.60 L 406.80 290.50 L 407.80 280.40 L 407.50 270.20 L 406.60 263.60 L 419.10 293.70 L 445.60 267.40 L 418.20 309.90 L 412.00 309.30 L 409.60 308.70 L 406.00 306.80 L 404.20 304.30 L 403.80 302.90 L 403.90 301.00 L 404.50 298.60 Z" fill="url(#SVGID_4_)" fill-rule="nonzero" node-id="168" stroke="none" target-height="46.299988" target-width="41.80002" target-x="403.8" target-y="263.6"></path><g node-id="188"><path d="M 24.60 149.70 L 25.60 150.00 L 28.80 147.30 L 31.80 145.30 L 35.10 143.70 L 38.70 142.50 L 42.40 141.80 L 46.30 141.50 L 50.10 141.70 L 53.60 142.40 L 57.00 143.50 L 60.20 145.00 L 63.20 146.90 L 66.00 149.10 L 66.80 149.30 L 67.40 149.10 L 67.70 148.30 L 67.40 147.70 L 64.50 145.30 L 61.30 143.30 L 57.80 141.70 L 54.20 140.50 L 50.30 139.80 L 46.30 139.50 L 42.00 139.80 L 38.00 140.60 L 34.30 141.90 L 30.70 143.60 L 27.40 145.80 L 24.40 148.40 L 24.20 148.90 L 24.60 149.70 Z" fill="url(#SVGID_5_)" fill-rule="nonzero" group-id="2" node-id="172" stroke="none" target-height="10.5" target-width="43.499996" target-x="24.2" target-y="139.5"></path><path d="M 32.70 157.50 L 33.70 157.80 L 36.70 155.50 L 39.60 153.90 L 44.00 152.80 L 46.30 152.60 L 49.60 152.90 L 52.60 153.80 L 58.80 157.20 L 59.70 156.60 L 59.40 155.60 L 56.60 153.60 L 53.40 152.00 L 51.10 151.30 L 46.20 150.70 L 43.60 150.90 L 41.20 151.40 L 36.60 153.20 L 32.60 156.10 L 32.40 156.80 L 32.70 157.50 Z" fill="url(#SVGID_6_)" fill-rule="nonzero" group-id="2" node-id="174" stroke="none" target-height="7.100006" target-width="27.3" target-x="32.4" target-y="150.7"></path><path d="M 41.50 165.90 L 42.30 166.20 L 44.50 165.30 L 46.40 165.00 L 47.70 165.10 L 50.40 166.30 L 51.30 165.50 L 50.80 164.30 L 47.90 163.00 L 44.90 163.00 L 42.50 163.80 L 41.40 164.50 L 41.20 165.20 L 41.50 165.90 Z" fill="url(#SVGID_7_)" fill-rule="nonzero" group-id="2" node-id="176" stroke="none" target-height="3.300003" target-width="10.099998" target-x="41.2" target-y="163"></path></g><g node-id="189"><path d="M 406.30 161.30 L 406.40 161.90 L 407.10 162.50 L 412.10 163.00 L 416.50 163.90 L 420.90 165.30 L 425.00 167.30 L 428.90 169.90 L 432.50 173.10 L 435.50 176.60 L 438.00 180.20 L 440.00 184.20 L 441.50 188.30 L 442.50 192.50 L 443.10 197.10 L 443.80 197.90 L 444.50 198.00 L 445.40 197.60 L 445.80 196.70 L 445.30 192.10 L 444.30 187.60 L 442.70 183.20 L 440.50 179.00 L 437.80 175.00 L 434.50 171.30 L 431.50 168.60 L 425.30 164.50 L 422.00 162.90 L 417.40 161.30 L 412.70 160.40 L 407.90 160.00 L 406.70 160.40 L 406.30 161.30 Z" fill="url(#SVGID_8_)" fill-rule="nonzero" group-id="3" node-id="181" stroke="none" target-height="38" target-width="39.5" target-x="406.3" target-y="160"></path><path d="M 406.60 175.20 L 407.30 176.40 L 413.00 177.30 L 415.60 178.20 L 420.30 180.90 L 424.30 184.90 L 425.80 187.10 L 427.80 191.80 L 428.80 197.30 L 430.00 198.00 L 430.60 197.90 L 431.20 197.20 L 431.00 193.80 L 429.30 188.30 L 426.30 183.20 L 424.20 180.90 L 421.80 178.80 L 419.20 177.00 L 413.60 174.70 L 407.70 173.80 L 406.90 174.30 L 406.60 175.20 Z" fill="url(#SVGID_9_)" fill-rule="nonzero" group-id="3" node-id="183" stroke="none" target-height="24.199997" target-width="24.600006" target-x="406.6" target-y="173.8"></path><path d="M 406.90 190.10 L 407.60 191.30 L 410.10 192.00 L 412.00 193.30 L 412.90 194.50 L 414.40 197.90 L 415.80 198.10 L 416.40 197.40 L 416.20 195.40 L 415.60 194.00 L 413.80 191.60 L 412.10 190.20 L 410.20 189.40 L 408.30 188.90 L 407.30 189.30 L 406.90 190.10 Z" fill="url(#SVGID_10_)" fill-rule="nonzero" group-id="3" node-id="185" stroke="none" target-height="9.200012" target-width="9.5" target-x="406.9" target-y="188.9"></path></g></svg>