<?xml version="1.0" standalone="no"?><!DOCTYPE svg PUBLIC "-//W3C//DTD SVG 1.1//EN" "http://www.w3.org/Graphics/SVG/1.1/DTD/svg11.dtd"><svg height="1024" node-id="1" sillyvg="true" template-height="1024" template-width="1468" version="1.1" viewBox="0 0 1468 1024" width="1468" xmlns="http://www.w3.org/2000/svg" xmlns:xlink="http://www.w3.org/1999/xlink"><defs node-id="33"><clipPath id="clip0_1608_18796" node-id="30"><path d="M 0.00 0.00 L 1467.70 0.00 L 1467.70 1024.00 L 0.00 1024.00 Z" fill="#000000" fill-rule="nonzero" node-id="36" stroke="none" target-height="1024" target-width="1467.7" target-x="0" target-y="0"></path></clipPath></defs><g clip-path="url(#clip0_1608_18796)" id="sillyvg_g_0" node-id="40"><path d="M 1422.20 0.00 L 716.80 0.00 L 712.10 0.30 L 707.70 1.20 L 703.50 2.70 L 699.60 4.70 L 695.90 7.10 L 692.70 10.00 L 689.80 13.30 L 687.30 16.90 L 685.30 20.80 L 683.90 25.00 L 683.00 29.40 L 682.70 34.10 L 682.70 643.50 L 683.00 648.20 L 683.90 652.60 L 685.30 656.80 L 687.30 660.80 L 689.80 664.40 L 692.70 667.60 L 695.90 670.50 L 699.60 673.00 L 703.50 675.00 L 707.70 676.40 L 712.10 677.30 L 716.80 677.60 L 1422.20 677.60 L 1426.90 677.30 L 1431.30 676.40 L 1435.50 675.00 L 1439.50 673.00 L 1443.10 670.50 L 1446.30 667.60 L 1449.20 664.40 L 1451.70 660.80 L 1453.70 656.80 L 1455.10 652.60 L 1456.00 648.20 L 1456.30 643.50 L 1456.30 34.10 L 1456.00 29.40 L 1455.10 25.00 L 1453.70 20.80 L 1451.70 16.90 L 1449.20 13.30 L 1446.30 10.00 L 1443.10 7.10 L 1439.50 4.70 L 1435.50 2.70 L 1431.30 1.20 L 1426.90 0.30 L 1422.20 0.00 Z" fill="#fbfbfb" fill-rule="nonzero" node-id="42" stroke="none" target-height="677.6" target-width="773.60004" target-x="682.7" target-y="0"></path><path d="M 1439.30 0.00 L 699.70 0.00 L 696.60 0.30 L 693.80 1.10 L 691.10 2.30 L 688.70 4.00 L 686.70 6.10 L 685.00 8.50 L 683.70 11.10 L 683.00 14.00 L 682.70 17.10 L 682.70 62.10 L 683.00 65.20 L 683.70 68.10 L 685.00 70.70 L 686.70 73.10 L 688.70 75.10 L 691.10 76.80 L 693.80 78.10 L 696.60 78.90 L 699.70 79.20 L 1439.30 79.20 L 1442.40 78.90 L 1445.20 78.10 L 1447.90 76.80 L 1450.30 75.10 L 1452.30 73.10 L 1454.00 70.70 L 1455.30 68.10 L 1456.00 65.20 L 1456.30 62.10 L 1456.30 17.10 L 1456.00 14.00 L 1455.30 11.10 L 1454.00 8.50 L 1452.30 6.10 L 1450.30 4.00 L 1447.90 2.30 L 1445.20 1.10 L 1442.40 0.30 L 1439.30 0.00 Z" fill="#ff8f7b" fill-rule="nonzero" node-id="44" stroke="none" target-height="79.2" target-width="773.60004" target-x="682.7" target-y="0"></path><path d="M 731.30 40.80 L 731.10 34.60 L 729.70 30.90 L 727.20 27.90 L 725.60 26.80 L 721.90 25.40 L 717.70 25.40 L 715.80 25.90 L 712.40 27.90 L 709.90 30.90 L 709.00 32.70 L 708.30 36.70 L 708.50 42.90 L 709.90 46.60 L 711.00 48.20 L 714.00 50.70 L 717.70 52.10 L 721.90 52.10 L 723.80 51.60 L 727.20 49.60 L 729.70 46.60 L 730.60 44.80 L 731.30 40.80 Z" fill="#ffffff" fill-rule="nonzero" node-id="46" stroke="none" target-height="26.699999" target-width="23" target-x="708.3" target-y="25.4"></path><path d="M 776.10 40.80 L 775.90 34.60 L 774.50 30.90 L 773.40 29.30 L 770.40 26.80 L 766.70 25.40 L 762.50 25.40 L 760.60 25.90 L 757.20 27.90 L 754.70 30.90 L 753.80 32.70 L 753.10 36.70 L 753.30 42.90 L 754.70 46.60 L 757.20 49.60 L 758.80 50.70 L 762.50 52.10 L 766.70 52.10 L 768.60 51.60 L 772.00 49.60 L 774.50 46.60 L 775.40 44.80 L 776.10 40.80 Z" fill="#ffffff" fill-rule="nonzero" node-id="48" stroke="none" target-height="26.699999" target-width="23" target-x="753.1" target-y="25.4"></path><path d="M 820.90 40.80 L 820.70 34.60 L 819.40 30.90 L 816.90 27.90 L 815.20 26.80 L 811.50 25.40 L 807.30 25.40 L 805.40 25.90 L 802.00 27.90 L 799.50 30.90 L 798.70 32.70 L 797.90 36.70 L 798.10 42.90 L 799.50 46.60 L 800.70 48.20 L 803.60 50.70 L 807.30 52.10 L 811.50 52.10 L 813.50 51.60 L 816.90 49.60 L 819.40 46.60 L 820.20 44.80 L 820.90 40.80 Z" fill="#ffffff" fill-rule="nonzero" node-id="50" stroke="none" target-height="26.699999" target-width="23" target-x="797.9" target-y="25.4"></path><path d="M 868.40 254.40 L 868.40 238.20 L 868.10 233.70 L 867.20 229.50 L 865.80 225.50 L 863.90 221.70 L 861.60 218.30 L 858.90 215.10 L 855.70 212.40 L 852.30 210.10 L 848.50 208.20 L 844.50 206.80 L 840.30 205.90 L 835.90 205.60 L 778.90 205.60 L 774.50 205.90 L 770.30 206.80 L 766.30 208.20 L 762.50 210.10 L 759.10 212.40 L 755.90 215.10 L 753.20 218.30 L 750.90 221.70 L 749.00 225.50 L 747.60 229.50 L 746.70 233.70 L 746.40 238.20 L 746.40 254.40 L 868.40 254.40 Z" fill="#b5d1de" fill-rule="nonzero" node-id="52" stroke="none" target-height="48.799988" target-width="122" target-x="746.4" target-y="205.6"></path><path d="M 807.40 181.20 L 811.30 180.90 L 815.00 180.20 L 818.50 179.00 L 821.80 177.30 L 824.80 175.30 L 827.50 172.90 L 829.90 170.20 L 832.00 167.10 L 833.60 163.80 L 834.80 160.40 L 835.60 156.70 L 835.90 152.80 L 835.60 148.90 L 834.80 145.20 L 833.60 141.70 L 832.00 138.40 L 829.90 135.40 L 827.50 132.60 L 824.80 130.20 L 821.80 128.20 L 818.50 126.60 L 815.00 125.30 L 811.30 124.60 L 807.40 124.30 L 803.50 124.60 L 799.80 125.30 L 796.30 126.60 L 793.00 128.20 L 790.00 130.20 L 787.30 132.60 L 784.90 135.40 L 782.80 138.40 L 781.20 141.70 L 780.00 145.20 L 779.20 148.90 L 779.00 152.80 L 779.20 156.70 L 780.00 160.40 L 781.20 163.80 L 782.80 167.10 L 784.90 170.20 L 787.30 172.90 L 790.00 175.30 L 793.00 177.30 L 796.30 179.00 L 799.80 180.20 L 803.50 180.90 L 807.40 181.20 Z" fill="#b5d1de" fill-rule="nonzero" node-id="54" stroke="none" target-height="56.899994" target-width="56.900024" target-x="779" target-y="124.3"></path><path d="M 1324.20 155.80 L 941.80 155.80 L 941.80 173.90 L 1324.20 173.90 L 1324.20 155.80 Z" fill="#b5d1de" fill-rule="nonzero" node-id="56" stroke="none" target-height="18.09999" target-width="382.39996" target-x="941.8" target-y="155.8"></path><path d="M 1128.80 291.30 L 746.40 291.30 L 746.40 309.40 L 1128.80 309.40 L 1128.80 291.30 Z" fill="#b5d1de" fill-rule="nonzero" node-id="58" stroke="none" target-height="18.100006" target-width="382.40002" target-x="746.4" target-y="291.3"></path><path d="M 851.80 598.60 L 746.40 598.60 L 746.40 616.60 L 851.80 616.60 L 851.80 598.60 Z" fill="#d8e5ed" fill-rule="nonzero" node-id="60" stroke="none" target-height="18" target-width="105.39996" target-x="746.4" target-y="598.6"></path><path d="M 999.50 598.60 L 894.20 598.60 L 894.20 616.60 L 999.50 616.60 L 999.50 598.60 Z" fill="#d8e5ed" fill-rule="nonzero" node-id="62" stroke="none" target-height="18" target-width="105.29999" target-x="894.2" target-y="598.6"></path><path d="M 1147.30 598.60 L 1042.00 598.60 L 1042.00 616.60 L 1147.30 616.60 L 1147.30 598.60 Z" fill="#d8e5ed" fill-rule="nonzero" node-id="64" stroke="none" target-height="18" target-width="105.30005" target-x="1042" target-y="598.6"></path><path d="M 1197.80 204.40 L 941.80 204.40 L 941.80 222.50 L 1197.80 222.50 L 1197.80 204.40 Z" fill="#b5d1de" fill-rule="nonzero" node-id="66" stroke="none" target-height="18.100006" target-width="256.00006" target-x="941.8" target-y="204.4"></path><path d="M 1388.00 339.00 L 746.40 339.00 L 746.40 567.90 L 1388.00 567.90 L 1388.00 339.00 Z" fill="#d8e5ed" fill-rule="nonzero" node-id="68" stroke="none" target-height="228.90002" target-width="641.6" target-x="746.4" target-y="339"></path><path d="M 1126.40 204.80 L 68.30 204.80 L 62.60 205.00 L 57.10 205.70 L 51.80 206.80 L 46.70 208.30 L 41.70 210.20 L 36.90 212.40 L 32.30 215.00 L 27.90 218.00 L 23.80 221.20 L 16.40 228.60 L 13.20 232.70 L 10.20 237.10 L 7.60 241.70 L 5.40 246.50 L 3.50 251.50 L 2.00 256.60 L 0.90 261.90 L 0.20 267.40 L 0.00 273.10 L 0.00 955.70 L 0.20 961.40 L 0.90 966.90 L 2.00 972.20 L 3.50 977.30 L 5.40 982.30 L 7.60 987.10 L 10.20 991.70 L 13.20 996.10 L 20.00 1004.00 L 27.90 1010.80 L 32.30 1013.80 L 36.90 1016.40 L 41.70 1018.60 L 46.70 1020.50 L 51.80 1022.00 L 57.10 1023.10 L 62.60 1023.80 L 68.30 1024.00 L 1126.40 1024.00 L 1132.10 1023.80 L 1137.50 1023.10 L 1142.80 1022.00 L 1148.00 1020.50 L 1153.00 1018.60 L 1157.80 1016.40 L 1162.40 1013.80 L 1166.70 1010.80 L 1170.80 1007.60 L 1174.70 1004.00 L 1178.20 1000.20 L 1181.50 996.10 L 1184.40 991.70 L 1187.00 987.10 L 1189.30 982.30 L 1191.20 977.30 L 1192.70 972.20 L 1193.80 966.90 L 1194.40 961.40 L 1194.70 955.70 L 1194.70 273.10 L 1194.40 267.40 L 1193.80 261.90 L 1192.70 256.60 L 1191.20 251.50 L 1189.30 246.50 L 1187.00 241.70 L 1184.40 237.10 L 1181.50 232.70 L 1178.20 228.60 L 1170.80 221.20 L 1166.70 218.00 L 1162.40 215.00 L 1157.80 212.40 L 1153.00 210.20 L 1148.00 208.30 L 1142.80 206.80 L 1137.50 205.70 L 1132.10 205.00 L 1126.40 204.80 Z" fill="#ffffff" fill-rule="nonzero" node-id="70" stroke="none" target-height="819.2" target-width="1194.7" target-x="0" target-y="204.8"></path><path d="M 470.40 400.10 L 167.90 400.10 L 164.20 400.40 L 160.70 401.00 L 157.40 402.10 L 154.20 403.60 L 151.30 405.40 L 148.80 407.60 L 146.50 410.00 L 144.50 412.70 L 142.90 415.60 L 141.80 418.70 L 141.10 422.00 L 140.80 425.50 L 140.80 641.90 L 141.10 645.40 L 141.80 648.60 L 142.90 651.70 L 144.50 654.70 L 146.50 657.40 L 148.80 659.80 L 151.30 661.90 L 154.20 663.80 L 157.40 665.20 L 160.70 666.30 L 164.20 667.00 L 167.90 667.20 L 470.40 667.20 L 474.10 667.00 L 477.60 666.30 L 480.90 665.20 L 484.10 663.80 L 487.00 661.90 L 489.60 659.80 L 491.90 657.40 L 493.80 654.70 L 495.40 651.70 L 496.50 648.60 L 497.20 645.40 L 497.50 641.90 L 497.50 425.50 L 497.20 422.00 L 496.50 418.70 L 495.40 415.60 L 493.80 412.70 L 491.90 410.00 L 489.60 407.60 L 487.00 405.40 L 484.10 403.60 L 480.90 402.10 L 477.60 401.00 L 474.10 400.40 L 470.40 400.10 Z" fill="#d8e5ed" fill-rule="nonzero" node-id="72" stroke="none" target-height="267.1" target-width="356.7" target-x="140.8" target-y="400.1"></path><path d="M 287.70 754.00 L 163.60 754.00 L 159.90 754.20 L 156.40 754.90 L 153.10 756.00 L 149.90 757.50 L 147.10 759.30 L 144.50 761.40 L 142.20 763.90 L 140.20 766.50 L 138.70 769.50 L 137.50 772.60 L 136.80 775.90 L 136.50 779.40 L 136.50 862.10 L 136.80 865.60 L 137.50 868.90 L 138.70 872.00 L 140.20 874.90 L 142.20 877.60 L 144.50 880.00 L 147.10 882.20 L 149.90 884.00 L 153.10 885.50 L 156.40 886.60 L 159.90 887.20 L 163.60 887.50 L 287.70 887.50 L 291.40 887.20 L 294.90 886.60 L 298.20 885.50 L 301.40 884.00 L 304.20 882.20 L 306.80 880.00 L 309.10 877.60 L 311.10 874.90 L 312.60 872.00 L 313.80 868.90 L 314.50 865.60 L 314.80 862.10 L 314.80 779.40 L 314.50 775.90 L 313.80 772.60 L 312.60 769.50 L 311.10 766.50 L 309.10 763.90 L 306.80 761.40 L 304.20 759.30 L 301.40 757.50 L 298.20 756.00 L 294.90 754.90 L 291.40 754.20 L 287.70 754.00 Z" fill="#d8e5ed" fill-rule="nonzero" node-id="74" stroke="none" target-height="133.5" target-width="178.29999" target-x="136.5" target-y="754"></path><path d="M 542.30 752.00 L 418.30 752.00 L 414.60 752.20 L 411.10 752.90 L 407.80 754.00 L 404.60 755.50 L 401.70 757.30 L 399.10 759.40 L 396.80 761.90 L 394.90 764.50 L 393.30 767.50 L 392.20 770.60 L 391.50 773.90 L 391.20 777.30 L 391.20 860.10 L 391.50 863.60 L 392.20 866.90 L 393.30 870.00 L 394.90 872.90 L 396.80 875.60 L 399.10 878.00 L 401.70 880.20 L 404.60 882.00 L 407.80 883.50 L 411.10 884.60 L 414.60 885.20 L 418.30 885.50 L 542.30 885.50 L 546.10 885.20 L 549.60 884.60 L 552.90 883.50 L 556.00 882.00 L 558.90 880.20 L 561.50 878.00 L 563.80 875.60 L 565.70 872.90 L 567.30 870.00 L 568.50 866.90 L 569.20 863.60 L 569.40 860.10 L 569.40 777.30 L 569.20 773.90 L 568.50 770.60 L 567.30 767.50 L 565.70 764.50 L 563.80 761.90 L 561.50 759.40 L 558.90 757.30 L 556.00 755.50 L 552.90 754.00 L 549.60 752.90 L 546.10 752.20 L 542.30 752.00 Z" fill="#ff8f7b" fill-rule="nonzero" node-id="76" stroke="none" target-height="133.5" target-width="178.20001" target-x="391.2" target-y="752"></path><path d="M 794.90 748.00 L 670.80 748.00 L 667.10 748.20 L 663.60 748.90 L 660.30 750.00 L 657.10 751.50 L 654.30 753.30 L 651.70 755.40 L 649.40 757.90 L 647.40 760.50 L 645.90 763.50 L 644.70 766.60 L 644.00 769.90 L 643.70 773.30 L 643.70 856.10 L 644.00 859.60 L 644.70 862.90 L 645.90 866.00 L 647.40 868.90 L 649.40 871.60 L 651.70 874.00 L 654.30 876.20 L 657.10 878.00 L 660.30 879.50 L 663.60 880.50 L 667.10 881.20 L 670.80 881.50 L 794.90 881.50 L 798.60 881.20 L 802.10 880.50 L 805.40 879.50 L 808.60 878.00 L 811.40 876.20 L 814.00 874.00 L 816.30 871.60 L 818.30 868.90 L 819.80 866.00 L 821.00 862.90 L 821.70 859.60 L 822.00 856.10 L 822.00 773.30 L 821.70 769.90 L 821.00 766.60 L 819.80 763.50 L 818.30 760.50 L 816.30 757.90 L 814.00 755.40 L 811.40 753.30 L 808.60 751.50 L 805.40 750.00 L 802.10 748.90 L 798.60 748.20 L 794.90 748.00 Z" fill="#d8e5ed" fill-rule="nonzero" node-id="78" stroke="none" target-height="133.5" target-width="178.29999" target-x="643.7" target-y="748"></path><path d="M 1031.00 745.30 L 907.00 745.30 L 903.30 745.60 L 899.80 746.20 L 896.50 747.30 L 893.30 748.80 L 890.40 750.60 L 887.80 752.70 L 885.50 755.20 L 883.60 757.90 L 882.00 760.80 L 880.90 763.90 L 880.20 767.20 L 879.90 770.70 L 879.90 853.40 L 880.20 856.90 L 880.90 860.20 L 882.00 863.30 L 883.60 866.20 L 885.50 868.90 L 887.80 871.40 L 890.40 873.50 L 893.30 875.30 L 896.50 876.80 L 899.80 877.90 L 903.30 878.50 L 907.00 878.80 L 1031.00 878.80 L 1034.80 878.50 L 1038.30 877.90 L 1041.60 876.80 L 1044.70 875.30 L 1047.60 873.50 L 1050.20 871.40 L 1052.50 868.90 L 1054.40 866.20 L 1056.00 863.30 L 1057.20 860.20 L 1057.90 856.90 L 1058.10 853.40 L 1058.10 770.70 L 1057.90 767.20 L 1057.20 763.90 L 1056.00 760.80 L 1054.40 757.90 L 1052.50 755.20 L 1050.20 752.70 L 1047.60 750.60 L 1044.70 748.80 L 1041.60 747.30 L 1038.30 746.20 L 1034.80 745.60 L 1031.00 745.30 Z" fill="#ff8f7b" fill-rule="nonzero" node-id="80" stroke="none" target-height="133.5" target-width="178.19995" target-x="879.9" target-y="745.3"></path><path d="M 985.10 389.60 L 580.60 389.60 L 578.00 389.90 L 575.70 390.80 L 573.80 392.30 L 572.30 394.10 L 571.60 395.50 L 571.00 398.60 L 571.60 401.80 L 572.30 403.20 L 573.80 405.00 L 575.70 406.40 L 578.00 407.30 L 580.60 407.60 L 985.10 407.60 L 987.70 407.30 L 989.90 406.40 L 991.90 405.00 L 993.40 403.20 L 994.10 401.80 L 994.70 398.60 L 994.10 395.50 L 991.90 392.30 L 989.90 390.80 L 987.70 389.90 L 985.10 389.60 Z" fill="#d8e5ed" fill-rule="nonzero" node-id="82" stroke="none" target-height="18" target-width="423.7" target-x="571" target-y="389.6"></path><path d="M 833.60 442.50 L 582.00 442.50 L 579.40 442.90 L 577.20 443.80 L 575.20 445.20 L 573.70 447.00 L 573.00 448.40 L 572.40 451.50 L 573.00 454.70 L 573.70 456.10 L 575.20 457.90 L 577.20 459.30 L 579.40 460.20 L 582.00 460.60 L 833.60 460.60 L 836.20 460.20 L 838.50 459.30 L 840.40 457.90 L 841.90 456.10 L 842.60 454.70 L 843.20 451.60 L 842.60 448.40 L 841.90 447.00 L 840.40 445.20 L 838.50 443.80 L 836.20 442.90 L 833.60 442.50 Z" fill="#d8e5ed" fill-rule="nonzero" node-id="84" stroke="none" target-height="18.100006" target-width="270.8" target-x="572.4" target-y="442.5"></path><path d="M 759.50 491.50 L 583.90 491.50 L 581.30 491.80 L 579.10 492.70 L 577.10 494.10 L 575.60 496.00 L 574.50 498.90 L 574.50 502.10 L 575.60 505.00 L 577.10 506.90 L 579.10 508.30 L 581.30 509.20 L 583.90 509.50 L 759.50 509.50 L 762.00 509.20 L 764.30 508.30 L 766.30 506.90 L 767.80 505.00 L 768.50 503.60 L 769.10 500.50 L 768.50 497.40 L 767.80 496.00 L 766.30 494.10 L 764.30 492.70 L 762.00 491.80 L 759.50 491.50 Z" fill="#d8e5ed" fill-rule="nonzero" node-id="86" stroke="none" target-height="18" target-width="194.59998" target-x="574.5" target-y="491.5"></path><path d="M 331.40 341.30 L 155.90 341.30 L 153.30 341.70 L 151.10 342.60 L 149.10 344.00 L 147.60 345.80 L 146.90 347.20 L 146.30 350.30 L 146.90 353.50 L 147.60 354.90 L 149.10 356.70 L 151.10 358.10 L 153.30 359.00 L 155.90 359.40 L 331.40 359.40 L 334.00 359.00 L 336.30 358.10 L 338.30 356.70 L 339.80 354.90 L 340.50 353.50 L 341.10 350.30 L 340.50 347.20 L 339.80 345.80 L 338.30 344.00 L 336.30 342.60 L 334.00 341.70 L 331.40 341.30 Z" fill="#ff8f7b" fill-rule="nonzero" node-id="88" stroke="none" target-height="18.100006" target-width="194.8" target-x="146.3" target-y="341.3"></path><path d="M 936.10 563.20 L 580.30 563.20 L 580.30 588.90 L 936.10 588.90 L 936.10 563.20 Z" fill="#b5d1de" fill-rule="nonzero" node-id="90" stroke="none" target-height="25.700012" target-width="355.8" target-x="580.3" target-y="563.2"></path><path d="M 838.10 615.70 L 580.30 615.70 L 580.30 641.40 L 838.10 641.40 L 838.10 615.70 Z" fill="#b5d1de" fill-rule="nonzero" node-id="92" stroke="none" target-height="25.700012" target-width="257.8" target-x="580.3" target-y="615.7"></path></g></svg>