<?xml version="1.0" standalone="no"?><!DOCTYPE svg PUBLIC "-//W3C//DTD SVG 1.1//EN" "http://www.w3.org/Graphics/SVG/1.1/DTD/svg11.dtd"><svg height="400" node-id="1" sillyvg="true" template-height="400" template-width="400" version="1.1" viewBox="0 0 400 400" width="400" xmlns="http://www.w3.org/2000/svg" xmlns:xlink="http://www.w3.org/1999/xlink"><defs node-id="121"><linearGradient gradientUnits="objectBoundingBox" id="SVGID_1_" node-id="6" spreadMethod="pad" x1="173.8801" x2="173.8801" y1="252.268" y2="337.4593"><stop offset="0" stop-color="#3cd3b4"></stop><stop offset="1" stop-color="#71cfee"></stop></linearGradient><linearGradient gradientUnits="objectBoundingBox" id="SVGID_2_" node-id="11" spreadMethod="pad" x1="207.4266" x2="400" y1="216.781" y2="216.781"><stop offset="0" stop-color="#99db8d"></stop><stop offset="1" stop-color="#d2be9a"></stop></linearGradient><linearGradient gradientUnits="objectBoundingBox" id="SVGID_4_" node-id="54" spreadMethod="pad" x1="135.9691" x2="227.4094" y1="160.1553" y2="160.1553"><stop offset="0" stop-color="#bbd6b4"></stop><stop offset="1" stop-color="#63ede7"></stop></linearGradient><linearGradient gradientUnits="objectBoundingBox" id="SVGID_5_" node-id="59" spreadMethod="pad" x1="135.9691" x2="210.0715" y1="170.8634" y2="170.8634"><stop offset="0" stop-color="#5486b4"></stop><stop offset="1" stop-color="#72cbe2"></stop></linearGradient><linearGradient gradientUnits="objectBoundingBox" id="SVGID_6_" node-id="63" spreadMethod="pad" x1="178.3989" x2="188.2699" y1="161.8006" y2="161.8006"><stop offset="0" stop-color="#5486b4"></stop><stop offset="1" stop-color="#72cbe2"></stop></linearGradient><linearGradient gradientUnits="objectBoundingBox" id="SVGID_7_" node-id="69" spreadMethod="pad" x1="7.9351" x2="117.2635" y1="283.1499" y2="283.1499"><stop offset="0" stop-color="#78aa6d"></stop><stop offset="1" stop-color="#6dcdad"></stop></linearGradient><linearGradient gradientUnits="objectBoundingBox" id="SVGID_8_" node-id="74" spreadMethod="pad" x1="9.8874" x2="115.3112" y1="263.627" y2="263.627"><stop offset="0" stop-color="#bbd6b4"></stop><stop offset="1" stop-color="#63ede7"></stop></linearGradient><linearGradient gradientUnits="objectBoundingBox" id="SVGID_9_" node-id="81" spreadMethod="pad" x1="5.9828" x2="115.3112" y1="257.7701" y2="257.7701"><stop offset="0" stop-color="#5595ce"></stop><stop offset="1" stop-color="#afcbe2"></stop></linearGradient><linearGradient gradientUnits="objectBoundingBox" id="SVGID_10_" node-id="86" spreadMethod="pad" x1="7.9351" x2="113.359" y1="238.2471" y2="238.2471"><stop offset="0" stop-color="#5486b4"></stop><stop offset="1" stop-color="#72cbe2"></stop></linearGradient><linearGradient gradientUnits="objectBoundingBox" id="SVGID_11_" node-id="93" spreadMethod="pad" x1="9.8874" x2="119.2158" y1="228.203" y2="228.203"><stop offset="0" stop-color="#f48577"></stop><stop offset="1" stop-color="#93bee7"></stop></linearGradient><linearGradient gradientUnits="objectBoundingBox" id="SVGID_12_" node-id="98" spreadMethod="pad" x1="11.8397" x2="117.2635" y1="208.6801" y2="208.6801"><stop offset="0" stop-color="#f4ae77"></stop><stop offset="1" stop-color="#98ede7"></stop></linearGradient><linearGradient gradientUnits="objectBoundingBox" id="SVGID_13_" node-id="105" spreadMethod="pad" x1="194.8463" x2="327.4573" y1="275.0297" y2="275.0297"><stop offset="0" stop-color="#89cdda"></stop><stop offset="1" stop-color="#eeeeee"></stop></linearGradient><linearGradient gradientUnits="objectBoundingBox" id="SVGID_14_" node-id="112" spreadMethod="pad" x1="194.8463" x2="209.9723" y1="284.1909" y2="284.1909"><stop offset="0" stop-color="#89cdda"></stop><stop offset="1" stop-color="#a9d8e0"></stop></linearGradient><linearGradient gradientUnits="objectBoundingBox" id="SVGID_15_" node-id="116" spreadMethod="pad" x1="165.6642" x2="197.7143" y1="253.2554" y2="253.2554"><stop offset="0" stop-color="#4396cc"></stop><stop offset="1" stop-color="#86baee"></stop></linearGradient><radialGradient cx="181.6892" cy="175.7737" fx="181.6892" fy="175.7737" gradientUnits="objectBoundingBox" id="SVGID_3_" node-id="26" r="130.8838" rev="1" spreadMethod="pad"><stop offset="0" stop-color="#5296a8"></stop><stop offset="0.505" stop-color="#7cb4ee"></stop><stop offset="1" stop-color="#5398aa"></stop></radialGradient></defs><g node-id="388"><path d="M 36.00 283.10 L 17.70 292.50 L 8.90 298.20 L 5.20 301.20 L 2.50 304.20 L 1.10 306.30 L 0.30 308.30 L 0.00 310.30 L 0.70 313.20 L 3.10 316.30 L 5.30 318.10 L 8.60 320.00 L 13.20 322.10 L 23.40 325.20 L 28.90 326.30 L 42.10 327.70 L 50.00 328.00 L 58.30 327.90 L 96.70 326.50 L 110.00 326.40 L 118.90 326.70 L 127.80 327.40 L 136.70 328.60 L 178.70 336.40 L 185.10 337.20 L 191.50 337.40 L 202.50 336.60 L 212.60 334.50 L 220.70 332.10 L 237.30 326.20 L 248.80 323.10 L 256.80 321.60 L 263.60 320.90 L 284.80 320.20 L 289.90 319.20 L 294.20 317.00 L 296.10 315.30 L 299.30 311.50 L 303.70 308.50 L 312.70 304.60 L 333.70 297.50 L 338.40 295.50 L 342.20 293.40 L 344.40 291.70 L 346.00 290.10 L 347.10 288.30 L 347.70 285.50 L 346.70 282.00 L 345.30 279.90 L 342.90 277.20 L 339.20 274.10 L 335.20 271.20 L 322.90 264.00 L 318.10 261.70 L 312.60 259.70 L 306.50 257.80 L 299.60 256.20 L 290.50 254.70 L 280.40 253.50 L 269.40 252.70 L 246.60 252.20 L 234.30 252.50 L 215.80 253.50 L 196.60 255.00 L 177.50 257.10 L 139.70 262.20 L 104.80 268.00 L 62.70 276.40 L 44.20 280.70 L 36.00 283.10 Z" fill="url(#SVGID_1_)" fill-rule="nonzero" group-id="1" node-id="220" stroke="none" target-height="85.2" target-width="347.7" target-x="0" target-y="252.2"></path></g><g node-id="389"><path d="M 221.70 238.70 L 229.50 230.90 L 235.40 224.60 L 240.60 218.50 L 254.60 200.10 L 258.00 196.20 L 261.80 192.50 L 266.50 188.50 L 271.90 184.70 L 279.00 180.20 L 287.10 175.80 L 297.80 170.40 L 308.70 165.30 L 325.20 158.10 L 341.80 152.10 L 363.30 146.30 L 375.30 142.10 L 378.50 141.80 L 381.60 142.10 L 384.60 142.90 L 387.50 144.30 L 390.20 146.30 L 392.70 148.60 L 394.80 151.30 L 396.70 154.50 L 398.20 157.90 L 399.30 161.70 L 399.90 165.70 L 400.00 169.90 L 399.60 174.20 L 398.60 178.80 L 397.10 183.20 L 394.80 187.70 L 391.70 192.40 L 385.90 198.90 L 382.20 202.20 L 372.90 209.40 L 368.80 213.20 L 362.20 220.80 L 357.40 228.40 L 354.60 234.20 L 346.70 255.50 L 344.50 260.10 L 340.80 265.70 L 338.40 268.20 L 335.70 270.40 L 332.50 272.40 L 328.60 274.20 L 324.50 275.60 L 319.50 276.80 L 289.00 281.50 L 244.00 289.70 L 234.30 291.10 L 226.30 291.80 L 221.20 291.90 L 217.10 291.50 L 213.90 290.80 L 211.60 289.90 L 210.00 288.80 L 208.80 287.30 L 208.10 285.60 L 207.70 282.90 L 207.80 276.70 L 208.60 271.80 L 211.60 261.30 L 217.30 247.40 L 221.70 238.70 Z" fill="url(#SVGID_2_)" fill-rule="nonzero" group-id="2" node-id="225" stroke="none" target-height="150.09999" target-width="192.3" target-x="207.7" target-y="141.8"></path><g node-id="395"><g node-id="404"><path d="M 224.20 278.60 L 223.10 277.00 L 281.00 238.80 L 298.50 226.60 L 313.60 215.60 L 320.00 210.60 L 335.70 197.30 L 348.70 187.00 L 385.10 159.90 L 386.20 161.50 L 349.90 188.50 L 336.90 198.80 L 321.20 212.20 L 314.80 217.20 L 299.60 228.20 L 282.10 240.40 L 224.20 278.60 Z" fill="#93b28a" fill-rule="nonzero" group-id="2,8,17" node-id="231" stroke="none" target-height="118.70001" target-width="163.1" target-x="223.1" target-y="159.9"></path></g><g node-id="405"><path d="M 299.20 228.30 L 299.00 226.40 L 332.80 221.40 L 342.80 219.40 L 349.10 217.40 L 350.00 219.10 L 343.60 221.10 L 333.70 223.20 L 322.30 225.10 L 299.20 228.30 Z" fill="#93b28a" fill-rule="nonzero" group-id="2,8,18" node-id="236" stroke="none" target-height="10.900009" target-width="51" target-x="299" target-y="217.4"></path></g><g node-id="406"><g node-id="417"><path d="M 341.20 192.90 L 386.30 178.20 L 387.00 180.10 L 341.80 194.80 Z" fill="#93b28a" fill-rule="nonzero" group-id="2,8,19,30" node-id="243" stroke="none" target-height="16.600006" target-width="45.799988" target-x="341.2" target-y="178.2"></path></g></g><g node-id="407"><path d="M 242.70 266.30 L 242.70 264.30 L 262.50 264.00 L 285.40 263.00 L 294.00 262.30 L 298.70 261.20 L 299.60 262.90 L 297.70 263.50 L 289.30 264.70 L 271.00 265.70 L 242.70 266.30 Z" fill="#93b28a" fill-rule="nonzero" group-id="2,8,20" node-id="249" stroke="none" target-height="5.0999756" target-width="56.90001" target-x="242.7" target-y="261.2"></path></g><path d="M 326.10 207.60 L 324.20 207.40 L 324.80 202.70 L 326.10 194.20 L 328.30 183.90 L 331.20 173.60 L 333.00 168.90 L 334.90 165.20 L 336.40 163.10 L 338.00 161.60 L 339.50 160.70 L 340.20 162.50 L 338.80 163.40 L 337.40 164.90 L 335.90 167.20 L 334.10 171.20 L 332.30 176.40 L 329.40 187.60 L 327.30 198.80 L 326.10 207.60 Z" fill="#93b28a" fill-rule="nonzero" group-id="2,8,21" node-id="254" stroke="none" target-height="46.90001" target-width="16" target-x="324.2" target-y="160.7"></path></g></g><path d="M 312.50 62.50 L 50.90 62.50 L 48.10 62.80 L 45.50 63.50 L 43.00 64.60 L 40.80 66.20 L 39.00 68.00 L 37.40 70.20 L 36.30 72.70 L 35.60 75.30 L 35.30 78.10 L 35.30 242.10 L 35.60 244.90 L 36.30 247.50 L 37.40 250.00 L 39.00 252.20 L 40.80 254.00 L 43.00 255.60 L 45.50 256.70 L 48.10 257.40 L 50.90 257.70 L 174.30 257.70 L 176.90 279.20 L 143.40 279.40 L 142.20 279.90 L 140.50 281.60 L 139.80 284.10 L 140.00 285.40 L 141.20 287.60 L 143.40 288.80 L 144.70 289.00 L 218.90 289.00 L 221.40 288.30 L 223.10 286.60 L 223.80 284.10 L 223.10 281.60 L 221.40 279.90 L 220.20 279.40 L 186.70 279.20 L 189.30 257.70 L 312.70 257.70 L 315.50 257.40 L 318.10 256.70 L 320.60 255.60 L 322.80 254.00 L 324.60 252.20 L 326.20 250.00 L 327.30 247.50 L 328.00 244.90 L 328.30 242.10 L 328.30 78.10 L 328.00 75.30 L 327.20 72.70 L 326.00 70.20 L 324.40 68.00 L 322.60 66.20 L 320.40 64.60 L 318.00 63.50 L 315.30 62.80 L 312.50 62.50 Z" fill="url(#SVGID_3_)" fill-rule="nonzero" node-id="259" stroke="none" target-height="226.5" target-width="293" target-x="35.3" target-y="62.5"></path><g node-id="390"><path d="M 310.30 248.00 L 53.00 248.00 L 50.90 247.70 L 49.00 246.90 L 47.30 245.60 L 46.10 244.00 L 45.30 242.10 L 45.00 240.00 L 45.00 80.30 L 45.30 78.20 L 46.10 76.30 L 47.40 74.70 L 49.00 73.40 L 50.90 72.60 L 53.00 72.30 L 310.30 72.30 L 312.40 72.60 L 314.30 73.40 L 315.90 74.70 L 317.20 76.30 L 318.00 78.20 L 318.30 80.30 L 318.30 240.00 L 318.00 242.10 L 317.20 244.00 L 316.00 245.60 L 314.40 246.90 L 312.50 247.70 L 310.30 248.00 Z" fill="#f7f7f7" fill-rule="nonzero" group-id="3" node-id="263" stroke="none" target-height="175.7" target-width="273.3" target-x="45" target-y="72.3"></path></g><g node-id="391"><g node-id="396"><g node-id="409"><path d="M 186.00 121.10 L 79.70 121.10 L 77.90 120.40 L 77.20 118.60 L 77.40 112.80 L 78.70 111.50 L 186.00 111.30 L 187.80 112.00 L 188.50 113.80 L 188.30 119.60 L 187.00 120.90 L 186.00 121.10 Z" fill="#d3e1e5" fill-rule="nonzero" group-id="4,9,22" node-id="272" stroke="none" target-height="9.799995" target-width="111.3" target-x="77.2" target-y="111.3"></path></g><path d="M 283.60 121.10 L 234.00 121.10 L 232.20 120.40 L 231.50 118.60 L 231.70 112.80 L 233.00 111.50 L 234.00 111.30 L 283.70 111.30 L 284.70 111.50 L 286.00 112.80 L 286.20 118.60 L 285.40 120.40 L 283.60 121.10 Z" fill="#d3e1e5" fill-rule="nonzero" group-id="4,9,23" node-id="277" stroke="none" target-height="9.799995" target-width="54.700012" target-x="231.5" target-y="111.3"></path></g><g node-id="397"><g node-id="411"><path d="M 283.60 167.00 L 234.00 167.00 L 232.20 166.30 L 231.50 164.50 L 231.70 158.70 L 233.00 157.40 L 234.00 157.20 L 283.70 157.20 L 284.70 157.40 L 286.00 158.70 L 286.20 164.50 L 285.40 166.30 L 283.60 167.00 Z" fill="#d3e1e5" fill-rule="nonzero" group-id="4,10,24" node-id="285" stroke="none" target-height="9.800003" target-width="54.700012" target-x="231.5" target-y="157.2"></path></g><g node-id="412"><path d="M 100.10 167.00 L 78.70 166.80 L 77.40 165.50 L 77.20 164.50 L 77.40 158.70 L 78.70 157.40 L 101.10 157.40 L 102.40 158.70 L 102.60 164.50 L 101.90 166.30 L 100.10 167.00 Z" fill="#d3e1e5" fill-rule="nonzero" group-id="4,10,25" node-id="290" stroke="none" target-height="9.600006" target-width="25.400002" target-x="77.2" target-y="157.4"></path></g><g node-id="413"><path d="M 143.10 167.00 L 121.70 166.80 L 120.40 165.50 L 120.20 159.70 L 120.90 157.90 L 122.70 157.20 L 144.10 157.40 L 145.40 158.70 L 145.60 164.50 L 144.90 166.30 L 143.10 167.00 Z" fill="#d3e1e5" fill-rule="nonzero" group-id="4,10,26" node-id="295" stroke="none" target-height="9.800003" target-width="25.40001" target-x="120.2" target-y="157.2"></path></g><path d="M 186.00 167.00 L 164.60 166.80 L 163.30 165.50 L 163.10 159.70 L 163.80 157.90 L 165.60 157.20 L 187.00 157.40 L 188.30 158.70 L 188.50 164.50 L 187.80 166.30 L 186.00 167.00 Z" fill="#d3e1e5" fill-rule="nonzero" group-id="4,10,27" node-id="300" stroke="none" target-height="9.800003" target-width="25.399994" target-x="163.1" target-y="157.2"></path></g><g node-id="398"><g node-id="415"><path d="M 283.60 212.90 L 234.00 212.90 L 232.20 212.20 L 231.50 210.40 L 231.70 204.60 L 233.00 203.30 L 283.70 203.10 L 284.70 203.30 L 286.00 204.60 L 286.20 210.40 L 285.40 212.10 L 283.60 212.90 Z" fill="#d3e1e5" fill-rule="nonzero" group-id="4,11,28" node-id="308" stroke="none" target-height="9.799988" target-width="54.700012" target-x="231.5" target-y="203.1"></path></g><path d="M 186.00 212.90 L 79.70 212.90 L 77.90 212.20 L 77.20 210.40 L 77.40 204.60 L 78.70 203.30 L 186.00 203.10 L 187.80 203.80 L 188.50 205.60 L 188.30 211.30 L 187.00 212.70 L 186.00 212.90 Z" fill="#d3e1e5" fill-rule="nonzero" group-id="4,11,29" node-id="313" stroke="none" target-height="9.799988" target-width="111.3" target-x="77.2" target-y="203.1"></path></g></g><g node-id="392"><path d="M 181.70 114.40 L 176.90 114.70 L 172.40 115.30 L 168.10 116.50 L 163.90 118.00 L 159.90 119.90 L 156.10 122.20 L 152.60 124.80 L 149.40 127.80 L 146.40 131.10 L 143.80 134.60 L 141.50 138.30 L 139.60 142.30 L 138.00 146.50 L 136.90 150.80 L 136.30 155.40 L 136.00 160.10 L 136.30 164.90 L 136.90 169.40 L 138.10 173.70 L 139.60 177.90 L 141.50 181.90 L 143.80 185.70 L 146.40 189.20 L 149.40 192.40 L 152.70 195.40 L 156.20 198.00 L 159.90 200.30 L 163.90 202.20 L 168.10 203.80 L 172.40 204.90 L 177.00 205.50 L 181.70 205.80 L 186.50 205.50 L 191.00 204.90 L 195.30 203.70 L 199.50 202.20 L 203.50 200.30 L 207.30 198.00 L 210.80 195.40 L 214.00 192.40 L 217.00 189.10 L 219.60 185.60 L 221.90 181.90 L 223.80 177.90 L 225.40 173.70 L 226.50 169.40 L 227.10 164.80 L 227.40 160.10 L 227.10 155.40 L 226.50 150.80 L 225.30 146.50 L 223.80 142.30 L 221.90 138.30 L 219.60 134.60 L 217.00 131.10 L 214.00 127.80 L 210.70 124.80 L 207.20 122.20 L 203.50 119.90 L 199.50 118.00 L 195.30 116.50 L 191.00 115.30 L 186.40 114.70 L 181.70 114.40 Z M 181.70 185.00 L 178.30 184.80 L 175.10 184.10 L 172.00 183.10 L 169.20 181.60 L 166.50 179.80 L 164.20 177.70 L 162.10 175.40 L 160.30 172.70 L 158.80 169.90 L 157.80 166.80 L 157.10 163.60 L 156.90 160.20 L 157.10 156.80 L 157.80 153.60 L 158.80 150.50 L 160.30 147.70 L 162.10 145.00 L 164.20 142.70 L 166.50 140.60 L 169.20 138.80 L 172.00 137.30 L 175.10 136.30 L 178.30 135.60 L 181.70 135.40 L 185.10 135.60 L 188.30 136.30 L 191.40 137.30 L 194.20 138.80 L 196.90 140.60 L 199.20 142.70 L 201.30 145.00 L 203.10 147.70 L 204.60 150.50 L 205.60 153.60 L 206.30 156.80 L 206.50 160.20 L 206.30 163.60 L 205.60 166.80 L 204.60 169.90 L 203.10 172.70 L 201.30 175.40 L 199.20 177.70 L 196.90 179.80 L 194.20 181.60 L 191.40 183.10 L 188.30 184.10 L 185.10 184.80 L 181.70 185.00 Z" fill="url(#SVGID_4_)" fill-rule="nonzero" group-id="5" node-id="320" stroke="none" target-height="91.4" target-width="91.399994" target-x="136" target-y="114.4"></path><g node-id="399"><path d="M 194.20 181.60 L 191.10 183.10 L 187.70 184.20 L 184.20 184.80 L 180.50 184.90 L 177.40 184.50 L 171.60 182.80 L 169.00 181.40 L 165.70 179.10 L 163.00 176.30 L 160.60 173.10 L 158.10 167.70 L 157.40 164.70 L 157.00 161.60 L 157.10 157.60 L 157.70 153.90 L 159.50 148.20 L 159.70 146.20 L 159.50 144.10 L 158.80 142.10 L 157.80 140.30 L 156.30 138.70 L 153.80 136.90 L 151.90 136.10 L 149.90 135.70 L 147.80 135.80 L 145.80 136.20 L 144.00 137.10 L 142.30 138.30 L 140.90 139.80 L 139.80 141.80 L 138.20 146.10 L 137.00 150.60 L 136.30 155.40 L 136.00 160.30 L 136.30 165.00 L 137.00 169.40 L 138.10 173.70 L 139.70 177.80 L 141.60 181.80 L 143.90 185.50 L 146.40 189.00 L 149.40 192.20 L 152.60 195.10 L 156.00 197.70 L 159.70 200.00 L 163.70 202.00 L 167.80 203.50 L 172.10 204.70 L 176.50 205.40 L 181.20 205.70 L 185.50 205.50 L 193.80 204.10 L 201.50 201.20 L 205.10 199.30 L 206.90 197.90 L 208.30 196.40 L 209.30 194.50 L 209.90 192.60 L 210.10 190.60 L 209.80 188.50 L 209.20 186.50 L 208.10 184.70 L 206.60 183.00 L 204.30 181.30 L 202.40 180.50 L 200.30 180.20 L 198.20 180.20 L 196.20 180.70 L 194.20 181.60 Z" fill="url(#SVGID_5_)" fill-rule="nonzero" group-id="5,12" node-id="324" stroke="none" target-height="70" target-width="74.100006" target-x="136" target-y="135.7"></path></g><path d="M 188.30 161.80 L 178.40 156.10 L 178.40 167.50 Z" fill="url(#SVGID_6_)" fill-rule="nonzero" group-id="5" node-id="327" stroke="none" target-height="11.399994" target-width="9.900009" target-x="178.4" target-y="156.1"></path></g><g node-id="393"><g node-id="400"><path d="M 11.80 267.50 L 7.90 298.80 L 117.30 298.80 L 111.40 267.50 Z" fill="url(#SVGID_7_)" fill-rule="nonzero" group-id="6,13" node-id="334" stroke="none" target-height="31.299988" target-width="109.4" target-x="7.9" target-y="267.5"></path><path d="M 13.00 267.50 L 11.80 294.90 L 112.50 294.90 L 110.40 267.50 Z" fill="#e7f4e4" fill-rule="nonzero" group-id="6,13" node-id="336" stroke="none" target-height="27.399994" target-width="100.7" target-x="11.8" target-y="267.5"></path><path d="M 13.80 248.00 L 9.90 279.20 L 115.30 279.20 L 109.50 248.00 Z" fill="url(#SVGID_8_)" fill-rule="nonzero" group-id="6,13" node-id="338" stroke="none" target-height="31.200012" target-width="105.4" target-x="9.9" target-y="248"></path><path d="M 14.40 283.40 L 110.10 283.40 L 110.10 284.80 L 14.40 284.80 Z" fill="#c9d8c5" fill-rule="nonzero" group-id="6,13" node-id="340" stroke="none" target-height="1.3999939" target-width="95.7" target-x="14.4" target-y="283.4"></path><path d="M 13.40 289.00 L 111.00 289.00 L 111.00 290.40 L 13.40 290.40 Z" fill="#c9d8c5" fill-rule="nonzero" group-id="6,13" node-id="342" stroke="none" target-height="1.3999939" target-width="97.6" target-x="13.4" target-y="289"></path></g><g node-id="401"><path d="M 9.90 242.20 L 6.00 273.40 L 115.30 273.40 L 109.50 242.20 Z" fill="url(#SVGID_9_)" fill-rule="nonzero" group-id="6,14" node-id="347" stroke="none" target-height="31.199997" target-width="109.3" target-x="6" target-y="242.2"></path><path d="M 11.10 242.20 L 9.90 269.50 L 110.60 269.50 L 108.40 242.20 Z" fill="#e7f4e4" fill-rule="nonzero" group-id="6,14" node-id="349" stroke="none" target-height="27.300003" target-width="100.7" target-x="9.9" target-y="242.2"></path><path d="M 11.80 222.60 L 7.90 253.90 L 113.40 253.90 L 107.50 222.60 Z" fill="url(#SVGID_10_)" fill-rule="nonzero" group-id="6,14" node-id="351" stroke="none" target-height="31.299988" target-width="105.5" target-x="7.9" target-y="222.6"></path><path d="M 12.40 258.10 L 108.10 258.10 L 108.10 259.50 L 12.40 259.50 Z" fill="#c9d8c5" fill-rule="nonzero" group-id="6,14" node-id="353" stroke="none" target-height="1.3999939" target-width="95.7" target-x="12.4" target-y="258.1"></path><path d="M 11.40 263.60 L 109.00 263.60 L 109.00 265.00 L 11.40 265.00 Z" fill="#c9d8c5" fill-rule="nonzero" group-id="6,14" node-id="355" stroke="none" target-height="1.3999939" target-width="97.6" target-x="11.4" target-y="263.6"></path></g><g node-id="402"><path d="M 13.80 212.60 L 9.90 243.80 L 119.20 243.80 L 113.40 212.60 Z" fill="url(#SVGID_11_)" fill-rule="nonzero" group-id="6,15" node-id="360" stroke="none" target-height="31.199997" target-width="109.299995" target-x="9.9" target-y="212.6"></path><path d="M 15.00 212.60 L 13.80 239.90 L 114.50 239.90 L 112.30 212.60 Z" fill="#e7f4e4" fill-rule="nonzero" group-id="6,15" node-id="362" stroke="none" target-height="27.299988" target-width="100.7" target-x="13.8" target-y="212.6"></path><path d="M 15.70 193.10 L 11.80 224.30 L 117.30 224.30 L 111.40 193.10 Z" fill="url(#SVGID_12_)" fill-rule="nonzero" group-id="6,15" node-id="364" stroke="none" target-height="31.199997" target-width="105.5" target-x="11.8" target-y="193.1"></path><path d="M 16.30 228.50 L 112.00 228.50 L 112.00 229.90 L 16.30 229.90 Z" fill="#c9d8c5" fill-rule="nonzero" group-id="6,15" node-id="366" stroke="none" target-height="1.3999939" target-width="95.7" target-x="16.3" target-y="228.5"></path><path d="M 15.30 234.10 L 112.90 234.10 L 112.90 235.50 L 15.30 235.50 Z" fill="#c9d8c5" fill-rule="nonzero" group-id="6,15" node-id="368" stroke="none" target-height="1.3999939" target-width="97.6" target-x="15.3" target-y="234.1"></path></g></g><g node-id="394"><path d="M 208.20 264.50 L 214.00 261.70 L 216.60 259.80 L 220.30 256.60 L 227.70 249.60 L 234.20 244.00 L 240.20 240.60 L 243.40 239.30 L 247.00 238.50 L 251.10 238.10 L 255.10 238.20 L 259.80 238.90 L 274.20 243.10 L 298.40 249.00 L 302.50 250.50 L 307.20 253.20 L 311.00 257.20 L 312.90 259.90 L 317.40 268.30 L 326.40 282.10 L 327.40 284.60 L 327.50 286.30 L 327.30 288.00 L 326.50 289.80 L 323.40 293.40 L 309.90 304.40 L 306.70 306.60 L 303.30 308.40 L 299.10 309.90 L 294.40 311.00 L 287.90 311.70 L 280.60 312.10 L 252.90 311.70 L 234.90 311.30 L 218.60 310.20 L 209.30 308.60 L 203.00 306.50 L 201.00 305.40 L 198.20 302.80 L 196.00 298.20 L 194.90 292.40 L 195.10 286.10 L 195.90 281.40 L 197.30 276.80 L 200.10 271.40 L 203.70 267.10 L 205.90 265.60 L 208.20 264.50 Z" fill="url(#SVGID_13_)" fill-rule="nonzero" group-id="7" node-id="374" stroke="none" target-height="74" target-width="132.6" target-x="194.9" target-y="238.1"></path><g node-id="403"><path d="M 264.00 275.90 L 264.00 255.00 L 263.80 253.80 L 263.10 252.80 L 262.10 252.10 L 260.90 251.90 L 259.70 252.10 L 258.70 252.80 L 258.00 253.80 L 257.80 255.00 L 257.80 276.00 L 248.90 271.10 L 261.20 288.60 L 273.50 271.10 L 264.00 275.90 Z" fill="#ebf2f7" fill-rule="nonzero" group-id="7,16" node-id="378" stroke="none" target-height="36.700012" target-width="24.600006" target-x="248.9" target-y="251.9"></path><path d="M 272.30 298.20 L 249.40 298.10 L 248.70 297.40 L 248.60 296.80 L 248.70 293.40 L 249.40 292.70 L 272.80 292.70 L 273.50 293.40 L 273.60 296.80 L 273.30 297.80 L 272.30 298.20 Z" fill="#ebf2f7" fill-rule="nonzero" group-id="7,16" node-id="380" stroke="none" target-height="5.5" target-width="25" target-x="248.6" target-y="292.7"></path></g></g><path d="M 206.50 267.50 L 210.00 263.80 L 205.90 265.60 L 203.80 267.10 L 201.80 269.10 L 198.60 273.90 L 197.30 276.80 L 195.90 281.40 L 195.10 286.10 L 194.80 289.40 L 195.30 295.30 L 196.90 300.70 L 198.10 302.80 L 199.80 304.60 L 199.20 289.40 L 199.90 280.70 L 201.60 274.60 L 202.90 271.80 L 204.50 269.50 L 206.50 267.50 Z" fill="url(#SVGID_14_)" fill-rule="nonzero" node-id="384" stroke="none" target-height="40.80002" target-width="15.199997" target-x="194.8" target-y="263.8"></path><path d="M 196.70 255.20 L 166.70 255.20 L 166.00 254.90 L 165.70 254.20 L 165.80 251.90 L 166.70 251.30 L 196.70 251.30 L 197.40 251.60 L 197.70 252.30 L 197.70 254.20 L 197.40 254.90 L 196.70 255.20 Z" fill="url(#SVGID_15_)" fill-rule="nonzero" node-id="386" stroke="none" target-height="3.899994" target-width="32" target-x="165.7" target-y="251.3"></path></svg>