<?xml version="1.0" standalone="no"?><!DOCTYPE svg PUBLIC "-//W3C//DTD SVG 1.1//EN" "http://www.w3.org/Graphics/SVG/1.1/DTD/svg11.dtd"><svg height="1024" node-id="1" sillyvg="true" template-height="1024" template-width="1152" version="1.1" viewBox="0 0 1152 1024" width="1152" xmlns="http://www.w3.org/2000/svg" xmlns:xlink="http://www.w3.org/1999/xlink"><defs node-id="40"><linearGradient gradientUnits="objectBoundingBox" id="paint0_linear_1608_18861" node-id="33" spreadMethod="pad" x1="1062.77" x2="981.496" y1="126.204" y2="126.204"><stop offset="0" stop-color="#b69cf8"></stop><stop offset="1" stop-color="#859be9"></stop></linearGradient><linearGradient gradientUnits="objectBoundingBox" id="paint1_linear_1608_18861" node-id="36" spreadMethod="pad" x1="156.44" x2="499.012" y1="839.727" y2="839.727"><stop offset="0" stop-color="#a185e9"></stop><stop offset="1" stop-color="#ed81ff"></stop></linearGradient></defs><path d="M 483.60 170.70 L 28.40 170.70 L 24.50 170.90 L 20.90 171.70 L 17.40 172.90 L 14.10 174.60 L 11.10 176.60 L 8.30 179.00 L 5.90 181.70 L 3.90 184.70 L 2.20 188.00 L 1.00 191.50 L 0.30 195.20 L 0.00 199.10 L 0.00 711.10 L 0.30 715.00 L 1.00 718.70 L 2.20 722.20 L 3.90 725.50 L 5.90 728.50 L 8.30 731.20 L 11.10 733.60 L 14.10 735.70 L 17.40 737.30 L 20.90 738.50 L 24.50 739.30 L 28.40 739.60 L 483.60 739.60 L 487.50 739.30 L 491.10 738.50 L 494.60 737.30 L 497.90 735.70 L 500.90 733.60 L 503.70 731.20 L 506.10 728.50 L 508.10 725.50 L 509.80 722.20 L 511.00 718.70 L 511.70 715.00 L 512.00 711.10 L 512.00 199.10 L 511.70 195.20 L 511.00 191.50 L 509.80 188.00 L 508.10 184.70 L 506.10 181.70 L 503.70 179.00 L 500.90 176.60 L 497.90 174.60 L 494.60 172.90 L 491.10 171.70 L 487.50 170.90 L 483.60 170.70 Z" fill="#fbfbfb" fill-rule="nonzero" node-id="55" stroke="none" target-height="568.89996" target-width="512" target-x="0" target-y="170.7"></path><path d="M 668.40 547.20 L 660.10 547.50 L 651.70 547.30 L 643.20 546.50 L 634.70 545.10 L 626.00 543.00 L 617.20 540.30 L 608.20 536.90 L 599.00 532.80 L 589.70 527.90 L 580.10 522.20 L 570.30 515.70 L 560.20 508.30 L 549.90 499.90 L 539.30 490.50 L 499.60 451.90 L 490.60 443.70 L 482.00 436.40 L 473.90 430.10 L 461.40 421.50 L 449.30 414.90 L 443.00 412.30 L 436.60 410.00 L 430.10 408.30 L 423.50 407.00 L 416.80 406.20 L 409.80 405.90 L 402.40 406.10 L 394.50 406.70 L 386.90 407.90 L 378.70 409.50 L 369.80 411.80 L 360.20 414.60 L 347.90 418.90 L 334.00 424.40 L 306.70 436.20 L 295.90 440.30 L 286.10 443.50 L 277.10 446.00 L 267.70 447.90 L 259.10 449.20 L 251.20 449.70 L 244.10 449.70 L 236.80 449.00 L 230.10 447.80 L 223.90 446.10 L 218.20 444.00 L 212.70 441.20 L 207.50 438.10 L 202.70 434.50 L 198.10 430.50 L 189.90 421.50 L 182.50 411.00 L 178.10 403.50 L 173.90 395.60 L 170.00 387.20 L 164.50 374.20 L 154.50 348.70 L 149.60 337.60 L 144.30 327.20 L 138.90 317.50 L 134.10 309.80 L 129.10 302.70 L 124.00 296.20 L 118.60 290.10 L 113.20 284.50 L 107.20 279.20 L 101.10 274.50 L 94.80 270.30 L 88.20 266.60 L 81.30 263.40 L 74.30 260.80 L 66.90 258.80 L 59.20 257.30 L 51.20 256.30 L 42.70 256.00 L 42.70 682.70 L 668.40 682.70 L 668.40 547.20 Z" fill="#d8e5ed" fill-rule="evenodd" node-id="57" stroke="none" target-height="426.7" target-width="625.7" target-x="42.7" target-y="256"></path><path d="M 410.00 414.10 L 416.60 414.40 L 423.00 415.20 L 429.20 416.40 L 435.10 418.00 L 441.80 420.30 L 448.60 423.30 L 455.60 427.00 L 462.30 431.10 L 469.50 436.00 L 477.10 441.90 L 486.70 449.80 L 497.10 459.30 L 536.00 496.90 L 546.80 506.40 L 557.30 514.80 L 567.50 522.30 L 577.50 528.90 L 587.30 534.70 L 596.90 539.60 L 606.30 543.80 L 615.50 547.20 L 624.60 550.00 L 633.50 552.10 L 642.40 553.60 L 651.10 554.40 L 659.80 554.70 L 668.40 554.30 L 667.70 545.10 L 659.70 545.40 L 651.60 545.20 L 643.40 544.40 L 635.10 543.00 L 626.70 541.00 L 618.10 538.40 L 609.40 535.10 L 600.50 531.10 L 591.40 526.40 L 582.00 520.90 L 572.40 514.50 L 562.60 507.30 L 552.50 499.10 L 542.10 490.00 L 503.20 452.40 L 492.50 442.80 L 482.80 434.60 L 474.70 428.40 L 467.10 423.20 L 459.90 418.80 L 452.40 414.90 L 445.00 411.70 L 437.70 409.10 L 430.90 407.30 L 423.80 405.90 L 416.40 405.10 L 408.80 404.80 L 407.60 401.70 L 405.90 398.90 L 403.90 396.40 L 401.60 394.10 L 399.10 392.20 L 396.20 390.60 L 393.10 389.50 L 389.90 388.80 L 386.50 388.50 L 383.30 388.80 L 380.20 389.40 L 377.30 390.40 L 372.10 393.50 L 367.80 397.80 L 364.80 403.10 L 363.80 406.00 L 363.20 409.10 L 362.90 412.40 L 352.40 415.80 L 341.00 420.00 L 329.30 424.70 L 306.40 434.60 L 288.20 441.30 L 272.50 445.50 L 264.40 447.00 L 256.90 448.00 L 249.90 448.40 L 243.40 448.30 L 237.30 447.70 L 231.20 446.60 L 225.40 445.00 L 219.90 443.00 L 214.80 440.50 L 209.90 437.50 L 205.00 433.80 L 200.20 429.60 L 195.60 424.60 L 191.30 419.40 L 187.10 413.40 L 179.80 400.80 L 173.60 387.90 L 158.70 351.00 L 153.80 340.00 L 148.70 329.90 L 143.50 320.60 L 138.20 312.00 L 132.70 304.20 L 127.40 297.40 L 121.90 291.20 L 116.30 285.60 L 110.60 280.50 L 104.80 275.90 L 98.80 271.80 L 92.70 268.20 L 86.20 265.00 L 79.60 262.30 L 72.70 260.10 L 65.60 258.30 L 58.20 257.00 L 50.60 256.30 L 42.70 256.00 L 42.70 265.20 L 50.00 265.50 L 57.00 266.20 L 63.80 267.40 L 70.30 269.00 L 76.60 271.10 L 82.80 273.70 L 88.80 276.60 L 95.30 280.60 L 101.80 285.20 L 108.00 290.40 L 114.20 296.40 L 120.10 303.00 L 126.00 310.50 L 131.10 317.80 L 136.10 325.90 L 141.00 334.70 L 145.80 344.40 L 150.40 354.80 L 165.30 391.90 L 171.80 405.20 L 179.60 418.60 L 184.20 425.10 L 188.90 430.90 L 194.00 436.30 L 199.30 441.10 L 204.90 445.20 L 210.40 448.60 L 216.10 451.40 L 222.20 453.70 L 228.60 455.50 L 235.30 456.70 L 242.00 457.40 L 249.10 457.60 L 256.70 457.20 L 264.80 456.30 L 273.40 454.70 L 281.60 452.80 L 290.30 450.30 L 299.60 447.10 L 309.60 443.30 L 343.70 428.80 L 354.70 424.80 L 364.70 421.50 L 367.70 426.90 L 372.00 431.20 L 374.50 433.00 L 377.20 434.40 L 380.10 435.40 L 383.20 436.10 L 386.50 436.30 L 389.60 436.10 L 392.50 435.50 L 397.90 433.30 L 401.20 431.10 L 403.90 428.50 L 406.30 425.30 L 407.70 422.80 L 409.60 417.20 L 410.00 414.10 Z M 386.50 427.10 L 383.80 426.80 L 381.40 426.10 L 379.20 425.10 L 377.20 423.60 L 375.40 421.90 L 374.00 419.80 L 372.90 417.50 L 372.30 415.10 L 372.00 412.40 L 372.30 409.70 L 372.90 407.30 L 374.00 405.00 L 375.40 403.00 L 377.20 401.20 L 379.20 399.80 L 381.40 398.70 L 383.80 398.00 L 386.50 397.80 L 389.10 398.00 L 391.50 398.70 L 393.80 399.80 L 395.80 401.20 L 397.50 403.00 L 399.00 405.00 L 400.00 407.30 L 400.70 409.70 L 400.90 412.40 L 400.70 415.10 L 400.00 417.50 L 399.00 419.80 L 397.50 421.90 L 395.80 423.60 L 393.80 425.10 L 391.50 426.10 L 389.10 426.80 L 386.50 427.10 Z" fill="#b5d1de" fill-rule="nonzero" node-id="59" stroke="none" target-height="298.7" target-width="625.7" target-x="42.7" target-y="256"></path><path d="M 306.30 284.40 L 217.90 284.40 L 217.90 331.60 L 244.40 331.60 L 244.40 356.00 L 266.50 331.60 L 306.30 331.60 L 306.30 284.40 Z" fill="#d8e5ed" fill-rule="evenodd" node-id="61" stroke="none" target-height="71.600006" target-width="88.399994" target-x="217.9" target-y="284.4"></path><path d="M 184.90 309.70 L 184.90 356.80 L 224.70 356.80 L 246.90 381.30 L 246.90 356.80 L 273.40 356.80 L 273.40 309.70 L 184.90 309.70 Z" fill="#d8cef1" fill-rule="evenodd" node-id="63" stroke="none" target-height="71.599976" target-width="88.5" target-x="184.9" target-y="309.7"></path><path d="M 1084.20 0.00 L 341.30 0.00 L 336.60 0.20 L 327.60 1.70 L 323.40 2.90 L 317.80 5.10 L 312.60 7.80 L 307.70 11.00 L 303.20 14.70 L 299.10 18.80 L 295.40 23.30 L 292.20 28.20 L 289.50 33.40 L 287.30 38.90 L 285.20 47.60 L 284.40 56.90 L 284.40 853.30 L 285.20 862.60 L 287.30 871.30 L 289.50 876.90 L 292.20 882.10 L 295.40 886.90 L 299.10 891.50 L 303.20 895.60 L 307.70 899.20 L 312.60 902.50 L 317.80 905.10 L 323.40 907.30 L 327.60 908.60 L 336.60 910.00 L 1084.20 910.20 L 1089.00 910.00 L 1097.90 908.60 L 1102.20 907.30 L 1107.80 905.10 L 1113.00 902.50 L 1117.80 899.20 L 1122.40 895.60 L 1126.50 891.50 L 1130.10 886.90 L 1133.40 882.10 L 1136.00 876.90 L 1138.20 871.30 L 1140.40 862.60 L 1141.10 853.30 L 1140.90 52.20 L 1139.50 43.20 L 1138.20 38.90 L 1136.00 33.40 L 1133.40 28.20 L 1130.10 23.30 L 1126.50 18.80 L 1122.40 14.70 L 1117.80 11.00 L 1113.00 7.80 L 1107.80 5.10 L 1102.20 2.90 L 1093.50 0.80 L 1084.20 0.00 Z" fill="#ffffff" fill-rule="nonzero" node-id="65" stroke="none" target-height="910.2" target-width="856.69995" target-x="284.4" target-y="0"></path><path d="M 995.70 85.30 L 1048.60 85.30 L 1051.10 85.60 L 1053.50 86.20 L 1055.70 87.30 L 1057.70 88.70 L 1059.40 90.40 L 1060.80 92.40 L 1061.90 94.60 L 1062.50 97.00 L 1062.80 99.60 L 1062.80 152.90 L 1062.50 155.50 L 1061.90 157.80 L 1060.80 160.00 L 1059.40 162.00 L 1057.70 163.70 L 1055.70 165.10 L 1053.50 166.20 L 1051.10 166.80 L 1048.60 167.10 L 995.70 167.10 L 993.10 166.80 L 990.70 166.20 L 988.50 165.10 L 986.50 163.70 L 984.80 162.00 L 983.40 160.00 L 982.40 157.80 L 981.70 155.50 L 981.50 152.90 L 981.50 99.60 L 981.70 97.00 L 982.40 94.60 L 983.40 92.40 L 984.80 90.40 L 986.50 88.70 L 988.50 87.30 L 990.70 86.20 L 993.10 85.60 L 995.70 85.30 Z" fill="url(#paint0_linear_1608_18861)" fill-rule="nonzero" node-id="67" stroke="none" target-height="81.8" target-width="81.30005" target-x="981.5" target-y="85.3"></path><path d="M 654.20 94.40 L 949.00 94.40 L 949.00 115.80 L 654.20 115.80 L 654.20 94.40 Z" fill="#b5d1de" fill-rule="nonzero" node-id="69" stroke="none" target-height="21.400002" target-width="294.8" target-x="654.2" target-y="94.4"></path><path d="M 735.40 138.20 L 949.00 138.20 L 949.00 159.60 L 735.40 159.60 L 735.40 138.20 Z" fill="#b5d1de" fill-rule="nonzero" node-id="71" stroke="none" target-height="21.40001" target-width="213.59998" target-x="735.4" target-y="138.2"></path><path d="M 611.90 512.00 L 519.30 512.00 L 519.30 531.90 L 611.90 531.90 L 611.90 512.00 Z" fill="#d8e5ed" fill-rule="nonzero" node-id="73" stroke="none" target-height="19.900024" target-width="92.60004" target-x="519.3" target-y="512"></path><path d="M 495.90 512.00 L 469.30 512.00 L 469.30 531.90 L 495.90 531.90 L 495.90 512.00 Z" fill="#d8e5ed" fill-rule="nonzero" node-id="75" stroke="none" target-height="19.900024" target-width="26.600006" target-x="469.3" target-y="512"></path><path d="M 794.10 512.00 L 701.40 512.00 L 701.40 531.90 L 794.10 531.90 L 794.10 512.00 Z" fill="#d8e5ed" fill-rule="nonzero" node-id="77" stroke="none" target-height="19.900024" target-width="92.69995" target-x="701.4" target-y="512"></path><path d="M 678.00 512.00 L 651.40 512.00 L 651.40 531.90 L 678.00 531.90 L 678.00 512.00 Z" fill="#d8e5ed" fill-rule="nonzero" node-id="79" stroke="none" target-height="19.900024" target-width="26.599976" target-x="651.4" target-y="512"></path><path d="M 981.10 512.00 L 888.50 512.00 L 888.50 531.90 L 981.10 531.90 L 981.10 512.00 Z" fill="#d8e5ed" fill-rule="nonzero" node-id="81" stroke="none" target-height="19.900024" target-width="92.599976" target-x="888.5" target-y="512"></path><path d="M 865.00 512.00 L 838.50 512.00 L 838.50 531.90 L 865.00 531.90 L 865.00 512.00 Z" fill="#d8e5ed" fill-rule="nonzero" node-id="83" stroke="none" target-height="19.900024" target-width="26.5" target-x="838.5" target-y="512"></path><path d="M 355.60 241.80 L 355.80 239.20 L 356.40 236.80 L 357.50 234.60 L 358.90 232.60 L 360.60 230.90 L 362.60 229.50 L 364.80 228.40 L 367.20 227.80 L 369.80 227.60 L 1052.40 227.60 L 1055.00 227.80 L 1057.40 228.40 L 1059.60 229.50 L 1061.60 230.90 L 1063.30 232.60 L 1064.70 234.60 L 1065.80 236.80 L 1066.40 239.20 L 1066.70 241.80 L 1066.70 440.90 L 1066.40 443.50 L 1065.80 445.90 L 1064.70 448.10 L 1063.30 450.10 L 1061.60 451.80 L 1059.60 453.20 L 1057.40 454.20 L 1055.00 454.90 L 1052.40 455.10 L 369.80 455.10 L 367.20 454.90 L 364.80 454.20 L 362.60 453.20 L 360.60 451.80 L 358.90 450.10 L 357.50 448.10 L 356.40 445.90 L 355.80 443.50 L 355.60 440.90 L 355.60 241.80 Z" fill="#d8e5ed" fill-rule="evenodd" node-id="85" stroke="none" target-height="227.5" target-width="711.1" target-x="355.6" target-y="227.6"></path><path d="M 471.10 407.00 L 476.50 406.80 L 481.70 406.20 L 486.80 405.20 L 496.50 402.10 L 505.40 397.70 L 509.50 395.00 L 517.10 388.80 L 523.60 381.50 L 526.40 377.50 L 531.00 369.00 L 532.80 364.40 L 534.30 359.70 L 535.30 354.90 L 535.90 349.90 L 536.20 344.70 L 535.90 339.50 L 535.30 334.50 L 534.30 329.70 L 532.80 325.00 L 531.00 320.40 L 526.40 311.90 L 523.60 307.90 L 517.10 300.60 L 509.50 294.40 L 505.40 291.70 L 496.50 287.30 L 486.80 284.20 L 481.70 283.20 L 471.10 282.40 L 465.70 282.60 L 460.50 283.20 L 455.50 284.20 L 445.80 287.30 L 436.90 291.70 L 432.70 294.40 L 425.10 300.60 L 418.60 307.90 L 415.80 311.90 L 411.20 320.40 L 409.40 325.00 L 408.00 329.70 L 406.90 334.50 L 406.30 339.50 L 406.10 344.70 L 406.30 349.90 L 406.90 354.90 L 408.00 359.70 L 409.40 364.40 L 411.20 369.00 L 415.80 377.50 L 418.60 381.50 L 425.10 388.80 L 432.70 395.00 L 436.90 397.70 L 445.80 402.10 L 455.50 405.20 L 460.50 406.20 L 465.70 406.80 L 471.10 407.00 Z" fill="#baa1fa" fill-rule="nonzero" node-id="87" stroke="none" target-height="124.600006" target-width="130.1" target-x="406.1" target-y="282.4"></path><path d="M 470.60 407.00 L 470.60 344.70 L 423.00 302.70 L 419.20 307.00 L 415.90 311.60 L 413.00 316.50 L 410.60 321.80 L 408.70 327.20 L 407.30 332.80 L 406.40 338.60 L 406.10 344.70 L 406.30 349.90 L 406.90 354.90 L 408.00 359.70 L 411.20 369.00 L 415.70 377.50 L 421.60 385.30 L 428.60 392.00 L 436.60 397.70 L 445.50 402.10 L 455.10 405.20 L 465.30 406.80 L 470.60 407.00 Z" fill="#859be9" fill-rule="evenodd" node-id="89" stroke="none" target-height="104.29999" target-width="64.5" target-x="406.1" target-y="302.7"></path><path d="M 470.60 344.20 L 470.60 407.00 L 476.10 406.80 L 481.30 406.20 L 486.40 405.20 L 496.20 402.10 L 505.10 397.60 L 509.30 394.90 L 517.00 388.70 L 523.50 381.40 L 526.30 377.40 L 531.00 368.80 L 532.80 364.20 L 534.30 359.40 L 535.30 354.60 L 535.90 349.50 L 536.20 344.30 L 470.60 344.20 Z" fill="#ed81ff" fill-rule="evenodd" node-id="91" stroke="none" target-height="62.799988" target-width="65.600006" target-x="470.6" target-y="344.2"></path><path d="M 575.30 283.30 L 1012.10 283.30 L 1012.10 305.40 L 575.30 305.40 L 575.30 283.30 Z" fill="#ffffff" fill-rule="evenodd" node-id="93" stroke="none" target-height="22.100006" target-width="436.8" target-x="575.3" target-y="283.3"></path><path d="M 575.30 283.30 L 749.90 283.30 L 749.90 305.40 L 575.30 305.40 L 575.30 283.30 Z" fill="#baa1fa" fill-rule="evenodd" node-id="95" stroke="none" target-height="22.100006" target-width="174.60004" target-x="575.3" target-y="283.3"></path><path d="M 575.50 377.10 L 1012.30 377.10 L 1012.30 400.10 L 575.50 400.10 L 575.50 377.10 Z" fill="#ffffff" fill-rule="evenodd" node-id="97" stroke="none" target-height="23" target-width="436.8" target-x="575.5" target-y="377.1"></path><path d="M 575.50 377.10 L 794.10 377.10 L 794.10 400.10 L 575.50 400.10 L 575.50 377.10 Z" fill="#859be9" fill-rule="evenodd" node-id="99" stroke="none" target-height="23" target-width="218.59998" target-x="575.5" target-y="377.1"></path><path d="M 575.50 331.60 L 1012.30 331.60 L 1012.30 354.60 L 575.50 354.60 L 575.50 331.60 Z" fill="#ffffff" fill-rule="evenodd" node-id="101" stroke="none" target-height="23" target-width="436.8" target-x="575.5" target-y="331.6"></path><path d="M 575.50 331.60 L 844.30 331.60 L 844.30 354.60 L 575.50 354.60 L 575.50 331.60 Z" fill="#ed81ff" fill-rule="evenodd" node-id="103" stroke="none" target-height="23" target-width="268.8" target-x="575.5" target-y="331.6"></path><path d="M 355.60 809.00 L 361.20 792.90 L 366.90 778.30 L 372.70 765.10 L 378.50 753.10 L 384.30 742.40 L 390.10 732.80 L 396.00 724.30 L 401.80 716.70 L 407.70 710.00 L 413.50 704.20 L 419.40 699.10 L 425.30 694.70 L 431.30 691.00 L 437.20 687.90 L 443.30 685.40 L 449.40 683.50 L 455.60 682.20 L 464.40 680.90 L 472.30 680.30 L 479.40 680.20 L 486.50 680.50 L 498.70 681.90 L 507.10 683.50 L 521.10 686.70 L 531.00 688.30 L 534.60 688.30 L 538.00 687.90 L 541.20 687.00 L 544.50 685.50 L 547.80 683.20 L 550.80 680.50 L 554.10 676.70 L 563.60 662.60 L 570.10 653.90 L 574.70 648.30 L 579.50 643.20 L 584.40 638.50 L 589.70 634.20 L 595.10 630.60 L 600.50 627.60 L 604.80 625.80 L 609.20 624.50 L 613.60 623.60 L 618.20 623.30 L 622.70 623.40 L 627.40 624.20 L 632.30 625.50 L 637.40 627.60 L 642.10 630.00 L 647.10 633.30 L 652.30 637.40 L 662.10 646.40 L 666.00 649.40 L 669.60 651.70 L 672.90 653.40 L 676.50 654.70 L 680.00 655.40 L 683.30 655.70 L 686.40 655.50 L 690.60 654.70 L 694.70 653.20 L 698.80 651.10 L 706.60 645.50 L 716.30 636.40 L 733.90 617.90 L 740.00 612.10 L 746.20 606.90 L 750.60 603.80 L 755.00 601.20 L 759.60 599.20 L 763.70 597.90 L 767.60 597.20 L 771.30 596.90 L 774.90 597.20 L 782.10 598.90 L 789.10 602.30 L 793.60 605.20 L 798.10 608.70 L 802.70 612.70 L 809.20 619.30 L 836.40 650.20 L 843.60 657.90 L 853.70 667.40 L 858.90 671.70 L 862.20 673.80 L 865.10 675.30 L 867.90 676.10 L 870.40 676.40 L 873.00 676.30 L 875.50 675.70 L 878.00 674.70 L 880.50 673.20 L 883.50 670.80 L 886.60 667.80 L 889.70 664.00 L 894.20 657.90 L 913.40 628.40 L 918.80 621.20 L 922.70 616.70 L 926.70 612.50 L 930.90 608.80 L 934.30 606.30 L 941.50 602.30 L 945.30 600.80 L 949.20 599.70 L 953.40 599.10 L 957.80 598.90 L 967.30 599.50 L 975.40 599.20 L 978.80 598.50 L 983.30 597.00 L 987.30 595.10 L 990.90 592.70 L 994.10 589.90 L 997.10 586.80 L 999.90 583.30 L 1003.70 577.70 L 1007.20 571.60 L 1017.70 552.60 L 1021.70 546.70 L 1024.60 542.90 L 1027.80 539.40 L 1031.30 536.20 L 1035.10 533.40 L 1039.40 531.00 L 1044.30 529.00 L 1052.10 527.00 L 1061.70 526.20 L 1061.70 810.70 L 355.60 809.00 Z" fill="#b69cf8" fill-rule="evenodd" node-id="105" stroke="none" target-height="284.5" target-width="706.1" target-x="355.6" target-y="526.2"></path><path d="M 355.60 809.00 L 358.80 798.10 L 362.30 788.30 L 366.10 779.50 L 370.10 771.50 L 374.40 764.40 L 379.00 758.00 L 383.70 752.30 L 388.70 747.30 L 394.00 743.00 L 399.50 739.20 L 405.20 735.90 L 411.30 733.20 L 417.70 731.00 L 424.40 729.40 L 431.50 728.30 L 439.10 727.80 L 447.10 727.90 L 468.40 729.90 L 479.30 730.40 L 488.50 730.30 L 495.60 729.90 L 507.40 728.00 L 517.20 724.90 L 521.60 722.90 L 525.60 720.70 L 529.10 718.30 L 533.40 714.50 L 537.40 710.40 L 540.80 705.90 L 546.90 695.80 L 549.60 690.10 L 560.50 665.20 L 563.90 659.00 L 567.70 653.00 L 571.90 647.30 L 576.50 642.10 L 581.40 637.40 L 585.30 634.10 L 589.40 631.30 L 598.00 626.70 L 602.50 625.00 L 607.10 623.70 L 611.80 623.00 L 616.70 622.70 L 621.50 623.00 L 626.40 623.80 L 631.60 625.30 L 636.90 627.40 L 641.80 630.00 L 647.00 633.30 L 652.30 637.50 L 657.90 642.60 L 688.30 672.50 L 697.60 681.10 L 709.70 691.30 L 721.10 699.30 L 726.50 702.30 L 731.60 704.60 L 735.50 705.90 L 739.30 706.70 L 742.90 707.10 L 746.30 707.00 L 749.70 706.30 L 753.00 705.20 L 756.30 703.40 L 759.60 701.10 L 780.40 683.60 L 793.50 674.10 L 804.60 667.80 L 810.40 665.20 L 816.20 663.30 L 822.10 661.90 L 826.60 661.40 L 831.10 661.30 L 835.70 661.60 L 840.30 662.50 L 844.80 663.80 L 849.30 665.70 L 854.00 668.30 L 863.60 674.90 L 868.10 677.70 L 876.90 681.60 L 881.30 682.90 L 886.90 684.10 L 892.40 684.60 L 897.90 684.60 L 903.30 684.10 L 908.70 683.00 L 914.00 681.50 L 919.30 679.60 L 924.60 677.20 L 931.30 673.60 L 937.90 669.40 L 944.50 664.70 L 950.70 659.60 L 956.70 654.20 L 966.90 644.40 L 971.40 640.70 L 980.60 634.40 L 985.50 631.90 L 990.50 629.80 L 995.40 628.20 L 1000.50 627.10 L 1005.60 626.50 L 1010.70 626.50 L 1015.80 627.00 L 1021.10 628.10 L 1026.10 629.70 L 1031.10 632.10 L 1036.20 635.10 L 1041.40 638.90 L 1046.20 643.10 L 1050.90 648.10 L 1055.80 654.10 L 1060.70 661.10 L 1060.70 810.70 L 355.60 809.00 Z" fill="#859be9" fill-rule="evenodd" node-id="107" stroke="none" target-height="188" target-width="705.1" target-x="355.6" target-y="622.7"></path><path d="M 327.70 1011.00 L 337.20 1010.70 L 346.50 1010.00 L 355.60 1008.80 L 364.50 1007.10 L 373.30 1004.90 L 381.90 1002.30 L 390.30 999.20 L 398.50 995.80 L 406.50 991.90 L 414.20 987.60 L 421.70 983.00 L 428.90 978.00 L 435.80 972.60 L 442.50 966.90 L 448.80 960.80 L 454.90 954.50 L 460.60 947.80 L 465.90 940.90 L 471.00 933.70 L 475.60 926.20 L 479.90 918.50 L 483.80 910.50 L 487.20 902.30 L 490.30 893.90 L 492.90 885.30 L 495.10 876.50 L 496.80 867.60 L 498.00 858.50 L 498.70 849.20 L 499.00 839.70 L 498.70 830.20 L 498.00 820.90 L 496.80 811.80 L 495.10 802.90 L 492.90 794.20 L 490.30 785.50 L 487.20 777.10 L 483.80 768.90 L 479.90 761.00 L 475.60 753.30 L 471.00 745.80 L 465.90 738.50 L 460.60 731.60 L 454.90 725.00 L 448.80 718.60 L 442.50 712.60 L 435.80 706.90 L 428.90 701.50 L 421.70 696.50 L 414.20 691.80 L 406.50 687.60 L 398.50 683.70 L 390.30 680.30 L 381.90 677.20 L 373.30 674.60 L 364.50 672.40 L 355.60 670.70 L 346.50 669.50 L 337.20 668.70 L 327.70 668.40 L 318.20 668.70 L 308.90 669.50 L 299.80 670.70 L 290.90 672.40 L 282.20 674.60 L 273.50 677.20 L 265.10 680.30 L 256.90 683.70 L 249.00 687.60 L 241.30 691.80 L 233.80 696.50 L 226.50 701.50 L 219.60 706.90 L 213.00 712.60 L 206.60 718.60 L 200.60 725.00 L 194.90 731.60 L 189.50 738.50 L 184.50 745.80 L 179.80 753.30 L 175.60 761.00 L 171.70 768.90 L 168.30 777.10 L 165.20 785.50 L 162.60 794.20 L 160.40 802.90 L 158.70 811.80 L 157.50 820.90 L 156.70 830.20 L 156.40 839.70 L 156.70 849.20 L 157.50 858.50 L 158.70 867.60 L 160.40 876.50 L 162.60 885.30 L 165.20 893.90 L 168.30 902.30 L 171.70 910.50 L 175.60 918.50 L 179.80 926.20 L 184.50 933.70 L 189.50 940.90 L 194.90 947.80 L 200.60 954.50 L 206.60 960.80 L 213.00 966.90 L 219.60 972.60 L 226.50 978.00 L 233.80 983.00 L 241.30 987.60 L 249.00 991.90 L 256.90 995.80 L 265.10 999.20 L 273.50 1002.30 L 282.20 1004.90 L 290.90 1007.10 L 299.80 1008.80 L 308.90 1010.00 L 318.20 1010.70 L 327.70 1011.00 Z" fill="url(#paint1_linear_1608_18861)" fill-rule="nonzero" node-id="109" stroke="none" target-height="342.59998" target-width="342.6" target-x="156.4" target-y="668.4"></path><path d="M 378.10 787.20 L 376.40 787.60 L 373.30 789.20 L 371.00 792.00 L 369.90 795.30 L 369.80 797.10 L 370.70 800.60 L 372.80 803.50 L 374.20 804.60 L 377.50 805.90 L 379.30 806.10 L 403.00 806.10 L 403.00 900.90 L 251.30 900.90 L 251.30 806.10 L 276.80 805.90 L 280.20 804.50 L 282.90 801.80 L 284.30 798.50 L 284.40 796.60 L 284.30 794.70 L 282.90 791.30 L 280.20 788.70 L 276.80 787.30 L 251.30 787.10 L 246.40 787.80 L 244.00 788.60 L 239.70 791.00 L 237.80 792.70 L 234.80 796.60 L 233.70 798.80 L 232.50 803.60 L 232.50 903.40 L 233.70 908.10 L 234.80 910.40 L 237.80 914.30 L 239.70 915.90 L 244.00 918.40 L 248.80 919.70 L 403.00 919.80 L 407.90 919.20 L 410.20 918.40 L 412.50 917.30 L 416.40 914.30 L 418.00 912.40 L 420.50 908.10 L 421.80 903.40 L 421.80 803.60 L 420.50 798.80 L 418.00 794.50 L 414.50 791.00 L 410.20 788.60 L 405.40 787.30 L 403.00 787.10 L 378.10 787.20 Z" fill="#ffffff" fill-rule="nonzero" node-id="111" stroke="none" target-height="132.70001" target-width="189.29999" target-x="232.5" target-y="787.1"></path><path d="M 330.70 856.50 L 327.10 857.30 L 323.50 856.50 L 321.80 855.70 L 319.20 853.10 L 317.80 849.60 L 317.60 771.90 L 289.40 771.90 L 288.00 771.70 L 286.70 771.00 L 285.60 770.00 L 285.00 768.70 L 284.70 767.30 L 284.90 765.80 L 285.50 764.50 L 286.50 763.40 L 324.40 734.50 L 327.40 733.90 L 329.00 734.00 L 331.70 735.30 L 368.60 763.40 L 370.10 765.40 L 370.40 766.60 L 370.40 767.80 L 369.50 770.10 L 367.40 771.60 L 365.70 771.90 L 336.60 771.90 L 336.60 847.80 L 335.90 851.40 L 335.00 853.10 L 332.40 855.70 L 330.70 856.50 Z" fill="#ffffff" fill-rule="nonzero" node-id="113" stroke="none" target-height="123.39996" target-width="85.69998" target-x="284.7" target-y="733.9"></path></svg>