<?xml version="1.0" standalone="no"?><!DOCTYPE svg PUBLIC "-//W3C//DTD SVG 1.1//EN" "http://www.w3.org/Graphics/SVG/1.1/DTD/svg11.dtd"><svg height="1263" node-id="1" sillyvg="true" template-height="1263" template-width="1290" version="1.1" viewBox="0 0 1290 1263" width="1290" xmlns="http://www.w3.org/2000/svg" xmlns:xlink="http://www.w3.org/1999/xlink"><defs node-id="109"><linearGradient gradientUnits="objectBoundingBox" id="paint0_linear_1719_18970" node-id="51" spreadMethod="pad" x1="902.124" x2="902.124" y1="331.053" y2="1020"><stop offset="0.02" stop-color="#bfd1ff"></stop><stop offset="1" stop-color="#ffffff"></stop></linearGradient><linearGradient gradientUnits="objectBoundingBox" id="paint1_linear_1719_18970" node-id="54" spreadMethod="pad" x1="786.124" x2="786.124" y1="365.824" y2="937.614"><stop offset="0.02" stop-color="#2575f2"></stop><stop offset="1" stop-color="#6a11c1"></stop></linearGradient><linearGradient gradientUnits="objectBoundingBox" id="paint2_linear_1719_18970" node-id="57" spreadMethod="pad" x1="666.61" x2="666.61" y1="465.836" y2="1106.82"><stop offset="0.02" stop-color="#bfd1ff"></stop><stop offset="1" stop-color="#ffffff"></stop></linearGradient><linearGradient gradientUnits="objectBoundingBox" id="paint3_linear_1719_18970" node-id="60" spreadMethod="pad" x1="553.784" x2="803.095" y1="507.518" y2="695.289"><stop offset="0" stop-color="#8b87ff"></stop><stop offset="1" stop-color="#f68bc6"></stop></linearGradient><linearGradient gradientUnits="objectBoundingBox" id="paint4_linear_1719_18970" node-id="63" spreadMethod="pad" x1="451.075" x2="508.382" y1="494.869" y2="521.794"><stop offset="0" stop-color="#8b87ff"></stop><stop offset="1" stop-color="#f68bc6"></stop></linearGradient><linearGradient gradientUnits="objectBoundingBox" id="paint5_linear_1719_18970" node-id="66" spreadMethod="pad" x1="553.784" x2="803.095" y1="627.518" y2="815.289"><stop offset="0" stop-color="#8b87ff"></stop><stop offset="1" stop-color="#f68bc6"></stop></linearGradient><linearGradient gradientUnits="objectBoundingBox" id="paint6_linear_1719_18970" node-id="69" spreadMethod="pad" x1="451.075" x2="508.382" y1="614.869" y2="641.794"><stop offset="0" stop-color="#8b87ff"></stop><stop offset="1" stop-color="#f68bc6"></stop></linearGradient><linearGradient gradientUnits="objectBoundingBox" id="paint7_linear_1719_18970" node-id="72" spreadMethod="pad" x1="524.166" x2="588.342" y1="448.399" y2="450.996"><stop offset="0" stop-color="#3c54e2"></stop><stop offset="1" stop-color="#f582c2"></stop></linearGradient><linearGradient gradientUnits="objectBoundingBox" id="paint8_linear_1719_18970" node-id="75" spreadMethod="pad" x1="720.553" x2="771.004" y1="553.675" y2="553.675"><stop offset="0" stop-color="#e967cd"></stop><stop offset="1" stop-color="#e967cd"></stop></linearGradient><linearGradient gradientUnits="objectBoundingBox" id="paint9_linear_1719_18970" node-id="78" spreadMethod="pad" x1="574.765" x2="728.121" y1="518.287" y2="518.287"><stop offset="0" stop-color="#6571e1"></stop><stop offset="1" stop-color="#f687c4"></stop></linearGradient><linearGradient gradientUnits="objectBoundingBox" id="paint10_linear_1719_18970" node-id="81" spreadMethod="pad" x1="299.8" x2="299.8" y1="790.616" y2="451.665"><stop offset="0" stop-color="#a278de"></stop><stop offset="1" stop-color="#c7daff"></stop></linearGradient><linearGradient gradientUnits="objectBoundingBox" id="paint11_linear_1719_18970" node-id="84" spreadMethod="pad" x1="57.0022" x2="510.522" y1="845.67" y2="718.669"><stop offset="0.02" stop-color="#2575f2"></stop><stop offset="1" stop-color="#b881ff"></stop></linearGradient><linearGradient gradientUnits="objectBoundingBox" id="paint12_linear_1719_18970" node-id="87" spreadMethod="pad" x1="70.9066" x2="126.026" y1="510.442" y2="510.442"><stop offset="0" stop-color="#e967cd"></stop><stop offset="0.1594" stop-color="#eb6fc3"></stop><stop offset="0.4286" stop-color="#f086a9"></stop><stop offset="0.7724" stop-color="#f8aa7e"></stop><stop offset="1" stop-color="#fec55e"></stop></linearGradient><linearGradient gradientUnits="objectBoundingBox" id="paint13_linear_1719_18970" node-id="93" spreadMethod="pad" x1="1042.25" x2="1013.19" y1="739.756" y2="882.338"><stop offset="0" stop-color="#7eaaf7"></stop><stop offset="1" stop-color="#a671da"></stop></linearGradient><linearGradient gradientUnits="objectBoundingBox" id="paint14_linear_1719_18970" node-id="96" spreadMethod="pad" x1="936.519" x2="1087.07" y1="679.587" y2="737.148"><stop offset="0" stop-color="#8b87ff"></stop><stop offset="1" stop-color="#f68bc6"></stop></linearGradient><linearGradient gradientUnits="objectBoundingBox" id="paint15_linear_1719_18970" node-id="99" spreadMethod="pad" x1="873.788" x2="873.788" y1="1128.89" y2="865.978"><stop offset="0" stop-color="#a278de"></stop><stop offset="1" stop-color="#80a8f6"></stop></linearGradient><linearGradient gradientUnits="objectBoundingBox" id="paint16_linear_1719_18970" node-id="102" spreadMethod="pad" x1="629.702" x2="787.999" y1="1051.48" y2="1021.37"><stop offset="0.02" stop-color="#2575f2"></stop><stop offset="1" stop-color="#b881ff"></stop></linearGradient><linearGradient gradientUnits="objectBoundingBox" id="paint17_linear_1719_18970" node-id="105" spreadMethod="pad" x1="378.409" x2="960.983" y1="401.927" y2="370.494"><stop offset="0.02" stop-color="#2575f2"></stop><stop offset="1" stop-color="#6a11c1"></stop></linearGradient></defs><path d="M 1258.00 484.00 L 1257.80 480.10 L 1257.20 476.20 L 1256.10 472.20 L 1253.00 464.40 L 1251.00 460.60 L 1248.70 457.00 L 1243.50 450.60 L 1240.60 447.80 L 1234.50 443.40 L 569.70 65.20 L 566.40 63.50 L 563.40 62.50 L 560.60 62.10 L 558.00 62.10 L 555.50 62.50 L 553.30 63.50 L 551.30 64.90 L 549.50 66.80 L 548.20 68.90 L 547.20 71.60 L 546.50 74.80 L 546.30 78.70 L 546.30 602.40 L 547.10 610.20 L 548.10 614.20 L 551.20 622.00 L 553.30 625.80 L 555.50 629.40 L 560.70 635.80 L 563.70 638.70 L 569.70 643.10 L 1234.50 1021.30 L 1237.90 1022.90 L 1240.90 1023.90 L 1243.70 1024.40 L 1246.20 1024.40 L 1248.80 1023.90 L 1251.00 1023.00 L 1253.00 1021.60 L 1254.70 1019.70 L 1256.00 1017.50 L 1257.10 1014.90 L 1257.70 1011.60 L 1258.00 1007.70 L 1258.00 484.00 Z" fill="url(#paint0_linear_1719_18970)" fill-opacity="0.6" fill-rule="nonzero" node-id="226" stroke="none" target-height="962.30005" target-width="711.7" target-x="546.3" target-y="62.1"></path><path d="M 1142.00 532.00 L 1141.20 524.20 L 1140.10 520.20 L 1137.00 512.40 L 1135.00 508.60 L 1132.70 505.00 L 1127.50 498.60 L 1124.60 495.80 L 1118.50 491.40 L 453.70 113.20 L 450.40 111.50 L 447.40 110.50 L 444.60 110.10 L 442.00 110.10 L 439.50 110.50 L 437.30 111.50 L 435.30 112.90 L 433.50 114.80 L 432.20 116.90 L 431.20 119.60 L 430.50 122.80 L 430.30 126.70 L 430.30 650.40 L 431.10 658.20 L 432.10 662.20 L 435.20 670.00 L 437.30 673.80 L 439.50 677.40 L 444.70 683.80 L 447.70 686.70 L 453.70 691.10 L 1118.50 1069.30 L 1121.90 1070.90 L 1124.90 1071.90 L 1127.70 1072.40 L 1130.20 1072.40 L 1132.80 1071.90 L 1135.00 1071.00 L 1137.00 1069.60 L 1138.70 1067.70 L 1140.00 1065.50 L 1141.10 1062.90 L 1141.70 1059.60 L 1142.00 1055.70 L 1142.00 532.00 Z" fill="url(#paint1_linear_1719_18970)" fill-rule="nonzero" node-id="228" stroke="none" target-height="962.30005" target-width="711.7" target-x="430.3" target-y="110.1"></path><path d="M 1015.50 637.50 L 1014.60 629.70 L 1013.60 625.70 L 1010.50 617.90 L 1008.50 614.10 L 1006.20 610.50 L 1001.00 604.10 L 998.10 601.30 L 992.00 596.90 L 341.20 218.70 L 337.90 217.00 L 334.80 216.00 L 332.10 215.60 L 329.50 215.60 L 327.00 216.00 L 324.70 217.00 L 322.80 218.40 L 321.00 220.30 L 319.70 222.40 L 318.70 225.10 L 318.00 228.30 L 317.70 232.20 L 317.70 686.00 L 318.60 693.70 L 321.00 701.70 L 324.70 709.30 L 329.50 716.30 L 335.10 722.20 L 341.20 726.60 L 992.00 1107.80 L 995.40 1109.40 L 998.40 1110.40 L 1001.20 1110.90 L 1003.70 1110.90 L 1006.30 1110.40 L 1008.50 1109.50 L 1010.50 1108.10 L 1012.20 1106.20 L 1013.50 1104.00 L 1014.50 1101.40 L 1015.20 1098.10 L 1015.50 1094.20 L 1015.50 637.50 Z" fill="url(#paint2_linear_1719_18970)" fill-rule="nonzero" node-id="230" stroke="none" target-height="895.30005" target-width="697.8" target-x="317.7" target-y="215.6"></path><path d="M 1019.00 597.00 L 1018.20 589.20 L 1017.10 585.20 L 1014.00 577.40 L 1012.00 573.60 L 1009.70 570.00 L 1004.50 563.60 L 1001.60 560.80 L 995.50 556.40 L 338.70 178.20 L 335.40 176.50 L 332.40 175.50 L 329.60 175.10 L 327.00 175.10 L 324.50 175.50 L 322.30 176.50 L 320.30 177.90 L 318.50 179.80 L 317.20 181.90 L 316.20 184.60 L 315.50 187.80 L 315.30 191.70 L 315.30 686.40 L 316.10 694.20 L 317.10 698.20 L 320.20 706.00 L 322.30 709.80 L 324.50 713.40 L 329.70 719.80 L 332.70 722.70 L 338.70 727.10 L 995.50 1105.30 L 998.90 1106.90 L 1001.90 1107.90 L 1004.70 1108.40 L 1007.20 1108.40 L 1009.80 1107.90 L 1012.00 1107.00 L 1014.00 1105.60 L 1015.70 1103.70 L 1017.00 1101.50 L 1018.10 1098.90 L 1018.70 1095.60 L 1019.00 1091.70 L 1019.00 597.00 Z" fill="#ffffff" fill-rule="nonzero" node-id="232" stroke="none" target-height="933.30005" target-width="703.7" target-x="315.3" target-y="175.1"></path><path d="M 479.10 385.90 L 478.50 388.60 L 477.70 389.60 L 476.30 390.90 L 474.50 391.50 L 473.20 391.60 L 470.60 390.90 L 362.10 328.90 L 360.80 327.90 L 359.80 326.70 L 359.20 325.20 L 359.00 323.60 L 359.70 320.70 L 360.50 319.60 L 362.70 318.00 L 365.40 317.50 L 368.20 318.30 L 476.30 381.00 L 478.30 383.10 L 479.10 385.90 Z" fill="#dfe6fd" fill-rule="nonzero" node-id="234" stroke="none" target-height="74.100006" target-width="120.100006" target-x="359" target-y="317.5"></path><path d="M 477.10 419.90 L 476.50 422.60 L 475.70 423.60 L 474.30 424.90 L 472.50 425.50 L 471.20 425.60 L 468.60 424.90 L 360.10 362.90 L 358.80 361.90 L 357.80 360.70 L 357.20 359.20 L 357.00 357.60 L 357.70 354.70 L 358.50 353.60 L 360.70 352.00 L 363.40 351.50 L 366.20 352.30 L 474.30 415.00 L 476.30 417.10 L 477.10 419.90 Z" fill="#dfe6fd" fill-rule="nonzero" node-id="236" stroke="none" target-height="74.100006" target-width="120.100006" target-x="357" target-y="351.5"></path><path d="M 424.60 423.30 L 424.00 425.90 L 423.20 427.00 L 421.80 428.20 L 420.00 428.90 L 418.70 429.00 L 416.10 428.20 L 361.90 397.40 L 359.80 395.30 L 359.00 392.40 L 359.60 389.80 L 360.40 388.70 L 361.80 387.50 L 363.60 386.80 L 364.90 386.70 L 367.50 387.50 L 421.70 418.30 L 423.80 420.40 L 424.60 423.30 Z" fill="#dfe6fd" fill-rule="nonzero" node-id="238" stroke="none" target-height="42.299988" target-width="65.600006" target-x="359" target-y="386.7"></path><path d="M 856.00 660.10 L 856.60 657.50 L 857.40 656.40 L 858.80 655.20 L 860.60 654.50 L 861.90 654.40 L 864.50 655.20 L 973.00 717.20 L 974.30 718.20 L 975.30 719.40 L 975.90 720.90 L 976.10 722.50 L 975.40 725.30 L 974.60 726.50 L 972.40 728.10 L 969.70 728.60 L 966.90 727.80 L 858.80 665.10 L 856.80 663.00 L 856.20 661.60 L 856.00 660.10 Z" fill="#dfe6fd" fill-rule="nonzero" node-id="240" stroke="none" target-height="74.19995" target-width="120.099976" target-x="856" target-y="654.4"></path><path d="M 858.00 626.10 L 858.60 623.50 L 859.40 622.40 L 860.80 621.20 L 863.90 620.40 L 866.50 621.20 L 975.00 683.20 L 976.30 684.20 L 977.30 685.40 L 977.90 686.90 L 978.10 688.50 L 977.40 691.30 L 975.60 693.40 L 973.10 694.50 L 971.70 694.60 L 968.90 693.80 L 860.80 631.10 L 858.80 629.00 L 858.00 626.10 Z" fill="#dfe6fd" fill-rule="nonzero" node-id="242" stroke="none" target-height="74.19995" target-width="120.099976" target-x="858" target-y="620.4"></path><path d="M 910.50 622.80 L 911.10 620.20 L 913.30 617.90 L 915.10 617.20 L 916.40 617.10 L 919.00 617.90 L 973.20 648.70 L 975.30 650.80 L 975.90 652.20 L 976.10 653.70 L 975.50 656.30 L 974.70 657.40 L 973.30 658.60 L 971.50 659.30 L 970.20 659.40 L 967.60 658.60 L 913.40 627.80 L 911.30 625.70 L 910.50 622.80 Z" fill="#dfe6fd" fill-rule="nonzero" node-id="244" stroke="none" target-height="42.30005" target-width="65.599976" target-x="910.5" target-y="617.1"></path><path d="M 525.40 530.80 L 526.10 527.60 L 527.70 525.90 L 530.00 525.40 L 533.10 526.40 L 805.80 684.80 L 809.60 688.30 L 811.10 690.50 L 812.30 692.90 L 813.40 698.00 L 813.40 768.00 L 812.70 771.20 L 811.10 772.90 L 808.90 773.40 L 805.80 772.30 L 533.10 612.60 L 531.00 611.10 L 527.70 607.00 L 526.60 604.70 L 525.40 599.60 L 525.40 530.80 Z" fill="url(#paint3_linear_1719_18970)" fill-rule="nonzero" node-id="246" stroke="none" target-height="248" target-width="288" target-x="525.4" target-y="525.4"></path><path d="M 471.80 503.50 L 468.00 501.70 L 464.70 500.50 L 461.60 500.00 L 458.80 500.10 L 456.00 500.70 L 453.60 501.70 L 451.40 503.30 L 449.50 505.40 L 448.10 507.80 L 447.00 510.70 L 446.30 514.20 L 446.00 518.40 L 446.40 522.80 L 448.30 531.50 L 451.50 539.80 L 453.60 543.80 L 458.60 551.10 L 464.70 557.60 L 468.10 560.40 L 471.80 563.00 L 475.50 564.90 L 478.90 566.00 L 482.00 566.50 L 484.80 566.50 L 487.60 565.90 L 490.00 564.90 L 492.10 563.30 L 494.00 561.10 L 495.50 558.70 L 496.50 555.80 L 497.30 552.30 L 497.50 548.20 L 497.10 543.70 L 495.20 535.00 L 492.00 526.80 L 490.00 522.80 L 487.60 519.00 L 482.00 512.10 L 475.40 506.10 L 471.80 503.50 Z" fill="url(#paint4_linear_1719_18970)" fill-rule="nonzero" node-id="248" stroke="none" target-height="66.5" target-width="51.5" target-x="446" target-y="500"></path><path d="M 546.20 564.10 L 546.50 562.30 L 547.40 560.90 L 548.60 559.90 L 550.10 559.30 L 551.80 559.30 L 553.50 559.90 L 777.90 690.50 L 779.60 692.20 L 780.30 694.60 L 780.00 696.40 L 779.10 697.80 L 777.90 698.80 L 776.30 699.40 L 774.70 699.40 L 773.00 698.80 L 548.60 568.30 L 546.80 566.50 L 546.20 564.10 Z" fill="#ffffff" fill-rule="nonzero" node-id="250" stroke="none" target-height="140.10004" target-width="234.09998" target-x="546.2" target-y="559.3"></path><path d="M 546.20 593.20 L 546.50 591.50 L 547.40 590.10 L 548.60 589.10 L 550.10 588.50 L 551.80 588.50 L 553.50 589.10 L 621.90 629.50 L 623.60 631.30 L 624.20 633.60 L 623.90 635.40 L 623.10 636.80 L 621.80 637.80 L 620.30 638.40 L 618.60 638.40 L 617.00 637.80 L 548.60 597.40 L 546.80 595.60 L 546.20 593.20 Z" fill="#ffffff" fill-rule="nonzero" node-id="252" stroke="none" target-height="49.900024" target-width="78" target-x="546.2" target-y="588.5"></path><path d="M 525.40 650.80 L 526.10 647.60 L 527.70 645.90 L 530.00 645.40 L 533.10 646.40 L 805.80 804.80 L 807.90 806.40 L 809.60 808.30 L 811.10 810.50 L 812.30 812.90 L 813.00 815.40 L 813.40 818.00 L 813.40 888.00 L 812.70 891.20 L 811.10 892.90 L 808.90 893.40 L 805.80 892.30 L 533.10 732.60 L 531.00 731.10 L 529.20 729.20 L 527.70 727.00 L 526.60 724.70 L 525.80 722.20 L 525.40 719.60 L 525.40 650.80 Z" fill="url(#paint5_linear_1719_18970)" fill-rule="nonzero" node-id="254" stroke="none" target-height="248" target-width="288" target-x="525.4" target-y="645.4"></path><path d="M 471.80 623.50 L 468.00 621.70 L 464.70 620.50 L 461.60 620.00 L 458.80 620.10 L 456.00 620.70 L 453.60 621.70 L 451.40 623.30 L 449.50 625.40 L 448.10 627.80 L 447.00 630.70 L 446.30 634.20 L 446.00 638.40 L 446.40 642.80 L 448.30 651.50 L 451.50 659.80 L 453.60 663.80 L 458.60 671.10 L 464.70 677.60 L 468.10 680.40 L 471.80 683.00 L 475.50 684.90 L 478.90 686.00 L 482.00 686.50 L 484.80 686.50 L 487.60 685.90 L 490.00 684.90 L 492.10 683.30 L 494.00 681.10 L 495.50 678.70 L 496.50 675.80 L 497.30 672.30 L 497.50 668.20 L 497.10 663.70 L 495.20 655.00 L 492.00 646.80 L 490.00 642.80 L 487.60 639.00 L 482.00 632.10 L 475.40 626.10 L 471.80 623.50 Z" fill="url(#paint6_linear_1719_18970)" fill-rule="nonzero" node-id="256" stroke="none" target-height="66.5" target-width="51.5" target-x="446" target-y="620"></path><path d="M 546.20 684.10 L 546.50 682.30 L 547.40 680.90 L 548.60 679.90 L 550.10 679.30 L 551.80 679.30 L 553.50 679.90 L 777.90 810.50 L 779.60 812.20 L 780.30 814.60 L 780.00 816.40 L 779.10 817.80 L 777.90 818.80 L 776.30 819.40 L 774.70 819.40 L 773.00 818.80 L 548.60 688.30 L 546.80 686.50 L 546.20 684.10 Z" fill="#ffffff" fill-rule="nonzero" node-id="258" stroke="none" target-height="140.10004" target-width="234.09998" target-x="546.2" target-y="679.3"></path><path d="M 546.20 713.20 L 546.50 711.50 L 547.40 710.10 L 548.60 709.10 L 550.10 708.50 L 551.80 708.50 L 553.50 709.10 L 621.90 749.50 L 622.90 750.30 L 624.10 752.40 L 624.20 753.60 L 623.90 755.40 L 623.10 756.80 L 621.80 757.80 L 620.30 758.40 L 618.60 758.40 L 617.00 757.80 L 548.60 717.40 L 546.80 715.60 L 546.20 713.20 Z" fill="#ffffff" fill-rule="nonzero" node-id="260" stroke="none" target-height="49.900024" target-width="78" target-x="546.2" target-y="708.5"></path><path d="M 544.80 407.00 L 588.00 433.00 L 588.00 493.30 L 537.70 461.90 L 555.90 444.70 L 544.80 407.00 Z" fill="url(#paint7_linear_1719_18970)" fill-rule="nonzero" node-id="262" stroke="none" target-height="86.29999" target-width="50.299988" target-x="537.7" target-y="407"></path><path d="M 574.80 444.20 L 588.00 475.70 L 588.00 433.00 L 574.80 444.20 Z" fill="#615cf5" fill-rule="nonzero" node-id="264" stroke="none" target-height="42.700012" target-width="13.200012" target-x="574.8" target-y="433"></path><path d="M 720.60 511.30 L 771.00 541.00 L 756.40 560.90 L 762.20 596.00 L 720.60 570.70 L 720.60 511.30 Z" fill="url(#paint8_linear_1719_18970)" fill-rule="nonzero" node-id="266" stroke="none" target-height="84.70001" target-width="50.400024" target-x="720.6" target-y="511.3"></path><path d="M 728.10 532.40 L 720.60 511.30 L 720.60 548.10 L 728.10 532.40 Z" fill="#f68cc7" fill-rule="nonzero" node-id="268" stroke="none" target-height="36.799988" target-width="7.5" target-x="720.6" target-y="511.3"></path><path d="M 574.80 443.90 L 728.10 532.40 L 728.10 592.80 L 574.80 503.20 L 574.80 443.90 Z" fill="url(#paint9_linear_1719_18970)" fill-rule="nonzero" node-id="270" stroke="none" target-height="148.9" target-width="153.29999" target-x="574.8" target-y="443.9"></path><g node-id="328"><path d="M 110.40 356.80 L 107.80 355.60 L 105.60 355.10 L 103.70 355.00 L 101.80 355.50 L 100.20 356.40 L 98.80 357.80 L 97.90 359.50 L 97.30 361.70 L 97.00 364.50 L 97.00 615.10 L 98.20 621.90 L 101.00 628.20 L 105.10 633.80 L 110.40 638.20 L 489.30 856.70 L 491.90 857.80 L 494.10 858.40 L 496.10 858.40 L 498.00 858.00 L 499.60 857.10 L 500.90 855.60 L 501.80 853.90 L 502.50 851.70 L 502.70 848.90 L 502.70 598.70 L 502.30 595.20 L 500.30 588.70 L 498.80 585.60 L 496.90 582.60 L 492.20 577.70 L 489.30 575.60 L 110.40 356.80 Z" fill="url(#paint10_linear_1719_18970)" fill-opacity="0.8" fill-rule="nonzero" group-id="1" node-id="274" stroke="none" target-height="503.40002" target-width="405.7" target-x="97" target-y="355"></path></g><path d="M 53.40 383.80 L 50.80 382.60 L 48.60 382.10 L 46.70 382.00 L 44.80 382.50 L 43.20 383.40 L 41.80 384.80 L 40.90 386.50 L 40.30 388.70 L 40.00 391.50 L 40.00 642.10 L 41.20 648.90 L 44.00 655.20 L 48.10 660.80 L 53.40 665.20 L 432.30 883.70 L 434.90 884.80 L 437.10 885.40 L 439.10 885.40 L 441.00 885.00 L 442.60 884.10 L 443.90 882.60 L 444.80 880.90 L 445.50 878.70 L 445.70 875.90 L 445.70 625.70 L 445.30 622.20 L 443.30 615.70 L 441.80 612.60 L 439.90 609.60 L 435.20 604.70 L 432.30 602.60 L 53.40 383.80 Z" fill="url(#paint11_linear_1719_18970)" fill-rule="nonzero" node-id="277" stroke="none" target-height="503.40002" target-width="405.7" target-x="40" target-y="382"></path><path d="M 75.20 584.10 L 110.60 604.30 L 110.60 634.80 L 75.20 614.50 L 75.20 584.10 Z" fill="#ffffff" fill-rule="nonzero" node-id="279" stroke="none" target-height="50.700012" target-width="35.4" target-x="75.2" target-y="584.1"></path><path d="M 135.60 619.50 L 171.10 639.70 L 171.10 670.10 L 135.60 649.90 L 135.60 619.50 Z" fill="#ffffff" fill-rule="nonzero" node-id="281" stroke="none" target-height="50.599976" target-width="35.5" target-x="135.6" target-y="619.5"></path><path d="M 184.10 647.00 L 219.50 667.20 L 219.50 697.70 L 184.10 677.40 L 184.10 647.00 Z" fill="#ffffff" fill-rule="nonzero" node-id="283" stroke="none" target-height="50.700012" target-width="35.399994" target-x="184.1" target-y="647"></path><path d="M 235.30 676.50 L 270.70 696.70 L 270.70 727.10 L 235.30 706.90 L 235.30 676.50 Z" fill="#ffffff" fill-rule="nonzero" node-id="285" stroke="none" target-height="50.599976" target-width="35.40001" target-x="235.3" target-y="676.5"></path><path d="M 294.70 710.90 L 330.10 731.00 L 330.10 761.50 L 294.70 741.30 L 294.70 710.90 Z" fill="#ffffff" fill-rule="nonzero" node-id="287" stroke="none" target-height="50.599976" target-width="35.399994" target-x="294.7" target-y="710.9"></path><path d="M 139.30 491.10 L 139.60 489.30 L 140.50 487.80 L 141.80 486.70 L 143.40 486.20 L 145.10 486.10 L 146.80 486.80 L 410.40 642.20 L 411.40 643.00 L 412.60 645.00 L 412.80 646.30 L 412.40 648.00 L 411.60 649.40 L 410.40 650.40 L 408.90 651.00 L 407.30 651.00 L 405.60 650.40 L 141.80 495.40 L 140.00 493.50 L 139.30 491.10 Z" fill="#ffffff" fill-rule="nonzero" node-id="289" stroke="none" target-height="164.9" target-width="273.5" target-x="139.3" target-y="486.1"></path><path d="M 139.30 524.80 L 139.60 523.00 L 140.50 521.70 L 141.70 520.60 L 143.20 520.10 L 144.80 520.10 L 146.50 520.70 L 410.50 676.40 L 411.50 677.10 L 412.60 679.10 L 412.80 680.30 L 412.50 681.90 L 411.70 683.20 L 410.50 684.20 L 409.10 684.70 L 407.50 684.70 L 406.00 684.10 L 141.60 528.80 L 139.90 527.10 L 139.30 524.80 Z" fill="#ffffff" fill-rule="nonzero" node-id="291" stroke="none" target-height="164.60004" target-width="273.5" target-x="139.3" target-y="520.1"></path><path d="M 139.30 558.70 L 139.60 556.90 L 140.50 555.50 L 141.80 554.40 L 143.40 553.80 L 145.10 553.80 L 146.80 554.50 L 264.60 624.00 L 265.60 624.80 L 266.80 626.90 L 267.00 628.10 L 266.60 629.90 L 265.80 631.20 L 264.60 632.20 L 263.10 632.80 L 261.50 632.80 L 259.80 632.20 L 141.80 563.00 L 140.00 561.20 L 139.30 558.70 Z" fill="#ffffff" fill-rule="nonzero" node-id="293" stroke="none" target-height="79" target-width="127.7" target-x="139.3" target-y="553.8"></path><path d="M 111.20 504.50 L 113.60 501.80 L 114.50 500.00 L 115.50 496.00 L 115.60 493.50 L 115.00 487.60 L 114.20 484.40 L 112.50 479.80 L 110.20 475.30 L 107.40 471.00 L 104.30 467.30 L 101.90 465.00 L 96.90 461.60 L 94.30 460.20 L 89.70 459.00 L 85.70 459.50 L 83.90 460.20 L 82.30 461.30 L 80.90 462.90 L 79.00 466.70 L 78.20 472.10 L 78.50 476.20 L 79.40 480.30 L 80.80 484.60 L 82.70 488.60 L 85.00 492.50 L 87.60 496.30 L 84.40 498.10 L 81.40 500.30 L 78.80 502.80 L 76.40 505.60 L 74.40 508.60 L 72.80 512.00 L 71.50 515.50 L 70.80 519.20 L 70.50 530.40 L 125.60 562.80 L 125.50 541.40 L 124.90 535.60 L 123.70 530.00 L 122.10 524.50 L 120.00 519.20 L 117.50 514.10 L 114.60 509.20 L 111.20 504.50 Z" fill="url(#paint12_linear_1719_18970)" fill-rule="nonzero" node-id="295" stroke="none" target-height="103.79999" target-width="55.1" target-x="70.5" target-y="459"></path><path d="M 951.80 676.00 L 949.00 677.40 L 950.40 816.10 L 951.00 819.50 L 951.80 821.10 L 953.30 823.30 L 955.20 825.00 L 1072.80 892.70 L 1075.60 891.20 L 1076.90 889.70 L 1077.90 887.90 L 1078.20 885.90 L 1078.20 753.30 L 1077.60 749.90 L 1076.90 748.30 L 1075.30 746.10 L 1073.40 744.40 L 955.90 676.70 L 954.10 676.10 L 951.80 676.00 Z" fill="url(#paint13_linear_1719_18970)" fill-opacity="0.6" fill-rule="nonzero" node-id="297" stroke="none" target-height="216.70001" target-width="129.19995" target-x="949" target-y="676"></path><path d="M 928.80 695.70 L 927.40 695.20 L 926.30 695.20 L 925.40 695.50 L 924.20 697.10 L 924.00 698.40 L 924.00 835.80 L 924.60 839.20 L 925.40 840.80 L 926.90 842.90 L 928.80 844.70 L 1046.40 910.30 L 1047.80 910.80 L 1048.90 910.80 L 1049.80 910.50 L 1051.00 908.90 L 1051.20 907.60 L 1051.20 773.60 L 1050.50 770.30 L 1049.80 768.70 L 1048.30 766.50 L 1046.40 764.70 L 928.80 695.70 Z" fill="url(#paint14_linear_1719_18970)" fill-rule="nonzero" node-id="299" stroke="none" target-height="215.59998" target-width="127.19995" target-x="924" target-y="695.2"></path><path d="M 1006.00 832.40 L 1007.00 832.70 L 1007.90 832.50 L 1009.00 831.80 L 1010.10 830.30 L 1010.90 828.70 L 1011.30 826.70 L 1011.50 821.50 L 1011.30 817.10 L 1009.90 808.60 L 1006.90 800.30 L 1002.40 792.20 L 999.90 788.60 L 997.10 785.40 L 993.90 782.50 L 990.50 779.90 L 986.90 777.70 L 983.00 775.90 L 979.60 774.70 L 976.60 774.20 L 972.30 774.50 L 968.40 776.30 L 966.20 778.20 L 964.40 780.50 L 962.90 783.20 L 961.80 786.10 L 961.20 789.70 L 960.90 794.10 L 961.10 798.20 L 962.50 806.80 L 963.80 811.00 L 965.60 815.20 L 970.30 823.40 L 975.60 830.20 L 978.60 833.10 L 981.90 835.60 L 985.50 837.90 L 988.30 839.40 L 990.90 840.20 L 993.20 840.60 L 995.60 840.50 L 997.80 840.10 L 999.90 839.20 L 1003.30 848.10 L 999.70 849.00 L 997.60 849.10 L 995.10 848.80 L 990.10 847.60 L 987.70 846.70 L 981.20 842.50 L 977.10 839.20 L 973.20 835.60 L 969.60 831.60 L 966.20 827.10 L 963.00 822.10 L 960.10 816.90 L 957.90 811.70 L 956.20 806.40 L 955.00 801.10 L 954.30 795.80 L 954.30 786.80 L 954.80 783.30 L 956.60 777.50 L 958.00 774.90 L 959.60 772.80 L 961.50 771.00 L 963.70 769.50 L 966.00 768.40 L 968.60 767.70 L 971.30 767.40 L 974.20 767.50 L 978.10 768.10 L 982.30 769.40 L 986.90 771.60 L 991.20 774.40 L 995.30 777.70 L 999.20 781.40 L 1002.80 785.40 L 1006.20 789.80 L 1009.50 794.80 L 1012.30 800.10 L 1014.50 805.30 L 1016.20 810.50 L 1017.40 815.90 L 1018.10 821.10 L 1018.30 826.20 L 1018.10 831.20 L 1017.40 835.00 L 1015.80 839.20 L 1014.90 840.60 L 1013.50 841.80 L 1012.10 842.50 L 1009.20 842.60 L 1005.40 841.30 L 1002.40 839.10 L 1001.10 837.70 L 997.90 832.10 L 996.50 828.30 L 995.00 829.40 L 993.30 830.10 L 991.40 830.30 L 987.30 829.50 L 984.80 828.30 L 980.50 825.10 L 978.50 823.10 L 975.90 819.70 L 973.20 815.30 L 971.00 810.70 L 969.50 806.40 L 968.70 802.10 L 968.60 794.50 L 969.50 789.80 L 970.50 787.70 L 971.70 786.00 L 974.70 783.50 L 976.40 782.90 L 978.30 782.80 L 980.40 783.20 L 985.50 785.20 L 989.20 787.90 L 995.10 795.50 L 995.10 791.40 L 1005.40 796.90 L 1005.40 826.90 L 1004.60 828.00 L 1004.30 829.00 L 1004.80 830.80 L 1006.00 832.40 Z M 993.70 811.20 L 993.20 806.50 L 991.70 802.30 L 989.20 798.70 L 986.20 796.20 L 984.60 795.40 L 983.20 795.10 L 981.90 795.40 L 980.70 796.20 L 979.70 797.70 L 978.90 799.70 L 978.70 802.30 L 979.20 806.80 L 980.70 811.20 L 983.20 815.10 L 986.20 818.00 L 987.80 818.80 L 989.20 819.10 L 990.50 818.80 L 991.70 818.00 L 992.60 816.80 L 993.20 815.10 L 993.70 811.20 Z" fill="#ffffff" fill-rule="nonzero" node-id="301" stroke="none" target-height="81.69995" target-width="64" target-x="954.3" target-y="767.4"></path><g node-id="329"><path d="M 670.30 795.50 L 672.30 794.10 L 676.40 792.00 L 680.90 791.00 L 685.40 791.40 L 689.80 793.20 L 1048.20 1000.00 L 1050.80 1001.90 L 1053.30 1004.50 L 1055.30 1007.50 L 1056.90 1010.80 L 1058.20 1015.60 L 1058.30 1051.30 L 1077.80 1094.10 L 1078.30 1096.00 L 1078.40 1097.80 L 1078.20 1099.50 L 1076.60 1102.70 L 1073.80 1104.90 L 1072.00 1105.50 L 1070.00 1105.80 L 1058.30 1105.80 L 1058.30 1168.00 L 1058.00 1171.00 L 1057.10 1173.80 L 1055.70 1176.30 L 1053.80 1178.40 L 1052.40 1179.60 L 1049.00 1181.20 L 1047.10 1181.50 L 1043.60 1180.40 L 680.50 970.50 L 677.80 968.60 L 675.20 966.00 L 673.00 963.10 L 671.20 959.90 L 670.30 957.60 L 669.60 953.40 L 669.60 798.60 L 669.30 798.00 L 669.40 797.10 L 670.30 795.50 Z" fill="url(#paint15_linear_1719_18970)" fill-opacity="0.6" fill-rule="nonzero" group-id="2" node-id="305" stroke="none" target-height="390.5" target-width="409.10004" target-x="669.3" target-y="791"></path></g><path d="M 624.00 829.30 L 624.70 825.60 L 626.40 823.10 L 627.60 822.40 L 630.60 821.90 L 634.10 823.10 L 995.70 1032.30 L 998.20 1034.10 L 1000.70 1036.70 L 1002.70 1039.70 L 1004.30 1043.10 L 1005.60 1047.80 L 1005.80 1083.60 L 1025.20 1126.30 L 1025.90 1130.00 L 1025.60 1131.80 L 1025.00 1133.40 L 1024.00 1134.90 L 1021.20 1137.10 L 1019.50 1137.70 L 1017.40 1138.00 L 1005.80 1138.00 L 1005.60 1203.00 L 1004.30 1206.00 L 1003.30 1207.20 L 1002.10 1207.90 L 999.20 1208.40 L 997.50 1208.00 L 995.70 1207.20 L 634.10 998.00 L 631.50 996.20 L 629.10 993.60 L 627.00 990.60 L 625.40 987.20 L 624.60 984.80 L 624.00 980.20 L 624.00 829.30 Z" fill="#ffffff" fill-rule="nonzero" node-id="308" stroke="none" target-height="386.5" target-width="401.90002" target-x="624" target-y="821.9"></path><path d="M 879.80 999.90 L 879.50 1003.50 L 878.60 1006.60 L 877.20 1009.50 L 875.30 1012.00 L 873.10 1014.20 L 870.50 1015.90 L 867.70 1017.30 L 864.70 1018.10 L 861.50 1018.40 L 858.40 1018.20 L 855.20 1017.30 L 852.00 1015.80 L 782.40 974.70 L 779.80 972.80 L 777.50 970.50 L 775.70 967.90 L 774.40 965.00 L 773.60 961.90 L 773.30 958.60 L 773.60 955.10 L 774.50 951.90 L 775.90 949.00 L 777.90 946.40 L 780.10 944.20 L 782.70 942.40 L 785.60 941.10 L 788.60 940.30 L 791.90 940.00 L 795.10 940.20 L 798.30 941.10 L 801.50 942.60 L 870.80 984.10 L 873.50 986.00 L 875.60 988.30 L 877.40 990.80 L 878.70 993.70 L 879.50 996.70 L 879.80 999.90 Z" fill="#f68bc6" fill-rule="nonzero" node-id="310" stroke="none" target-height="78.400024" target-width="106.5" target-x="773.3" target-y="940"></path><path d="M 889.90 1112.60 L 889.30 1115.20 L 888.50 1116.30 L 887.10 1117.50 L 885.20 1118.20 L 884.00 1118.30 L 881.30 1117.60 L 776.40 1058.10 L 775.10 1057.10 L 774.10 1055.90 L 773.50 1054.40 L 773.30 1052.80 L 774.00 1050.00 L 775.70 1047.90 L 778.20 1046.90 L 779.60 1046.70 L 782.40 1047.60 L 887.00 1107.60 L 889.10 1109.70 L 889.90 1112.60 Z" fill="#f68bc6" fill-rule="nonzero" node-id="312" stroke="none" target-height="71.6001" target-width="116.60004" target-x="773.3" target-y="1046.7"></path><path d="M 982.40 1139.00 L 981.80 1141.70 L 979.60 1143.90 L 976.50 1144.70 L 973.80 1144.00 L 776.30 1030.90 L 775.10 1029.90 L 774.10 1028.70 L 773.30 1025.60 L 774.00 1022.80 L 775.80 1020.70 L 778.20 1019.70 L 779.60 1019.60 L 782.40 1020.40 L 979.60 1134.00 L 980.80 1134.90 L 981.70 1136.10 L 982.40 1139.00 Z" fill="#f68bc6" fill-rule="nonzero" node-id="314" stroke="none" target-height="125.099976" target-width="209.10004" target-x="773.3" target-y="1019.6"></path><path d="M 982.40 1108.10 L 981.80 1110.90 L 981.00 1112.00 L 978.80 1113.60 L 976.10 1114.10 L 973.40 1113.30 L 776.20 999.70 L 775.00 998.80 L 773.50 996.20 L 773.30 994.70 L 773.90 992.10 L 774.70 991.00 L 776.10 989.80 L 777.90 989.10 L 779.20 989.00 L 781.90 989.70 L 979.40 1102.80 L 980.70 1103.80 L 981.60 1105.00 L 982.20 1106.50 L 982.40 1108.10 Z" fill="#f68bc6" fill-rule="nonzero" node-id="316" stroke="none" target-height="125.099976" target-width="209.10004" target-x="773.3" target-y="989"></path><path d="M 760.10 896.20 L 634.10 823.90 L 630.60 822.60 L 627.60 822.90 L 626.40 823.60 L 624.70 826.00 L 624.00 830.10 L 624.00 981.70 L 624.60 986.00 L 627.00 991.50 L 629.10 994.60 L 631.50 997.40 L 634.10 999.60 L 760.10 1071.10 L 760.10 896.20 Z" fill="url(#paint16_linear_1719_18970)" fill-rule="nonzero" node-id="318" stroke="none" target-height="248.5" target-width="136.09998" target-x="624" target-y="822.6"></path><path d="M 586.40 382.10 L 1020.00 628.00 L 1020.00 586.60 L 1019.40 581.00 L 1017.00 573.70 L 1014.80 569.50 L 1012.20 565.50 L 1006.90 559.80 L 1002.30 556.50 L 330.20 173.10 L 325.70 172.00 L 321.90 172.40 L 318.70 174.20 L 316.40 177.20 L 315.70 179.20 L 315.00 184.40 L 315.00 225.70" fill="url(#paint17_linear_1719_18970)" fill-rule="nonzero" node-id="320" stroke="none" target-height="456" target-width="705" target-x="315" target-y="172"></path><path d="M 388.00 236.70 L 388.30 239.70 L 389.30 243.00 L 390.80 246.10 L 392.80 248.90 L 395.10 251.40 L 397.60 253.20 L 401.10 254.50 L 403.80 254.20 L 405.00 253.60 L 406.60 251.30 L 407.20 247.80 L 406.90 244.70 L 405.90 241.50 L 404.40 238.40 L 402.50 235.50 L 400.10 233.00 L 397.60 231.20 L 394.20 229.90 L 391.40 230.20 L 390.30 230.90 L 388.60 233.10 L 388.00 236.70 Z" fill="#ffffff" fill-rule="nonzero" node-id="322" stroke="none" target-height="24.600006" target-width="19.200012" target-x="388" target-y="229.9"></path><path d="M 363.00 222.20 L 363.30 225.30 L 364.30 228.50 L 365.80 231.60 L 367.80 234.50 L 370.10 237.00 L 372.60 238.80 L 376.00 240.10 L 378.80 239.80 L 380.00 239.10 L 381.60 236.90 L 382.20 233.30 L 381.90 230.30 L 380.90 227.00 L 379.40 223.90 L 377.50 221.10 L 375.10 218.60 L 372.60 216.80 L 369.20 215.50 L 366.40 215.80 L 365.30 216.40 L 363.60 218.60 L 363.00 222.20 Z" fill="#ffffff" fill-rule="nonzero" node-id="324" stroke="none" target-height="24.600006" target-width="19.200012" target-x="363" target-y="215.5"></path><path d="M 338.00 207.80 L 338.30 210.90 L 339.30 214.10 L 340.80 217.20 L 342.80 220.10 L 345.10 222.50 L 347.60 224.40 L 351.00 225.60 L 353.80 225.30 L 354.90 224.70 L 356.60 222.50 L 357.20 218.90 L 356.90 215.80 L 355.90 212.60 L 354.40 209.50 L 352.50 206.60 L 350.10 204.20 L 347.60 202.30 L 344.20 201.10 L 341.40 201.30 L 340.30 202.00 L 338.60 204.20 L 338.00 207.80 Z" fill="#ffffff" fill-rule="nonzero" node-id="326" stroke="none" target-height="24.5" target-width="19.200012" target-x="338" target-y="201.1"></path></svg>